<svg width="20" height="19" viewBox="0 0 20 19" fill="none" xmlns="http://www.w3.org/2000/svg">
<path d="M11.4197 11.7841C12.414 11.1461 14.0963 10.0806 14.9594 9.44897C15.9538 8.72801 16.6667 8.12828 16.2227 7.33715C15.8412 6.66723 15.0282 6.8076 13.6398 7.25421C12.364 7.66891 10.6755 8.27503 9.63731 8.66421C9.51223 8.70887 9.42467 8.53661 9.53724 8.46005C10.788 7.59873 12.2202 6.55239 12.9706 5.8761C13.4522 5.44225 13.5147 4.9127 13.2583 4.58732C13.0394 4.31297 12.7518 4.03224 11.3884 4.48523C10.4065 4.817 9.15575 5.35293 8.03005 5.81868C7.91123 5.86972 7.81742 5.71022 7.91748 5.62727C8.1864 5.39759 8.71173 4.98288 8.99941 4.67664C9.45594 4.18537 9.4622 3.70686 9.2308 3.39423C9.11198 3.22835 8.84306 2.954 8.08634 3.01781C7.46095 3.06885 6.73549 3.20283 5.75988 3.47717C5.04694 3.68134 5.147 4.81062 6.16013 4.6256C6.41654 4.58094 6.78552 4.50437 7.05444 4.44695C7.16701 4.42143 7.24206 4.57456 7.14825 4.64474C6.47283 5.19343 5.67233 5.85058 5.30335 6.18873C4.8218 6.62257 4.62792 7.08832 4.94687 7.52217C5.27833 7.9624 5.92874 7.82842 6.71048 7.59873C7.19203 7.45837 7.9425 7.19679 8.48033 7.01176C8.60541 6.9671 8.68671 7.14574 8.57414 7.21593C7.57977 7.85394 5.89747 8.91942 5.03443 9.55105C4.04006 10.272 3.32711 10.8717 3.77114 11.6629C4.15263 12.3328 4.96564 12.1924 6.354 11.7458C7.6298 11.3311 9.31836 10.725 10.3565 10.3358C10.4816 10.2911 10.5691 10.4634 10.4566 10.54C9.20579 11.4013 7.77364 12.4476 7.02317 13.1239C6.54162 13.5578 6.47908 14.0873 6.73549 14.4127C6.95438 14.687 7.24206 14.9678 8.60541 14.5148C9.58727 14.183 10.8381 13.6471 11.9638 13.1813C12.0826 13.1303 12.1764 13.2898 12.0763 13.3727C11.8074 13.6024 11.2821 14.0171 10.9944 14.3234C10.5379 14.8147 10.5316 15.2932 10.763 15.6058C10.8818 15.7717 11.1508 16.046 11.9075 15.9822C12.5329 15.9312 13.2583 15.7972 14.2339 15.5228C14.9469 15.3187 14.8468 14.1894 13.8337 14.3744C13.5773 14.4191 13.2083 14.4956 12.9394 14.5531C12.8268 14.5786 12.7518 14.4255 12.8456 14.3553C13.521 13.813 14.3152 13.1558 14.6842 12.8177C15.1658 12.3838 15.3596 11.9181 15.0407 11.4842C14.7092 11.044 14.0588 11.178 13.2771 11.4077C12.7955 11.548 12.0451 11.8096 11.5072 11.9946C11.3947 12.0329 11.3071 11.8543 11.4197 11.7841Z" fill="#FF67A6"/>
</svg>
