<svg width="20" height="20" viewBox="0 0 20 20" fill="none" xmlns="http://www.w3.org/2000/svg">
<path d="M3.6888 17.0006L2.28442 1.25H17.7157L16.3094 16.9981L9.99067 18.75L3.6888 17.0006Z" fill="#E44F26"/>
<path d="M10 17.4113L15.1062 15.9956L16.3075 2.53813H10V17.4113Z" fill="#F1662A"/>
<path d="M10 8.37937H7.44375L7.2675 6.40125H10V4.46938H9.99312H5.15625L5.2025 4.98813L5.67688 10.3112H10V8.37937Z" fill="#EBEBEB"/>
<path d="M10.0001 13.3962L9.99131 13.3987L7.84006 12.8181L7.70256 11.2775H6.65693H5.76318L6.03381 14.31L9.99131 15.4087L10.0001 15.4062V13.3962Z" fill="#EBEBEB"/>
<path d="M9.99316 8.37938V10.3113H12.3719L12.1482 12.8169L9.99316 13.3981V15.4081L13.9538 14.31L13.9825 13.9838L14.4363 8.89813L14.4838 8.37938H13.9632H9.99316Z" fill="white"/>
<path d="M9.99316 4.46938V5.66938V6.39688V6.40125H14.6532H14.6594L14.6982 5.9675L14.7863 4.98813L14.8325 4.46938H9.99316Z" fill="white"/>
</svg>
