<svg width="20" height="20" viewBox="0 0 20 20" fill="none" xmlns="http://www.w3.org/2000/svg">
<g clip-path="url(#clip0_3_17)">
<path d="M0 0H20V20H0V0Z" fill="#F7DF1E"/>
<path d="M5.2587 16.7135L6.78924 15.7872C7.08451 16.3107 7.35311 16.7537 7.9974 16.7537C8.61498 16.7537 9.00435 16.5121 9.00435 15.5724V9.18193H10.8838V15.599C10.8838 17.5456 9.74276 18.4317 8.07797 18.4317C6.57444 18.4317 5.70168 17.653 5.25867 16.7133" fill="black"/>
<path d="M11.9048 16.5121L13.4351 15.626C13.838 16.2839 14.3616 16.7672 15.2879 16.7672C16.0666 16.7672 16.5632 16.3778 16.5632 15.8408C16.5632 15.1964 16.0531 14.9681 15.1939 14.5924L14.7241 14.3908C13.3681 13.8137 12.4686 13.0887 12.4686 11.5582C12.4686 10.1485 13.5426 9.07448 15.2208 9.07448C16.4156 9.07448 17.2748 9.4907 17.8923 10.5782L16.429 11.5179C16.1068 10.9406 15.7578 10.7124 15.2208 10.7124C14.6704 10.7124 14.3213 11.0615 14.3213 11.5179C14.3213 12.0817 14.6704 12.31 15.4758 12.6591L15.9456 12.8605C17.5433 13.5452 18.4428 14.2432 18.4428 15.8139C18.4428 17.5056 17.1137 18.4319 15.3282 18.4319C13.5829 18.4319 12.4551 17.5996 11.9048 16.5121Z" fill="black"/>
</g>
<defs>
<clipPath id="clip0_3_17">
<rect width="20" height="20" fill="white"/>
</clipPath>
</defs>
</svg>
