<svg width="20" height="20" viewBox="0 0 20 20" fill="none" xmlns="http://www.w3.org/2000/svg">
<g clip-path="url(#clip0_7_16)">
<path d="M0.833374 1.08331H19.1668V18.9167H0.833374V1.08331Z" fill="url(#paint0_radial_7_16)"/>
<path d="M0.833323 1.08326H19.1667V18.9166H0.833323V1.08326ZM0 19.75H20V0.249939H0V19.75ZM13.4834 8.24995C12.825 8.24995 12.6 8.58327 12.6 8.85827C12.6 9.15827 12.75 9.3666 13.6334 9.82494C14.9417 10.4583 15.35 11.0666 15.35 11.9583C15.35 13.2916 14.3334 14.0083 12.9584 14.0083C12.2334 14.0083 11.6083 13.8583 11.25 13.65C11.1917 13.625 11.1834 13.5833 11.1834 13.5166V12.2916C11.1834 12.2083 11.225 12.1833 11.2834 12.225C11.8084 12.5667 12.4084 12.7166 12.9584 12.7166C13.6167 12.7166 13.8917 12.4416 13.8917 12.0666C13.8917 11.7666 13.7 11.5 12.8583 11.0666C11.675 10.5 11.1834 9.92496 11.1834 8.96662C11.1834 7.8916 12.025 6.99995 13.4834 6.99995C14.2 6.99995 14.7 7.1083 14.975 7.23329C15.0417 7.27495 15.0584 7.34161 15.0584 7.39993V8.54158C15.0584 8.60824 15.0167 8.64993 14.9333 8.6249C14.5667 8.39163 14.025 8.24995 13.4834 8.24995ZM6.31667 9.24162C6.50834 9.25829 6.65836 9.25829 6.99168 9.25829C7.96672 9.25829 8.88336 8.91663 8.88336 7.59164C8.88336 6.53331 8.22502 5.99995 7.1167 5.99995C6.78337 5.99995 6.46668 6.01661 6.31667 6.02494V9.24162ZM4.83336 4.8166C4.83336 4.75828 4.95005 4.71658 5.01667 4.71658C5.55004 4.69159 6.3417 4.67492 7.16669 4.67492C9.47502 4.67492 10.375 5.94159 10.375 7.55828C10.375 9.67493 8.84167 10.5833 6.95835 10.5833C6.64169 10.5833 6.53337 10.5666 6.30834 10.5666V13.7666C6.30834 13.8333 6.28334 13.8666 6.20835 13.8666H4.93335C4.86669 13.8666 4.83333 13.8416 4.83333 13.7666V4.8166H4.83336Z" fill="#31C5F0"/>
</g>
<defs>
<radialGradient id="paint0_radial_7_16" cx="0" cy="0" r="1" gradientUnits="userSpaceOnUse" gradientTransform="translate(6.8715 5.07979) scale(13.9334 13.49)">
<stop stop-color="#34364E" stop-opacity="0.98"/>
<stop offset="1" stop-color="#0C0824"/>
</radialGradient>
<clipPath id="clip0_7_16">
<rect width="20" height="20" fill="white"/>
</clipPath>
</defs>
</svg>
