<svg width="20" height="20" viewBox="0 0 20 20" fill="none" xmlns="http://www.w3.org/2000/svg">
<path d="M8.08306 13.1148V11.9931L4.96663 12.8768C4.96663 12.8768 5.19691 11.5388 6.82221 11.0778C7.31511 10.9381 7.73566 10.939 8.08306 11.0061V6.40548H9.64346C9.47356 5.88048 9.30921 5.47628 9.17116 5.19543C8.94281 4.73058 8.70871 5.03873 8.17726 5.48323C7.80296 5.79593 6.85696 6.46303 5.43341 6.84663C4.00984 7.23048 2.85896 7.12868 2.37877 7.04553C1.69801 6.92808 1.34194 6.77858 1.37525 7.29638C1.40424 7.75308 1.51303 8.46118 1.76223 9.39638C2.30137 11.4216 4.08316 15.324 7.45051 14.4171C8.33011 14.1801 8.95096 13.7116 9.38131 13.1145L8.08306 13.1148ZM3.05425 9.42418L5.44731 8.79378C5.44731 8.79378 5.37756 9.71438 4.48044 9.95088C3.58308 10.1871 3.05425 9.42418 3.05425 9.42418Z" fill="#9C3F37"/>
<path d="M17.0893 6.45875C16.4672 6.5678 14.9749 6.70365 13.1306 6.2093C11.2858 5.71525 10.0618 4.85117 9.57683 4.44502C8.88938 3.86922 8.58698 3.46906 8.28938 4.07433C8.02628 4.6082 7.68983 5.47705 7.36418 6.69335C6.65853 9.3272 6.13113 14.8853 10.4933 16.0549C14.8546 17.2235 17.1765 12.146 17.8822 9.51195C18.2078 8.2959 18.3506 7.37505 18.3899 6.7813C18.4347 6.1087 17.9727 6.30395 17.0893 6.45875ZM8.32483 8.63785C8.32483 8.63785 9.01228 7.56865 10.1782 7.90005C11.3449 8.23145 11.4353 9.5213 11.4353 9.5213L8.32483 8.63785ZM11.171 13.4357C9.12013 12.8349 8.80383 11.1995 8.80383 11.1995L14.3131 12.7398C14.3131 12.7396 13.201 14.0289 11.171 13.4357ZM13.1188 10.0748C13.1188 10.0748 13.8053 9.00635 14.9711 9.3387C16.1368 9.6706 16.2286 10.9604 16.2286 10.9604L13.1188 10.0748Z" fill="#8CC84B"/>
<path d="M6.994 12.302L4.96662 12.8766C4.96662 12.8766 5.18685 11.622 6.68035 11.1248L5.53235 6.81653L5.43315 6.84668C4.00959 7.23058 2.85871 7.12873 2.37852 7.04558C1.69777 6.92818 1.3417 6.77863 1.37501 7.29648C1.404 7.75318 1.51279 8.46123 1.76199 9.39648C2.30113 11.4217 4.08292 15.3241 7.45025 14.4171L7.54945 14.386L6.994 12.302ZM3.05424 9.42428L5.4473 8.79383C5.4473 8.79383 5.37755 9.71443 4.48044 9.95093C3.58308 10.1872 3.05424 9.42428 3.05424 9.42428Z" fill="#E44F26"/>
<path d="M11.2635 13.4582L11.1707 13.4356C9.11988 12.8349 8.80358 11.1995 8.80358 11.1995L11.6445 11.9936L13.1485 6.2141L13.1303 6.2093C11.2855 5.71525 10.0616 4.85117 9.57658 4.44502C8.88913 3.86922 8.58673 3.46906 8.28913 4.07433C8.02628 4.6082 7.68983 5.47705 7.36418 6.69335C6.65853 9.3272 6.13113 14.8853 10.4933 16.0549L10.5827 16.075L11.2635 13.4582ZM8.32483 8.63785C8.32483 8.63785 9.01228 7.56865 10.1782 7.90005C11.3449 8.23145 11.4353 9.5213 11.4353 9.5213L8.32483 8.63785Z" fill="#1D8D22"/>
<path d="M7.09728 12.2726L6.55358 12.4269C6.68203 13.151 6.90843 13.8459 7.26378 14.4598C7.32563 14.4461 7.38698 14.4344 7.44998 14.4171C7.61508 14.3726 7.76818 14.3174 7.91558 14.2573C7.51853 13.6681 7.25588 12.9895 7.09728 12.2726ZM6.88498 7.1726C6.60558 8.2154 6.35563 9.71635 6.42443 11.2218C6.54758 11.1684 6.67768 11.1186 6.82218 11.0776L6.92283 11.0551C6.80013 9.447 7.06538 7.8083 7.36418 6.69335C7.43993 6.4113 7.51588 6.14895 7.59158 5.9043C7.46963 5.9819 7.33833 6.06145 7.18878 6.1434C7.08793 6.4547 6.98608 6.79495 6.88498 7.1726Z" fill="#892C24"/>
</svg>
