<svg width="20" height="20" viewBox="0 0 20 20" fill="none" xmlns="http://www.w3.org/2000/svg">
<path d="M11.6743 9.98493C11.6743 9.08843 10.9247 8.36156 10 8.36156C9.07537 8.36156 8.32568 9.08843 8.32568 9.98493C8.32568 10.8816 9.07537 11.6084 10 11.6084C10.9247 11.6084 11.6743 10.8816 11.6743 9.98493Z" fill="#76DAFF"/>
<path fill-rule="evenodd" clip-rule="evenodd" d="M15.4377 6.97106C15.7913 5.57799 16.2358 2.99467 14.669 2.11885C13.1096 1.24684 11.0803 2.91777 10.0087 3.92074C8.94025 2.92776 6.85394 1.26398 5.28852 2.14259C3.72969 3.01752 4.2104 5.558 4.57181 6.95981C3.11769 7.36025 0.625 8.22275 0.625 9.98494C0.625 11.7421 3.1151 12.6805 4.56061 13.0806C4.19786 14.4901 3.74122 16.9943 5.30204 17.8673C6.87331 18.7457 8.95313 17.1216 10.0346 16.1076C11.1131 17.1165 13.1229 18.7513 14.6826 17.8759C16.2473 16.9977 15.8398 14.449 15.4783 13.0391C16.8796 12.6381 19.375 11.7202 19.375 9.98494C19.375 8.23969 16.8689 7.37019 15.4377 6.97106ZM15.2601 12.2919C15.0228 11.5635 14.7025 10.7889 14.3107 9.98881C14.6847 9.20756 14.9926 8.443 15.2233 7.71931C16.2724 8.01425 18.5741 8.68831 18.5741 9.98494C18.5741 11.2937 16.3654 11.9742 15.2601 12.2919ZM14.2812 17.2037C13.1175 17.8569 11.3888 16.2935 10.5924 15.5506C11.1207 14.9902 11.6487 14.3389 12.1641 13.6156C13.0706 13.5376 13.9269 13.4101 14.7035 13.2361C14.9579 14.2334 15.4501 16.5477 14.2812 17.2037ZM5.70226 17.1944C4.53839 16.5437 5.07036 14.3091 5.33723 13.2708C6.10521 13.4356 6.95538 13.5541 7.864 13.6255C8.38269 14.3332 8.926 14.9838 9.4735 15.5536C8.79706 16.188 6.87156 17.8481 5.70226 17.1944ZM1.42593 9.98494C1.42593 8.67125 3.71379 8.00206 4.7869 7.70787C5.02157 8.44781 5.32934 9.2215 5.70077 10.0039C5.32453 10.7979 5.01236 11.5838 4.77553 12.3325C3.75231 12.0485 1.42593 11.2994 1.42593 9.98494ZM5.68981 2.81471C6.85844 2.15885 8.67169 3.75614 9.44744 4.47508C8.90275 5.04221 8.36444 5.68787 7.85019 6.39156C6.96837 6.47081 6.12422 6.59806 5.34818 6.76856C5.05703 5.63794 4.52245 3.46987 5.68981 2.81471ZM12.7371 7.23569C13.3353 7.30887 13.9085 7.40625 14.4467 7.52537C14.2851 8.0275 14.0837 8.55256 13.8466 9.09081C13.5027 8.45831 13.1337 7.8385 12.7371 7.23569ZM10.0089 5.03006C10.3784 5.41811 10.7484 5.85144 11.1124 6.32156C10.3741 6.28769 9.63456 6.28756 8.89625 6.32106C9.26056 5.8553 9.63375 5.42261 10.0089 5.03006ZM6.16031 9.09025C5.92706 8.55387 5.72749 8.0265 5.56451 7.51719C6.09949 7.40112 6.67 7.30625 7.26438 7.23425C6.86663 7.83575 6.49819 8.45531 6.16031 9.09025ZM7.28144 12.7911C6.66744 12.7246 6.08829 12.6346 5.55347 12.5217C5.71903 12.0034 5.92299 11.4647 6.16122 10.9167C6.50375 11.5583 6.87781 12.1839 7.28144 12.7911ZM10.0311 14.9947C9.6515 14.5975 9.27281 14.1582 8.903 13.6857C9.6455 13.7139 10.3894 13.714 11.1319 13.6819C10.7668 14.163 10.3981 14.6029 10.0311 14.9947ZM13.8542 10.8889C14.1048 11.4427 14.3161 11.9786 14.4839 12.4881C13.9402 12.6084 13.3532 12.7052 12.7348 12.7772C13.1344 12.1629 13.5093 11.5335 13.8542 10.8889ZM11.7171 12.8713C10.5813 12.95 9.4385 12.9491 8.30237 12.8777C7.65681 11.9634 7.08212 11.0019 6.58606 10.0036C7.07975 9.00744 7.65025 8.04775 8.29275 7.13487C9.42969 7.05156 10.5736 7.05131 11.7106 7.13537C12.3476 8.04819 12.9172 9.00537 13.4223 9.99256C12.9232 10.9882 12.3497 11.9499 11.7171 12.8713ZM14.2689 2.79162C15.4379 3.44534 14.9176 5.76704 14.6622 6.77662C13.8843 6.60256 13.0396 6.47306 12.1552 6.39256C11.6399 5.68127 11.1061 5.03449 10.5702 4.47468C11.3559 3.74026 13.1113 2.14431 14.2689 2.79162Z" fill="#76DAFF"/>
</svg>
