<svg width="295" height="43" viewBox="0 0 295 43" fill="none" xmlns="http://www.w3.org/2000/svg">
<path opacity="0.7" d="M6.97587 32.308C6.6532 32.308 6.4112 32.2493 6.24987 32.132C6.08853 32.0293 6.04453 31.868 6.11787 31.648L12.4979 12.046C12.2925 12.178 12.0725 12.2807 11.8379 12.354C11.6179 12.4127 11.4125 12.442 11.2219 12.442C10.9725 12.442 10.7525 12.4127 10.5619 12.354C10.3712 12.2807 10.2025 12.2 10.0559 12.112C9.9092 12.024 9.7552 11.9507 9.59387 11.892C9.4472 11.8187 9.2712 11.782 9.06587 11.782C8.80187 11.782 8.55253 11.8333 8.31787 11.936C8.09787 12.0387 7.84853 12.2073 7.56987 12.442C7.2912 12.662 6.92453 12.9627 6.46987 13.344C6.29387 13.4907 6.1032 13.5567 5.89787 13.542C5.69253 13.5127 5.4872 13.388 5.28187 13.168C5.12053 12.992 5.03253 12.8087 5.01787 12.618C5.01787 12.4127 5.0912 12.2367 5.23787 12.09C5.76587 11.5473 6.26453 11.122 6.73387 10.814C7.21787 10.506 7.6652 10.286 8.07587 10.154C8.48653 10.0073 8.8532 9.934 9.17587 9.934C9.54253 9.934 9.8432 9.97067 10.0779 10.044C10.3272 10.1027 10.5399 10.1833 10.7159 10.286C10.9065 10.3887 11.0752 10.4767 11.2219 10.55C11.3832 10.6233 11.5665 10.66 11.7719 10.66C12.0505 10.66 12.3219 10.6013 12.5859 10.484C12.8645 10.352 13.0992 10.1907 13.2899 10C13.4365 9.868 13.5832 9.78 13.7299 9.736C13.8765 9.692 14.0232 9.67 14.1699 9.67C14.5072 9.67 14.7492 9.72133 14.8959 9.824C15.0572 9.92667 15.1012 10.0953 15.0279 10.33L8.09787 31.692C8.0392 31.8973 7.92187 32.0513 7.74587 32.154C7.56987 32.2567 7.3132 32.308 6.97587 32.308ZM19.3179 29.316C19.7139 28.0253 19.9559 26.9033 20.0439 25.95C20.1465 24.9967 20.1099 24.19 19.9339 23.53C19.7579 22.8553 19.4425 22.3127 18.9879 21.902C18.5479 21.4913 17.9759 21.198 17.2719 21.022C16.5825 20.8313 15.7759 20.736 14.8519 20.736C14.4119 20.736 13.9719 20.7727 13.5319 20.846C13.1065 20.9193 12.7179 21.0367 12.3659 21.198C12.0139 21.3593 11.7279 21.5647 11.5079 21.814C11.3025 22.0633 11.1999 22.3567 11.1999 22.694C11.1999 23.046 11.3832 23.3467 11.7499 23.596C12.1165 23.8453 12.6445 24.036 13.3339 24.168C14.0232 24.2853 14.8445 24.344 15.7979 24.344C16.6632 24.344 17.4699 24.2927 18.2179 24.19C18.9805 24.0727 19.7432 23.9187 20.5059 23.728C21.2832 23.5227 22.1265 23.2733 23.0359 22.98C23.9599 22.672 25.0159 22.3273 26.2039 21.946C26.4679 21.858 26.6732 21.8653 26.8199 21.968C26.9812 22.0707 27.0912 22.254 27.1499 22.518C27.2232 22.8113 27.2159 23.0387 27.1279 23.2C27.0545 23.3613 26.8932 23.4787 26.6439 23.552C25.3532 23.948 24.2165 24.3073 23.2339 24.63C22.2659 24.938 21.3712 25.202 20.5499 25.422C19.7285 25.642 18.9145 25.8107 18.1079 25.928C17.3012 26.0453 16.4212 26.104 15.4679 26.104C14.2065 26.104 13.1432 25.9793 12.2779 25.73C11.4125 25.466 10.7525 25.1067 10.2979 24.652C9.85787 24.1827 9.63787 23.618 9.63787 22.958C9.63787 22.1807 9.87987 21.4913 10.3639 20.89C10.8625 20.2887 11.5445 19.8193 12.4099 19.482C13.2752 19.1447 14.2579 18.976 15.3579 18.976C16.2525 18.976 17.0592 19.0713 17.7779 19.262C18.4965 19.4527 19.1199 19.7387 19.6479 20.12C20.1759 20.5013 20.6012 20.978 20.9239 21.55C21.2612 22.122 21.4812 22.782 21.5839 23.53C21.7012 24.278 21.7012 25.1213 21.5839 26.06C21.4812 26.984 21.2465 28.0033 20.8799 29.118L19.3179 29.316ZM19.3839 32.308C19.0612 32.308 18.8192 32.2567 18.6579 32.154C18.5112 32.0513 18.4672 31.8827 18.5259 31.648L25.4119 10.264C25.4852 10.0587 25.6099 9.912 25.7859 9.824C25.9619 9.72133 26.2112 9.67 26.5339 9.67C26.8712 9.67 27.1132 9.72133 27.2599 9.824C27.4212 9.92667 27.4652 10.0953 27.3919 10.33L20.5059 31.692C20.4472 31.8973 20.3299 32.0513 20.1539 32.154C19.9779 32.2567 19.7212 32.308 19.3839 32.308ZM23.2638 32.374C23.0584 32.374 22.9044 32.286 22.8018 32.11C22.6991 31.9487 22.6624 31.7653 22.6918 31.56C22.7064 31.34 22.7944 31.1493 22.9558 30.988C23.1171 30.812 23.3518 30.724 23.6598 30.724C24.1291 30.724 24.7158 30.5993 25.4198 30.35C26.1091 30.086 26.8424 29.734 27.6198 29.294C28.4118 28.854 29.1671 28.3627 29.8858 27.82C30.5458 27.336 31.1398 26.8373 31.6678 26.324C32.1958 25.8107 32.6138 25.3047 32.9218 24.806C33.2444 24.3073 33.4058 23.8453 33.4058 23.42C33.4058 23.0827 33.3324 22.8187 33.1858 22.628C33.0391 22.4373 32.8191 22.342 32.5258 22.342C32.3204 22.342 32.1664 22.254 32.0638 22.078C31.9758 21.902 31.9464 21.6967 31.9758 21.462C32.0051 21.2273 32.1004 21.022 32.2618 20.846C32.4378 20.67 32.6798 20.582 32.9878 20.582C33.4278 20.582 33.8311 20.6773 34.1978 20.868C34.5644 21.044 34.8504 21.308 35.0558 21.66C35.2758 21.9973 35.3858 22.408 35.3858 22.892C35.3858 23.552 35.1731 24.2487 34.7478 24.982C34.3371 25.7007 33.7871 26.4193 33.0978 27.138C32.4084 27.842 31.6384 28.502 30.7878 29.118C29.9371 29.7487 29.0498 30.3133 28.1258 30.812C27.2164 31.296 26.3438 31.6773 25.5078 31.956C24.6571 32.2347 23.9091 32.374 23.2638 32.374ZM31.5432 32.374C30.9125 32.374 30.3625 32.2493 29.8932 32C29.4238 31.7507 29.0352 31.406 28.7272 30.966C28.4045 30.5113 28.1698 29.998 28.0232 29.426C27.8618 28.854 27.7812 28.2527 27.7812 27.622C27.7812 26.7713 27.8985 25.9353 28.1332 25.114C28.3532 24.278 28.6832 23.5227 29.1232 22.848C29.5632 22.1587 30.1132 21.6087 30.7732 21.198C31.4185 20.7873 32.1592 20.582 32.9952 20.582C33.1272 20.582 33.2152 20.67 33.2592 20.846C33.2885 21.022 33.2812 21.2273 33.2372 21.462C33.1785 21.6967 33.0978 21.902 32.9952 22.078C32.8778 22.254 32.7532 22.342 32.6212 22.342C32.2252 22.342 31.8732 22.4593 31.5652 22.694C31.2572 22.9287 30.9858 23.244 30.7512 23.64C30.5165 24.0213 30.3258 24.454 30.1792 24.938C30.0178 25.4073 29.9005 25.884 29.8272 26.368C29.7392 26.852 29.6952 27.2993 29.6952 27.71C29.6952 28.1353 29.7465 28.524 29.8492 28.876C29.9518 29.228 30.1132 29.536 30.3332 29.8C30.5385 30.064 30.7952 30.2693 31.1032 30.416C31.4112 30.548 31.7705 30.614 32.1812 30.614C32.9292 30.614 33.6992 30.46 34.4912 30.152C35.2685 29.844 36.0532 29.4187 36.8452 28.876C37.6372 28.3333 38.4218 27.7027 39.1992 26.984C39.9765 26.2507 40.7245 25.466 41.4432 24.63C42.1618 23.7793 42.8365 22.8993 43.4672 21.99C44.1125 21.0807 44.6992 20.1787 45.2272 19.284C45.7552 18.3893 46.2098 17.524 46.5912 16.688C46.9725 15.852 47.2658 15.082 47.4712 14.378C47.6912 13.6593 47.8012 13.0433 47.8012 12.53C47.8012 12.3687 47.8892 12.244 48.0652 12.156C48.2558 12.068 48.4758 12.024 48.7252 12.024C48.9745 12.024 49.1872 12.068 49.3632 12.156C49.5538 12.244 49.6492 12.3687 49.6492 12.53C49.6492 13.0433 49.5392 13.674 49.3192 14.422C49.0992 15.1553 48.7838 15.9767 48.3732 16.886C47.9625 17.7953 47.4712 18.7413 46.8992 19.724C46.3272 20.7067 45.6818 21.704 44.9632 22.716C44.2592 23.7133 43.4965 24.6813 42.6752 25.62C41.8538 26.5587 40.9958 27.4387 40.1012 28.26C39.2065 29.0813 38.2825 29.8 37.3292 30.416C36.3905 31.032 35.4372 31.516 34.4692 31.868C33.4865 32.2053 32.5112 32.374 31.5432 32.374ZM41.4652 32.374C40.6438 32.374 39.9912 32.1247 39.5072 31.626C39.0378 31.1127 38.7738 30.4013 38.7152 29.492C38.6565 28.568 38.8252 27.49 39.2212 26.258L43.0932 14.488C43.6358 12.772 44.2372 11.5253 44.8972 10.748C45.5718 9.97067 46.3785 9.582 47.3172 9.582C47.7865 9.582 48.1898 9.70667 48.5272 9.956C48.8792 10.2053 49.1505 10.55 49.3412 10.99C49.5465 11.43 49.6492 11.9507 49.6492 12.552C49.6492 12.8307 49.5538 13.036 49.3632 13.168C49.1872 13.3 48.9745 13.366 48.7252 13.366C48.4758 13.366 48.2558 13.3 48.0652 13.168C47.8892 13.036 47.8012 12.8307 47.8012 12.552C47.8012 12.3027 47.7792 12.09 47.7352 11.914C47.6912 11.738 47.6178 11.5987 47.5152 11.496C47.4125 11.3933 47.2585 11.342 47.0532 11.342C46.8185 11.342 46.5912 11.4447 46.3712 11.65C46.1658 11.8407 45.9458 12.2 45.7112 12.728C45.4765 13.2413 45.1905 13.9747 44.8532 14.928L41.0252 26.632C40.7318 27.5267 40.5705 28.282 40.5412 28.898C40.5265 29.514 40.6365 29.976 40.8712 30.284C41.1058 30.5773 41.4432 30.724 41.8832 30.724C42.0885 30.724 42.2425 30.812 42.3452 30.988C42.4478 31.1493 42.4845 31.34 42.4552 31.56C42.4258 31.7653 42.3305 31.9487 42.1692 32.11C42.0078 32.286 41.7732 32.374 41.4652 32.374ZM41.4774 32.374C41.1987 32.374 41.0154 32.286 40.9274 32.11C40.8394 31.9487 40.8247 31.7653 40.8834 31.56C40.9274 31.34 41.0447 31.1493 41.2354 30.988C41.4114 30.812 41.6387 30.724 41.9174 30.724C42.328 30.724 42.8487 30.548 43.4794 30.196C44.11 29.844 44.8067 29.36 45.5694 28.744C46.332 28.1133 47.124 27.3873 47.9454 26.566C48.7814 25.7447 49.6027 24.8573 50.4094 23.904C51.2307 22.936 52.0007 21.946 52.7194 20.934C53.4527 19.922 54.098 18.9173 54.6554 17.92C55.2127 16.9227 55.6527 15.9693 55.9754 15.06C56.298 14.136 56.4594 13.3 56.4594 12.552C56.4594 12.2733 56.5474 12.068 56.7234 11.936C56.914 11.7893 57.134 11.716 57.3834 11.716C57.6327 11.716 57.8454 11.7893 58.0214 11.936C58.212 12.068 58.3074 12.2733 58.3074 12.552C58.3074 13.256 58.1607 14.0407 57.8674 14.906C57.5887 15.7567 57.1927 16.6587 56.6794 17.612C56.1807 18.5653 55.594 19.5333 54.9194 20.516C54.2447 21.484 53.5114 22.452 52.7194 23.42C51.942 24.388 51.1354 25.312 50.2994 26.192C49.4634 27.072 48.6274 27.8933 47.7914 28.656C46.9554 29.404 46.1487 30.0567 45.3714 30.614C44.594 31.1713 43.8754 31.604 43.2154 31.912C42.5554 32.22 41.976 32.374 41.4774 32.374ZM50.1234 32.374C49.302 32.374 48.6494 32.1247 48.1654 31.626C47.696 31.1127 47.432 30.4013 47.3734 29.492C47.3147 28.568 47.4834 27.49 47.8794 26.258L51.7514 14.488C52.294 12.772 52.8954 11.5253 53.5554 10.748C54.23 9.97067 55.0367 9.582 55.9754 9.582C56.4447 9.582 56.848 9.70667 57.1854 9.956C57.5374 10.2053 57.8087 10.55 57.9994 10.99C58.2047 11.43 58.3074 11.9507 58.3074 12.552C58.3074 12.8307 58.212 13.036 58.0214 13.168C57.8454 13.3 57.6327 13.366 57.3834 13.366C57.134 13.366 56.914 13.3 56.7234 13.168C56.5474 13.036 56.4594 12.8307 56.4594 12.552C56.4594 12.3027 56.4374 12.09 56.3934 11.914C56.3494 11.738 56.276 11.5987 56.1734 11.496C56.0707 11.3933 55.9167 11.342 55.7114 11.342C55.4767 11.342 55.2494 11.4447 55.0294 11.65C54.824 11.8407 54.604 12.2 54.3694 12.728C54.1347 13.2413 53.8487 13.9747 53.5114 14.928L49.6834 26.632C49.39 27.5267 49.2287 28.282 49.1994 28.898C49.1847 29.514 49.2947 29.976 49.5294 30.284C49.764 30.5773 50.1014 30.724 50.5414 30.724C50.7467 30.724 50.9007 30.812 51.0034 30.988C51.106 31.1493 51.1427 31.34 51.1134 31.56C51.084 31.7653 50.9887 31.9487 50.8274 32.11C50.666 32.286 50.4314 32.374 50.1234 32.374ZM50.1356 32.374C49.9302 32.374 49.7762 32.286 49.6736 32.11C49.5709 31.9487 49.5342 31.7653 49.5636 31.56C49.5782 31.34 49.6662 31.1493 49.8276 30.988C49.9889 30.812 50.2236 30.724 50.5316 30.724C50.9129 30.724 51.3162 30.5847 51.7416 30.306C52.1669 30.0273 52.6069 29.6387 53.0616 29.14C53.5016 28.6413 53.9562 28.0547 54.4256 27.38C54.8949 26.7053 55.3716 25.972 55.8556 25.18C55.9729 24.9893 56.1342 24.9087 56.3396 24.938C56.5449 24.9673 56.7136 25.0627 56.8456 25.224C56.9776 25.3707 56.9849 25.5393 56.8676 25.73C56.2369 26.83 55.6356 27.798 55.0636 28.634C54.5062 29.47 53.9636 30.1667 53.4356 30.724C52.8929 31.2667 52.3576 31.6773 51.8296 31.956C51.2869 32.2347 50.7222 32.374 50.1356 32.374ZM59.3976 32.418C58.4882 32.418 57.7182 32.2347 57.0876 31.868C56.4569 31.5013 55.9802 30.9953 55.6576 30.35C55.3496 29.69 55.1956 28.9493 55.1956 28.128C55.1956 27.3507 55.3349 26.5293 55.6136 25.664C55.8922 24.784 56.3029 23.9627 56.8456 23.2C57.4029 22.4227 58.0922 21.792 58.9136 21.308C59.7496 20.824 60.7176 20.582 61.8176 20.582C62.7269 20.582 63.4896 20.758 64.1056 21.11C64.7362 21.4473 65.2056 21.9313 65.5136 22.562C65.8362 23.178 65.9976 23.8967 65.9976 24.718C65.9976 25.3047 65.9096 25.95 65.7336 26.654C65.5722 27.3433 65.3156 28.0327 64.9636 28.722C64.6262 29.3967 64.1936 30.0127 63.6656 30.57C63.1376 31.1273 62.5142 31.5747 61.7956 31.912C61.0916 32.2493 60.2922 32.418 59.3976 32.418ZM59.6176 30.658C60.3362 30.658 60.9669 30.4673 61.5096 30.086C62.0522 29.7047 62.5069 29.2207 62.8736 28.634C63.2402 28.0327 63.5189 27.4093 63.7096 26.764C63.9002 26.104 63.9956 25.4953 63.9956 24.938C63.9956 24.366 63.9002 23.8893 63.7096 23.508C63.5189 23.1267 63.2476 22.8407 62.8956 22.65C62.5436 22.4447 62.1256 22.342 61.6416 22.342C60.9082 22.342 60.2629 22.5327 59.7056 22.914C59.1482 23.2807 58.6789 23.7573 58.2976 24.344C57.9309 24.9307 57.6522 25.5467 57.4616 26.192C57.2709 26.8373 57.1756 27.4313 57.1756 27.974C57.1756 28.546 57.2709 29.0373 57.4616 29.448C57.6669 29.844 57.9529 30.1447 58.3196 30.35C58.6862 30.5553 59.1189 30.658 59.6176 30.658ZM78.3702 32.374C77.6808 32.374 77.1162 32.22 76.6762 31.912C76.2508 31.5893 75.9428 31.1713 75.7522 30.658C75.5615 30.13 75.4808 29.5433 75.5102 28.898C75.5395 28.2527 75.6642 27.6 75.8842 26.94L77.2702 22.76H75.5982C75.4368 22.76 75.3268 22.6867 75.2682 22.54C75.2095 22.3933 75.2168 22.1733 75.2902 21.88C75.3782 21.5867 75.4955 21.3667 75.6422 21.22C75.7888 21.0733 75.9428 21 76.1042 21H77.8642L79.2942 16.644C79.3822 16.3507 79.4922 16.16 79.6242 16.072C79.7708 15.984 79.9908 15.94 80.2842 15.94C80.7535 15.94 81.0468 16.0133 81.1642 16.16C81.2815 16.292 81.2888 16.5047 81.1862 16.798L79.7782 21H82.5502C82.7115 21 82.8215 21.0733 82.8802 21.22C82.9535 21.352 82.9462 21.572 82.8582 21.88C82.7848 22.1587 82.6748 22.3787 82.5282 22.54C82.3815 22.6867 82.2275 22.76 82.0662 22.76H79.2062L77.7542 27.138C77.5488 27.754 77.4315 28.2893 77.4022 28.744C77.3875 29.1987 77.4315 29.5727 77.5342 29.866C77.6515 30.1593 77.8202 30.3793 78.0402 30.526C78.2602 30.658 78.5095 30.724 78.7882 30.724C78.9935 30.724 79.1475 30.812 79.2502 30.988C79.3528 31.1493 79.3895 31.34 79.3602 31.56C79.3308 31.7653 79.2355 31.9487 79.0742 32.11C78.9128 32.286 78.6782 32.374 78.3702 32.374ZM78.452 32.374C78.1733 32.374 77.99 32.286 77.902 32.11C77.7993 31.9487 77.7773 31.7653 77.836 31.56C77.88 31.34 77.99 31.1493 78.166 30.988C78.342 30.812 78.5693 30.724 78.848 30.724C79.112 30.724 79.442 30.5847 79.838 30.306C80.2193 30.0127 80.696 29.5507 81.268 28.92C81.84 28.2747 82.5293 27.4313 83.336 26.39C84.1426 25.3487 85.096 24.0727 86.196 22.562C86.372 22.3273 86.5553 22.232 86.746 22.276C86.9513 22.32 87.0906 22.4447 87.164 22.65C87.252 22.8553 87.208 23.0827 87.032 23.332C85.8293 25.092 84.7806 26.5587 83.886 27.732C83.006 28.8907 82.2433 29.8147 81.598 30.504C80.938 31.1787 80.3586 31.6627 79.86 31.956C79.3613 32.2347 78.892 32.374 78.452 32.374ZM93.3455 32.374C92.7001 32.374 92.2161 32.2493 91.8935 32C91.5855 31.7653 91.3948 31.4647 91.3215 31.098C91.2481 30.7167 91.2481 30.3207 91.3215 29.91C91.3948 29.4847 91.4901 29.096 91.6075 28.744L93.1035 24.432C93.2355 24.0507 93.3161 23.706 93.3455 23.398C93.3895 23.0753 93.3381 22.8187 93.1915 22.628C93.0595 22.4373 92.7881 22.342 92.3775 22.342C91.8788 22.342 91.3215 22.562 90.7055 23.002C90.1041 23.442 89.4808 24.058 88.8355 24.85C88.1901 25.642 87.5521 26.5807 86.9215 27.666C86.3055 28.7367 85.7335 29.9173 85.2055 31.208L85.0955 29.228C85.6528 27.864 86.2468 26.654 86.8775 25.598C87.5081 24.5273 88.1681 23.618 88.8575 22.87C89.5468 22.122 90.2435 21.5573 90.9475 21.176C91.6661 20.78 92.3848 20.582 93.1035 20.582C93.7781 20.582 94.2988 20.7507 94.6655 21.088C95.0468 21.4107 95.2521 21.8947 95.2815 22.54C95.3255 23.1853 95.1861 23.9847 94.8635 24.938L93.5655 28.722C93.3015 29.4847 93.1768 30.0127 93.1915 30.306C93.2208 30.5847 93.4115 30.724 93.7635 30.724C93.9688 30.724 94.1155 30.812 94.2035 30.988C94.3061 31.1493 94.3428 31.34 94.3135 31.56C94.2988 31.7653 94.2108 31.9487 94.0495 32.11C93.8881 32.286 93.6535 32.374 93.3455 32.374ZM83.9955 32.33C83.7608 32.33 83.5408 32.2787 83.3355 32.176C83.1301 32.0733 83.0715 31.8827 83.1595 31.604L88.7475 14.488C89.2901 12.772 89.8915 11.5253 90.5515 10.748C91.2261 9.97067 92.0328 9.582 92.9715 9.582C93.4555 9.582 93.8661 9.692 94.2035 9.912C94.5555 10.132 94.8268 10.44 95.0175 10.836C95.2228 11.2173 95.3255 11.6573 95.3255 12.156C95.3255 12.552 95.2668 12.9773 95.1495 13.432C95.0321 13.872 94.8635 14.3413 94.6435 14.84C94.4381 15.324 94.1741 15.8373 93.8515 16.38C93.5435 16.908 93.1768 17.4507 92.7515 18.008C92.3408 18.5507 91.8861 19.108 91.3875 19.68C90.8888 20.2373 90.3388 20.8093 89.7375 21.396C89.1508 21.968 88.5201 22.5473 87.8455 23.134L85.0295 31.758C84.9708 31.9487 84.8681 32.088 84.7215 32.176C84.5748 32.2787 84.3328 32.33 83.9955 32.33ZM88.6595 20.648C89.1288 20.164 89.5688 19.6727 89.9795 19.174C90.4048 18.6753 90.7935 18.1767 91.1455 17.678C91.5121 17.1793 91.8421 16.6953 92.1355 16.226C92.4288 15.742 92.6708 15.2727 92.8615 14.818C93.0668 14.3633 93.2208 13.9307 93.3235 13.52C93.4408 13.0947 93.4995 12.6987 93.4995 12.332C93.4995 12.1267 93.4701 11.9507 93.4115 11.804C93.3528 11.6573 93.2648 11.5473 93.1475 11.474C93.0301 11.386 92.8835 11.342 92.7075 11.342C92.4728 11.342 92.2455 11.4447 92.0255 11.65C91.8055 11.8407 91.5781 12.2 91.3435 12.728C91.1088 13.256 90.8301 14.0113 90.5075 14.994L88.6595 20.648ZM93.3406 32.374C93.062 32.374 92.8786 32.286 92.7906 32.11C92.688 31.9487 92.666 31.7653 92.7246 31.56C92.7686 31.34 92.8786 31.1493 93.0546 30.988C93.2306 30.812 93.458 30.724 93.7366 30.724C94.338 30.724 95.0566 30.5553 95.8926 30.218C96.714 29.8807 97.638 29.3747 98.6646 28.7C98.8406 28.5827 99.002 28.5607 99.1486 28.634C99.2953 28.7073 99.4053 28.832 99.4786 29.008C99.5666 29.184 99.596 29.3673 99.5666 29.558C99.5373 29.7487 99.442 29.9027 99.2806 30.02C98.4153 30.592 97.616 31.054 96.8826 31.406C96.1346 31.7433 95.4673 31.9853 94.8806 32.132C94.2793 32.2933 93.766 32.374 93.3406 32.374ZM98.6646 28.854C98.9286 28.6927 99.1853 28.524 99.4346 28.348C99.684 28.172 99.9333 27.996 100.183 27.82C100.843 27.336 101.437 26.8373 101.965 26.324C102.493 25.8107 102.911 25.3047 103.219 24.806C103.541 24.3073 103.703 23.8453 103.703 23.42C103.703 23.0827 103.629 22.8187 103.483 22.628C103.336 22.4373 103.116 22.342 102.823 22.342C102.617 22.342 102.463 22.254 102.361 22.078C102.273 21.902 102.243 21.6967 102.273 21.462C102.302 21.2273 102.397 21.022 102.559 20.846C102.735 20.67 102.977 20.582 103.285 20.582C103.725 20.582 104.128 20.6773 104.495 20.868C104.861 21.044 105.147 21.308 105.353 21.66C105.573 21.9973 105.683 22.408 105.683 22.892C105.683 23.552 105.47 24.2487 105.045 24.982C104.634 25.7007 104.084 26.4193 103.395 27.138C102.705 27.842 101.935 28.502 101.085 29.118C100.806 29.3087 100.52 29.5067 100.227 29.712C99.9333 29.9027 99.64 30.086 99.3466 30.262L98.6646 28.854ZM102.148 32.374C101.62 32.374 101.143 32.2933 100.718 32.132C100.278 31.9707 99.8967 31.7433 99.574 31.45C99.2514 31.1567 98.98 30.812 98.76 30.416C98.5254 30.02 98.3567 29.5873 98.254 29.118C98.1367 28.6487 98.078 28.15 98.078 27.622C98.078 27.0647 98.144 26.4707 98.276 25.84C98.3934 25.1947 98.584 24.564 98.848 23.948C99.0974 23.332 99.4274 22.7747 99.838 22.276C100.249 21.7627 100.74 21.352 101.312 21.044C101.884 20.736 102.544 20.582 103.292 20.582C103.497 20.582 103.651 20.67 103.754 20.846C103.842 21.022 103.871 21.2273 103.842 21.462C103.798 21.6967 103.695 21.902 103.534 22.078C103.358 22.254 103.116 22.342 102.808 22.342C102.353 22.342 101.95 22.5253 101.598 22.892C101.246 23.2587 100.96 23.7207 100.74 24.278C100.505 24.8353 100.329 25.4147 100.212 26.016C100.095 26.6027 100.036 27.1307 100.036 27.6C100.036 28.0107 100.087 28.3993 100.19 28.766C100.278 29.1327 100.425 29.4627 100.63 29.756C100.821 30.0347 101.077 30.262 101.4 30.438C101.723 30.5993 102.111 30.68 102.566 30.68C103.314 30.68 104.128 30.394 105.008 29.822C105.873 29.2353 106.805 28.2893 107.802 26.984C108.799 25.6787 109.848 23.9553 110.948 21.814C110.992 21.726 111.095 21.6967 111.256 21.726C111.417 21.7553 111.586 21.8287 111.762 21.946C111.938 22.0487 112.077 22.1807 112.18 22.342C112.297 22.4887 112.319 22.628 112.246 22.76C111.014 25.18 109.826 27.094 108.682 28.502C107.538 29.8953 106.423 30.8927 105.338 31.494C104.253 32.0807 103.189 32.374 102.148 32.374ZM115.59 32.374C114.945 32.374 114.468 32.2567 114.16 32.022C113.852 31.7873 113.654 31.4867 113.566 31.12C113.478 30.7533 113.463 30.3793 113.522 29.998C113.595 29.602 113.683 29.2573 113.786 28.964C113.845 28.788 113.955 28.502 114.116 28.106C114.277 27.71 114.461 27.2627 114.666 26.764C114.871 26.2507 115.069 25.73 115.26 25.202C115.465 24.674 115.634 24.19 115.766 23.75C115.883 23.31 115.905 23.0093 115.832 22.848C115.773 22.672 115.59 22.584 115.282 22.584C114.945 22.584 114.585 22.6573 114.204 22.804C113.823 22.936 113.427 23.0753 113.016 23.222C112.605 23.354 112.173 23.42 111.718 23.42C111.454 23.42 111.227 23.31 111.036 23.09C110.845 22.87 110.691 22.5913 110.574 22.254C110.471 21.902 110.42 21.5353 110.42 21.154C110.42 20.846 110.471 20.56 110.574 20.296C110.677 20.0173 110.838 19.79 111.058 19.614C111.293 19.438 111.586 19.35 111.938 19.35C112.231 19.35 112.466 19.4453 112.642 19.636C112.818 19.8267 112.906 20.0687 112.906 20.362C112.906 20.5527 112.877 20.7653 112.818 21C112.774 21.22 112.671 21.4473 112.51 21.682C112.642 21.682 112.833 21.638 113.082 21.55C113.346 21.4473 113.647 21.33 113.984 21.198C114.336 21.066 114.703 20.956 115.084 20.868C115.48 20.7653 115.869 20.714 116.25 20.714C116.705 20.714 117.064 20.824 117.328 21.044C117.607 21.264 117.775 21.6013 117.834 22.056C117.893 22.496 117.827 23.0753 117.636 23.794C117.533 24.2047 117.379 24.6813 117.174 25.224C116.983 25.752 116.778 26.2873 116.558 26.83C116.353 27.358 116.162 27.842 115.986 28.282C115.825 28.7073 115.715 29.0227 115.656 29.228C115.524 29.668 115.465 30.0273 115.48 30.306C115.495 30.5847 115.671 30.724 116.008 30.724C116.213 30.724 116.36 30.812 116.448 30.988C116.551 31.1493 116.587 31.34 116.558 31.56C116.543 31.7653 116.455 31.9487 116.294 32.11C116.133 32.286 115.898 32.374 115.59 32.374ZM115.598 32.374C115.32 32.374 115.136 32.286 115.048 32.11C114.946 31.9487 114.924 31.7653 114.982 31.56C115.026 31.34 115.136 31.1493 115.312 30.988C115.488 30.812 115.716 30.724 115.994 30.724C116.596 30.724 117.314 30.5553 118.15 30.218C118.972 29.8807 119.896 29.3747 120.922 28.7C121.098 28.5827 121.26 28.5607 121.406 28.634C121.553 28.7073 121.663 28.832 121.736 29.008C121.824 29.184 121.854 29.3673 121.824 29.558C121.795 29.7487 121.7 29.9027 121.538 30.02C120.673 30.592 119.874 31.054 119.14 31.406C118.392 31.7433 117.725 31.9853 117.138 32.132C116.537 32.2933 116.024 32.374 115.598 32.374ZM120.966 28.832C121.215 28.6707 121.465 28.5093 121.714 28.348C121.963 28.172 122.213 27.996 122.462 27.82C123.122 27.336 123.716 26.8373 124.244 26.324C124.772 25.8107 125.19 25.3047 125.498 24.806C125.821 24.3073 125.982 23.8453 125.982 23.42C125.982 23.0827 125.909 22.8187 125.762 22.628C125.615 22.4373 125.395 22.342 125.102 22.342C124.647 22.342 124.244 22.5253 123.892 22.892C123.54 23.244 123.239 23.6913 122.99 24.234C122.755 24.7767 122.579 25.3487 122.462 25.95C122.345 26.5513 122.286 27.094 122.286 27.578C122.286 27.9887 122.337 28.3773 122.44 28.744C122.543 29.1107 122.697 29.4333 122.902 29.712C123.107 29.9907 123.364 30.2107 123.672 30.372C123.995 30.5333 124.369 30.614 124.794 30.614C125.249 30.614 125.689 30.5187 126.114 30.328C126.554 30.1227 126.972 29.8587 127.368 29.536C127.779 29.1987 128.16 28.8393 128.512 28.458C128.688 28.2527 128.893 28.1793 129.128 28.238C129.363 28.2967 129.553 28.4067 129.7 28.568C129.847 28.7293 129.927 28.898 129.942 29.074C129.971 29.25 129.898 29.448 129.722 29.668C129.165 30.372 128.585 30.922 127.984 31.318C127.397 31.6993 126.796 31.9707 126.18 32.132C125.579 32.2933 124.977 32.374 124.376 32.374C123.833 32.374 123.349 32.286 122.924 32.11C122.499 31.9487 122.125 31.7213 121.802 31.428C121.479 31.1347 121.208 30.79 120.988 30.394C120.783 29.9833 120.621 29.5433 120.504 29.074C120.401 28.6047 120.35 28.1207 120.35 27.622C120.35 27.0793 120.409 26.4927 120.526 25.862C120.643 25.2313 120.827 24.608 121.076 23.992C121.34 23.3613 121.677 22.7893 122.088 22.276C122.499 21.7627 122.99 21.352 123.562 21.044C124.134 20.736 124.801 20.582 125.564 20.582C126.004 20.582 126.407 20.6773 126.774 20.868C127.141 21.044 127.427 21.308 127.632 21.66C127.852 21.9973 127.962 22.408 127.962 22.892C127.962 23.552 127.749 24.2487 127.324 24.982C126.913 25.7007 126.363 26.4193 125.674 27.138C124.985 27.842 124.215 28.502 123.364 29.118C123.085 29.3087 122.799 29.5067 122.506 29.712C122.213 29.9173 121.912 30.108 121.604 30.284L120.966 28.832ZM128.651 36.422C128.505 36.422 128.351 36.3487 128.189 36.202C128.013 36.0553 127.925 35.9087 127.925 35.762C127.925 35.6887 127.94 35.6153 127.969 35.542C127.984 35.4687 128.021 35.3953 128.079 35.322C128.519 34.75 128.871 34.2293 129.135 33.76C129.414 33.2907 129.619 32.8287 129.751 32.374C129.883 31.9193 129.957 31.4573 129.971 30.988C130.001 30.7093 130.111 30.482 130.301 30.306C130.492 30.1153 130.771 30.02 131.137 30.02C131.489 30.02 131.746 30.108 131.907 30.284C132.083 30.4453 132.171 30.6507 132.171 30.9C132.171 31.4573 132.039 32.066 131.775 32.726C131.526 33.386 131.181 34.0167 130.741 34.618C130.316 35.2193 129.832 35.7253 129.289 36.136C129.172 36.2387 129.062 36.312 128.959 36.356C128.842 36.4 128.739 36.422 128.651 36.422ZM146.214 32.418C145.554 32.418 145.04 32.2787 144.674 32C144.307 31.7213 144.058 31.34 143.926 30.856C143.808 30.372 143.786 29.8293 143.86 29.228C143.933 28.6267 144.072 28.0107 144.278 27.38L146.258 21.352C146.331 21.132 146.426 20.9633 146.544 20.846C146.676 20.714 146.925 20.648 147.292 20.648C147.761 20.648 148.047 20.7213 148.15 20.868C148.252 21 148.26 21.2053 148.172 21.484L146.082 27.864C145.92 28.3627 145.803 28.8247 145.73 29.25C145.671 29.6753 145.708 30.02 145.84 30.284C145.986 30.5333 146.287 30.658 146.742 30.658C147.152 30.658 147.57 30.5113 147.996 30.218C148.421 29.9247 148.832 29.536 149.228 29.052C149.624 28.5533 149.998 28.0033 150.35 27.402C150.702 26.8007 151.01 26.192 151.274 25.576L152.638 21.352C152.711 21.132 152.806 20.9633 152.924 20.846C153.056 20.714 153.29 20.648 153.628 20.648C154.112 20.648 154.398 20.7213 154.486 20.868C154.574 21 154.574 21.2053 154.486 21.484L152.616 27.578C152.557 27.798 152.491 28.084 152.418 28.436C152.344 28.7733 152.308 29.118 152.308 29.47C152.322 29.8073 152.41 30.0933 152.572 30.328C152.748 30.548 153.041 30.658 153.452 30.658C153.936 30.658 154.412 30.504 154.882 30.196C155.351 29.8733 155.791 29.4553 156.202 28.942C156.627 28.414 157.001 27.8347 157.324 27.204C157.646 26.5587 157.896 25.906 158.072 25.246C158.116 25.0847 158.182 24.7987 158.27 24.388C158.358 23.9773 158.402 23.596 158.402 23.244C158.123 23.024 157.925 22.804 157.808 22.584C157.69 22.364 157.632 22.1 157.632 21.792C157.632 21.4547 157.727 21.1687 157.918 20.934C158.108 20.6993 158.416 20.582 158.842 20.582C159.34 20.582 159.692 20.802 159.898 21.242C160.103 21.682 160.206 22.2247 160.206 22.87C160.206 23.1487 160.191 23.4347 160.162 23.728C160.132 24.0213 160.088 24.322 160.03 24.63C159.971 24.938 159.898 25.246 159.81 25.554C159.575 26.4047 159.238 27.2407 158.798 28.062C158.358 28.8687 157.837 29.602 157.236 30.262C156.649 30.922 155.989 31.45 155.256 31.846C154.537 32.2273 153.767 32.418 152.946 32.418C152.271 32.418 151.743 32.286 151.362 32.022C150.98 31.758 150.709 31.4133 150.548 30.988C150.401 30.548 150.328 30.0787 150.328 29.58C149.961 30.152 149.565 30.6507 149.14 31.076C148.714 31.5013 148.26 31.8313 147.776 32.066C147.292 32.3007 146.771 32.418 146.214 32.418ZM164.155 27.622C163.29 27.622 162.52 27.4093 161.845 26.984C161.17 26.5587 160.576 25.928 160.063 25.092C159.55 24.256 159.095 23.2367 158.699 22.034C158.611 21.7553 158.662 21.5353 158.853 21.374C159.029 21.2127 159.242 21.1467 159.491 21.176C159.726 21.2053 159.894 21.374 159.997 21.682C160.29 22.5327 160.62 23.288 160.987 23.948C161.354 24.608 161.794 25.1287 162.307 25.51C162.82 25.8767 163.436 26.06 164.155 26.06C164.287 26.06 164.39 26.1407 164.463 26.302C164.536 26.4487 164.573 26.632 164.573 26.852C164.573 27.0573 164.536 27.2407 164.463 27.402C164.39 27.5487 164.287 27.622 164.155 27.622ZM163.318 26.148C163.758 26.2067 164.279 26.1773 164.88 26.06C165.496 25.9427 166.097 25.752 166.684 25.488C167.271 25.224 167.755 24.894 168.136 24.498C168.532 24.102 168.73 23.662 168.73 23.178C168.73 22.8993 168.649 22.694 168.488 22.562C168.327 22.4153 168.092 22.342 167.784 22.342C167.579 22.342 167.432 22.254 167.344 22.078C167.256 21.902 167.227 21.6967 167.256 21.462C167.285 21.2273 167.381 21.022 167.542 20.846C167.718 20.67 167.96 20.582 168.268 20.582C168.576 20.582 168.877 20.6333 169.17 20.736C169.463 20.8387 169.72 20.9853 169.94 21.176C170.175 21.3667 170.358 21.594 170.49 21.858C170.622 22.122 170.688 22.4153 170.688 22.738C170.688 23.442 170.49 24.102 170.094 24.718C169.698 25.3193 169.155 25.8547 168.466 26.324C167.777 26.7787 166.985 27.1233 166.09 27.358C165.21 27.5927 164.286 27.6807 163.318 27.622V26.148ZM166.873 32.374C166.243 32.374 165.693 32.2493 165.223 32C164.754 31.7507 164.365 31.406 164.057 30.966C163.735 30.5113 163.5 29.998 163.353 29.426C163.192 28.854 163.111 28.2527 163.111 27.622C163.111 26.7713 163.229 25.9353 163.463 25.114C163.683 24.278 164.013 23.5227 164.453 22.848C164.893 22.1587 165.443 21.6087 166.103 21.198C166.749 20.7873 167.489 20.582 168.325 20.582C168.457 20.582 168.545 20.67 168.589 20.846C168.619 21.022 168.611 21.2273 168.567 21.462C168.509 21.6967 168.428 21.902 168.325 22.078C168.208 22.254 168.083 22.342 167.951 22.342C167.555 22.342 167.203 22.4593 166.895 22.694C166.587 22.9287 166.316 23.244 166.081 23.64C165.847 24.0213 165.656 24.454 165.509 24.938C165.348 25.4073 165.231 25.884 165.157 26.368C165.069 26.852 165.025 27.2993 165.025 27.71C165.025 28.1353 165.077 28.524 165.179 28.876C165.282 29.228 165.443 29.536 165.663 29.8C165.869 30.064 166.125 30.2693 166.433 30.416C166.741 30.548 167.101 30.614 167.511 30.614C168.259 30.614 169.029 30.46 169.821 30.152C170.599 29.844 171.383 29.4187 172.175 28.876C172.967 28.3333 173.752 27.7027 174.529 26.984C175.307 26.2507 176.055 25.466 176.773 24.63C177.492 23.7793 178.167 22.8993 178.797 21.99C179.443 21.0807 180.029 20.1787 180.557 19.284C181.085 18.3893 181.54 17.524 181.921 16.688C182.303 15.852 182.596 15.082 182.801 14.378C183.021 13.6593 183.131 13.0433 183.131 12.53C183.131 12.3687 183.219 12.244 183.395 12.156C183.586 12.068 183.806 12.024 184.055 12.024C184.305 12.024 184.517 12.068 184.693 12.156C184.884 12.244 184.979 12.3687 184.979 12.53C184.979 13.0433 184.869 13.674 184.649 14.422C184.429 15.1553 184.114 15.9767 183.703 16.886C183.293 17.7953 182.801 18.7413 182.229 19.724C181.657 20.7067 181.012 21.704 180.293 22.716C179.589 23.7133 178.827 24.6813 178.005 25.62C177.184 26.5587 176.326 27.4387 175.431 28.26C174.537 29.0813 173.613 29.8 172.659 30.416C171.721 31.032 170.767 31.516 169.799 31.868C168.817 32.2053 167.841 32.374 166.873 32.374ZM176.795 32.374C175.974 32.374 175.321 32.1247 174.837 31.626C174.368 31.1127 174.104 30.4013 174.045 29.492C173.987 28.568 174.155 27.49 174.551 26.258L178.423 14.488C178.966 12.772 179.567 11.5253 180.227 10.748C180.902 9.97067 181.709 9.582 182.647 9.582C183.117 9.582 183.52 9.70667 183.857 9.956C184.209 10.2053 184.481 10.55 184.671 10.99C184.877 11.43 184.979 11.9507 184.979 12.552C184.979 12.8307 184.884 13.036 184.693 13.168C184.517 13.3 184.305 13.366 184.055 13.366C183.806 13.366 183.586 13.3 183.395 13.168C183.219 13.036 183.131 12.8307 183.131 12.552C183.131 12.3027 183.109 12.09 183.065 11.914C183.021 11.738 182.948 11.5987 182.845 11.496C182.743 11.3933 182.589 11.342 182.383 11.342C182.149 11.342 181.921 11.4447 181.701 11.65C181.496 11.8407 181.276 12.2 181.041 12.728C180.807 13.2413 180.521 13.9747 180.183 14.928L176.355 26.632C176.062 27.5267 175.901 28.282 175.871 28.898C175.857 29.514 175.967 29.976 176.201 30.284C176.436 30.5773 176.773 30.724 177.213 30.724C177.419 30.724 177.573 30.812 177.675 30.988C177.778 31.1493 177.815 31.34 177.785 31.56C177.756 31.7653 177.661 31.9487 177.499 32.11C177.338 32.286 177.103 32.374 176.795 32.374ZM176.807 32.374C176.602 32.374 176.448 32.286 176.345 32.11C176.243 31.9487 176.206 31.7653 176.235 31.56C176.25 31.34 176.338 31.1493 176.499 30.988C176.661 30.812 176.895 30.724 177.203 30.724C177.585 30.724 177.988 30.5847 178.413 30.306C178.839 30.0273 179.279 29.6387 179.733 29.14C180.173 28.6413 180.628 28.0547 181.097 27.38C181.567 26.7053 182.043 25.972 182.527 25.18C182.645 24.9893 182.806 24.9087 183.011 24.938C183.217 24.9673 183.385 25.0627 183.517 25.224C183.649 25.3707 183.657 25.5393 183.539 25.73C182.909 26.83 182.307 27.798 181.735 28.634C181.178 29.47 180.635 30.1667 180.107 30.724C179.565 31.2667 179.029 31.6773 178.501 31.956C177.959 32.2347 177.394 32.374 176.807 32.374ZM186.399 32.374C184.903 32.374 183.774 31.956 183.011 31.12C182.249 30.2693 181.867 29.1767 181.867 27.842C181.867 27.0647 182.007 26.258 182.285 25.422C182.579 24.5713 183.004 23.7793 183.561 23.046C184.119 22.3127 184.808 21.7187 185.629 21.264C186.465 20.8093 187.419 20.582 188.489 20.582C189.355 20.582 190.081 20.714 190.667 20.978C191.269 21.242 191.789 21.6307 192.229 22.144C192.449 22.408 192.523 22.6353 192.449 22.826C192.391 23.002 192.273 23.1707 192.097 23.332C191.907 23.4787 191.716 23.5667 191.525 23.596C191.335 23.6107 191.137 23.508 190.931 23.288C190.653 22.98 190.308 22.7453 189.897 22.584C189.487 22.4227 188.951 22.342 188.291 22.342C187.558 22.342 186.913 22.5253 186.355 22.892C185.798 23.2587 185.329 23.7353 184.947 24.322C184.581 24.894 184.302 25.5027 184.111 26.148C183.935 26.7787 183.847 27.3727 183.847 27.93C183.847 28.3993 183.935 28.8467 184.111 29.272C184.302 29.6973 184.603 30.042 185.013 30.306C185.424 30.5553 185.959 30.68 186.619 30.68C186.825 30.68 186.964 30.768 187.037 30.944C187.125 31.1053 187.155 31.3033 187.125 31.538C187.096 31.758 187.015 31.9487 186.883 32.11C186.766 32.286 186.605 32.374 186.399 32.374ZM186.293 32.374C186.161 32.374 186.066 32.286 186.007 32.11C185.948 31.9487 185.926 31.758 185.941 31.538C185.956 31.3033 186.007 31.1053 186.095 30.944C186.183 30.768 186.3 30.68 186.447 30.68C187.254 30.68 188.104 30.438 188.999 29.954C189.879 29.47 190.818 28.7367 191.815 27.754C192.798 26.7713 193.846 25.5467 194.961 24.08C195.049 23.9627 195.181 23.9407 195.357 24.014C195.533 24.0727 195.68 24.168 195.797 24.3C195.929 24.432 195.951 24.5567 195.863 24.674C194.734 26.39 193.626 27.82 192.541 28.964C191.456 30.0933 190.4 30.944 189.373 31.516C188.332 32.088 187.305 32.374 186.293 32.374ZM197.843 32.418C196.934 32.418 196.164 32.2347 195.533 31.868C194.902 31.5013 194.426 30.9953 194.103 30.35C193.795 29.69 193.641 28.9493 193.641 28.128C193.641 27.3507 193.78 26.5293 194.059 25.664C194.338 24.784 194.748 23.9627 195.291 23.2C195.848 22.4227 196.538 21.792 197.359 21.308C198.195 20.824 199.163 20.582 200.263 20.582C201.172 20.582 201.935 20.758 202.551 21.11C203.182 21.4473 203.651 21.9313 203.959 22.562C204.282 23.178 204.443 23.8967 204.443 24.718C204.443 25.3047 204.355 25.95 204.179 26.654C204.018 27.3433 203.761 28.0327 203.409 28.722C203.072 29.3967 202.639 30.0127 202.111 30.57C201.583 31.1273 200.96 31.5747 200.241 31.912C199.537 32.2493 198.738 32.418 197.843 32.418ZM198.063 30.658C198.782 30.658 199.412 30.4673 199.955 30.086C200.498 29.7047 200.952 29.2207 201.319 28.634C201.686 28.0327 201.964 27.4093 202.155 26.764C202.346 26.104 202.441 25.4953 202.441 24.938C202.441 24.366 202.346 23.8893 202.155 23.508C201.964 23.1267 201.693 22.8407 201.341 22.65C200.989 22.4447 200.571 22.342 200.087 22.342C199.354 22.342 198.708 22.5327 198.151 22.914C197.594 23.2807 197.124 23.7573 196.743 24.344C196.376 24.9307 196.098 25.5467 195.907 26.192C195.716 26.8373 195.621 27.4313 195.621 27.974C195.621 28.546 195.716 29.0373 195.907 29.448C196.112 29.844 196.398 30.1447 196.765 30.35C197.132 30.5553 197.564 30.658 198.063 30.658ZM205.049 23.64C204.8 23.64 204.499 23.596 204.147 23.508C203.795 23.42 203.458 23.3027 203.135 23.156C202.798 22.9947 202.519 22.8333 202.299 22.672C202.167 22.5693 202.094 22.43 202.079 22.254C202.065 22.0633 202.094 21.8873 202.167 21.726C202.241 21.55 202.351 21.4253 202.497 21.352C202.644 21.2787 202.805 21.3007 202.981 21.418C203.407 21.6967 203.803 21.88 204.169 21.968C204.536 22.0413 204.873 22.078 205.181 22.078C205.621 22.078 206.025 22.0047 206.391 21.858C206.773 21.6967 207.132 21.5207 207.469 21.33C207.807 21.1393 208.137 20.9707 208.459 20.824C208.797 20.6627 209.134 20.582 209.471 20.582C209.662 20.582 209.801 20.67 209.889 20.846C209.992 21.0073 210.029 21.198 209.999 21.418C209.985 21.6233 209.889 21.814 209.713 21.99C209.537 22.1513 209.273 22.232 208.921 22.232C208.701 22.232 208.452 22.3053 208.173 22.452C207.909 22.584 207.616 22.7453 207.293 22.936C206.985 23.1267 206.641 23.2953 206.259 23.442C205.893 23.574 205.489 23.64 205.049 23.64ZM207.25 32.33C207.015 32.33 206.795 32.2787 206.59 32.176C206.399 32.0733 206.348 31.8827 206.436 31.604L209.296 22.76C209.34 22.6133 209.332 22.4887 209.274 22.386C209.23 22.2833 209.12 22.232 208.944 22.232C208.724 22.232 208.584 22.1513 208.526 21.99C208.482 21.814 208.489 21.6233 208.548 21.418C208.621 21.198 208.738 21.0073 208.9 20.846C209.076 20.67 209.274 20.582 209.494 20.582C210.036 20.582 210.432 20.6847 210.682 20.89C210.946 21.0807 211.107 21.3373 211.166 21.66C211.224 21.968 211.224 22.298 211.166 22.65C211.107 23.002 211.034 23.3247 210.946 23.618L210.55 24.806C210.975 24.1313 211.408 23.53 211.848 23.002C212.302 22.474 212.757 22.034 213.212 21.682C213.681 21.3153 214.15 21.044 214.62 20.868C215.089 20.6773 215.558 20.582 216.028 20.582C216.805 20.582 217.362 20.7727 217.7 21.154C218.052 21.5207 218.22 22.034 218.206 22.694C218.206 23.354 218.066 24.102 217.788 24.938L215.544 31.758C215.47 31.9487 215.36 32.088 215.214 32.176C215.067 32.2787 214.825 32.33 214.488 32.33C214.253 32.33 214.033 32.2787 213.828 32.176C213.622 32.0733 213.571 31.8827 213.674 31.604L216.028 24.432C216.16 24.0507 216.24 23.706 216.27 23.398C216.314 23.0753 216.27 22.8187 216.138 22.628C216.006 22.4373 215.734 22.342 215.324 22.342C214.854 22.342 214.334 22.5547 213.762 22.98C213.204 23.4053 212.625 24.0067 212.024 24.784C211.422 25.5467 210.828 26.456 210.242 27.512C209.655 28.5533 209.098 29.6973 208.57 30.944L208.306 31.758C208.247 31.9487 208.137 32.088 207.976 32.176C207.829 32.2787 207.587 32.33 207.25 32.33ZM223.53 32.374C222.884 32.374 222.408 32.2493 222.1 32C221.792 31.7653 221.601 31.4647 221.528 31.098C221.454 30.7167 221.454 30.3207 221.528 29.91C221.601 29.4847 221.696 29.096 221.814 28.744L223.288 24.432C223.42 24.0507 223.5 23.706 223.53 23.398C223.574 23.0753 223.53 22.8187 223.398 22.628C223.266 22.4373 222.994 22.342 222.584 22.342C222.1 22.342 221.564 22.562 220.978 23.002C220.406 23.442 219.812 24.0653 219.196 24.872C218.594 25.664 217.993 26.6027 217.392 27.688C216.805 28.7587 216.248 29.932 215.72 31.208H214.84C215.426 29.5507 216.05 28.0693 216.71 26.764C217.37 25.4587 218.059 24.344 218.778 23.42C219.511 22.496 220.252 21.792 221 21.308C221.762 20.824 222.525 20.582 223.288 20.582C224.065 20.582 224.622 20.7727 224.96 21.154C225.312 21.5353 225.488 22.056 225.488 22.716C225.488 23.3613 225.341 24.102 225.048 24.938L223.75 28.722C223.486 29.4993 223.368 30.0273 223.398 30.306C223.427 30.5847 223.61 30.724 223.948 30.724C224.168 30.724 224.322 30.812 224.41 30.988C224.512 31.1493 224.549 31.34 224.52 31.56C224.49 31.7653 224.395 31.9487 224.234 32.11C224.072 32.286 223.838 32.374 223.53 32.374ZM223.557 32.374C223.279 32.374 223.095 32.286 223.007 32.11C222.905 31.9487 222.883 31.7653 222.941 31.56C222.985 31.34 223.095 31.1493 223.271 30.988C223.447 30.812 223.675 30.724 223.953 30.724C224.555 30.724 225.273 30.5553 226.109 30.218C226.931 29.8807 227.855 29.3747 228.881 28.7C229.057 28.5827 229.219 28.5607 229.365 28.634C229.512 28.7073 229.622 28.832 229.695 29.008C229.783 29.184 229.813 29.3673 229.783 29.558C229.754 29.7487 229.659 29.9027 229.497 30.02C228.632 30.592 227.833 31.054 227.099 31.406C226.351 31.7433 225.684 31.9853 225.097 32.132C224.496 32.2933 223.983 32.374 223.557 32.374ZM228.903 28.832C229.153 28.6707 229.402 28.5093 229.651 28.348C229.901 28.172 230.15 27.996 230.399 27.82C231.059 27.336 231.653 26.8373 232.181 26.324C232.709 25.8107 233.127 25.3047 233.435 24.806C233.758 24.3073 233.919 23.8453 233.919 23.42C233.919 23.0827 233.846 22.8187 233.699 22.628C233.553 22.4373 233.333 22.342 233.039 22.342C232.585 22.342 232.181 22.5253 231.829 22.892C231.477 23.244 231.177 23.6913 230.927 24.234C230.693 24.7767 230.517 25.3487 230.399 25.95C230.282 26.5513 230.223 27.094 230.223 27.578C230.223 27.9887 230.275 28.3773 230.377 28.744C230.48 29.1107 230.634 29.4333 230.839 29.712C231.045 29.9907 231.301 30.2107 231.609 30.372C231.932 30.5333 232.306 30.614 232.731 30.614C233.186 30.614 233.626 30.5187 234.051 30.328C234.491 30.1227 234.909 29.8587 235.305 29.536C235.716 29.1987 236.097 28.8393 236.449 28.458C236.625 28.2527 236.831 28.1793 237.065 28.238C237.3 28.2967 237.491 28.4067 237.637 28.568C237.784 28.7293 237.865 28.898 237.879 29.074C237.909 29.25 237.835 29.448 237.659 29.668C237.102 30.372 236.523 30.922 235.921 31.318C235.335 31.6993 234.733 31.9707 234.117 32.132C233.516 32.2933 232.915 32.374 232.313 32.374C231.771 32.374 231.287 32.286 230.861 32.11C230.436 31.9487 230.062 31.7213 229.739 31.428C229.417 31.1347 229.145 30.79 228.925 30.394C228.72 29.9833 228.559 29.5433 228.441 29.074C228.339 28.6047 228.287 28.1207 228.287 27.622C228.287 27.0793 228.346 26.4927 228.463 25.862C228.581 25.2313 228.764 24.608 229.013 23.992C229.277 23.3613 229.615 22.7893 230.025 22.276C230.436 21.7627 230.927 21.352 231.499 21.044C232.071 20.736 232.739 20.582 233.501 20.582C233.941 20.582 234.345 20.6773 234.711 20.868C235.078 21.044 235.364 21.308 235.569 21.66C235.789 21.9973 235.899 22.408 235.899 22.892C235.899 23.552 235.687 24.2487 235.261 24.982C234.851 25.7007 234.301 26.4193 233.611 27.138C232.922 27.842 232.152 28.502 231.301 29.118C231.023 29.3087 230.737 29.5067 230.443 29.712C230.15 29.9173 229.849 30.108 229.541 30.284L228.903 28.832ZM241.077 27.248C240.432 27.248 240.175 27.0427 240.307 26.632L245.389 10.264C245.462 10.0587 245.594 9.912 245.785 9.824C245.976 9.72133 246.232 9.67 246.555 9.67C247.2 9.67 247.457 9.868 247.325 10.264L242.243 26.632C242.17 26.8373 242.038 26.9913 241.847 27.094C241.656 27.1967 241.4 27.248 241.077 27.248ZM239.713 32.308C239.405 32.308 239.148 32.2053 238.943 32C238.738 31.8093 238.635 31.5307 238.635 31.164C238.62 30.768 238.738 30.394 238.987 30.042C239.251 29.69 239.654 29.514 240.197 29.514C240.505 29.514 240.754 29.6093 240.945 29.8C241.15 29.9907 241.26 30.2767 241.275 30.658C241.29 31.054 241.172 31.428 240.923 31.78C240.674 32.132 240.27 32.308 239.713 32.308Z" fill="white"/>
<path d="M267.41 31.0899C267.41 31.0899 266.517 33.3406 266.049 34.2025C266.174 35.4928 272.22 38.1094 272.944 37.7275C273.295 36.8139 273.509 36.2028 273.894 35.7655C275.504 32.9768 268.853 28.8084 267.41 31.0899Z" fill="#FFE0BD" stroke="#FFCCAA" stroke-opacity="0.979118" stroke-linecap="round" stroke-linejoin="round"/>
<path d="M268.056 31.685C266.377 29.9618 265.101 27.2728 264.958 25.3871C264.816 23.5013 263.895 20.4411 263.658 18.5077C263.58 17.8173 262.911 16.1137 263.258 15.4216C263.528 14.8855 264.639 14.7569 265.759 16.1831C266.851 17.3734 267.313 18.5854 267.425 20.139C267.47 20.8139 267.587 22.2499 268.492 22.6213C269.397 22.9927 270.305 22.0076 270.725 21.456C271.144 20.9044 271.54 19.9093 272.07 18.7226C272.601 17.5359 272.477 16.4629 273.334 14.1329C273.782 12.9129 274.326 11.7821 274.742 10.497C275.174 9.28807 276.231 6.9906 277.409 7.62411C278.684 8.30928 277.649 10.3634 277.282 11.2868C276.678 12.8041 276.396 14.0956 276.089 15.4625C275.912 16.253 275.264 17.5752 274.956 19.1204C274.935 19.2261 275.347 19.3558 275.394 19.2488C275.961 17.9447 276.386 16.5281 277.006 14.9162C277.657 13.6219 278.183 12.4556 278.716 11.1835C279.337 10.0335 280.025 8.03163 281.181 7.82932C281.72 7.75048 282.348 8.11405 282.479 8.60162C282.559 9.82224 282.014 10.7628 281.464 11.8348C280.698 13.3288 280.278 15.0468 279.742 16.331C279.15 17.7042 278.365 19.0573 277.803 20.28C277.685 20.5382 278.019 20.7899 278.204 20.5394C278.835 19.6848 279.417 18.642 279.974 17.8777C280.856 16.6685 281.438 15.6263 282.14 14.4821C282.679 13.6045 283.025 12.5456 283.711 11.8217C284.629 10.8534 286.115 11.7625 285.794 12.8997C285.55 13.7622 285.128 14.4506 284.794 15.1185C284.563 15.5804 283.946 16.4996 283.426 17.488C283.014 18.2712 282.479 19.0451 281.976 19.7721C281.321 20.7184 280.614 22.0131 280.386 22.6949C280.295 22.9683 280.42 23.3655 280.559 23.2585C281.046 22.883 281.456 22.2568 282.121 21.5757C282.999 20.675 283.645 19.8724 284.478 19.0966C285.277 18.1966 286.01 17.0625 286.83 16.9986C287.258 16.9653 287.73 17.1832 287.889 17.7321C288.13 18.5645 286.791 20.1563 286.009 21.2202C285.448 21.9818 284.726 22.8193 284.075 23.6107C283.021 24.8917 282.326 25.8217 281.598 26.9831C279.46 30.2755 276.724 34.8384 273.776 35.7876C273.612 35.8333 273.161 35.9138 272.786 35.5494" fill="#FFE0BD"/>
<path d="M268.056 31.685C266.377 29.9618 265.101 27.2728 264.958 25.3871C264.816 23.5013 263.895 20.4411 263.658 18.5077C263.58 17.8173 262.911 16.1137 263.258 15.4216C263.528 14.8855 264.639 14.7569 265.759 16.1831C266.851 17.3734 267.313 18.5854 267.425 20.139C267.47 20.8139 267.587 22.2499 268.492 22.6213C269.397 22.9927 270.305 22.0076 270.725 21.456C271.144 20.9044 271.54 19.9093 272.07 18.7226C272.601 17.5359 272.477 16.4629 273.334 14.1329C273.782 12.9129 274.326 11.7821 274.742 10.497C275.174 9.28807 276.231 6.9906 277.409 7.62411C278.684 8.30928 277.649 10.3634 277.282 11.2868C276.678 12.8041 276.396 14.0956 276.089 15.4625C275.912 16.253 275.264 17.5752 274.956 19.1204C274.935 19.2261 275.347 19.3558 275.394 19.2488C275.961 17.9447 276.386 16.5281 277.006 14.9162C277.657 13.6219 278.183 12.4556 278.716 11.1835C279.337 10.0335 280.025 8.03163 281.181 7.82932C281.72 7.75048 282.348 8.11405 282.479 8.60162C282.559 9.82224 282.014 10.7628 281.464 11.8348C280.698 13.3288 280.278 15.0468 279.742 16.331C279.15 17.7042 278.365 19.0573 277.803 20.28C277.685 20.5382 278.019 20.7899 278.204 20.5394C278.835 19.6848 279.417 18.642 279.974 17.8777C280.856 16.6685 281.438 15.6263 282.14 14.4821C282.679 13.6045 283.025 12.5456 283.711 11.8217C284.629 10.8534 286.115 11.7625 285.794 12.8997C285.55 13.7622 285.128 14.4506 284.794 15.1185C284.563 15.5804 283.946 16.4996 283.426 17.488C283.014 18.2712 282.479 19.0451 281.976 19.7721C281.321 20.7184 280.614 22.0131 280.386 22.6949C280.295 22.9683 280.42 23.3655 280.559 23.2585C281.046 22.883 281.456 22.2568 282.121 21.5757C282.999 20.675 283.645 19.8724 284.478 19.0966C285.277 18.1966 286.01 17.0625 286.83 16.9986C287.258 16.9653 287.73 17.1832 287.889 17.7321C288.13 18.5645 286.791 20.1563 286.009 21.2202C285.448 21.9818 284.726 22.8193 284.075 23.6107C283.021 24.8917 282.326 25.8217 281.598 26.9831C279.46 30.2755 276.724 34.8384 273.776 35.7876C273.612 35.8333 273.161 35.9138 272.786 35.5494" stroke="#FFCCAA" stroke-opacity="0.979118" stroke-linecap="round" stroke-linejoin="round"/>
<path d="M271.634 23.5259C272.818 24.8607 273.37 27.9506 272.721 29.9666" stroke="#FFCCAA" stroke-opacity="0.979118" stroke-linecap="round" stroke-linejoin="round"/>
<path d="M269.72 11.05C269.511 9.05398 270.553 6.64139 272.511 5.68487M267.004 8.78051C266.919 7.43948 267.736 5.45904 269.179 4.49908" stroke="#76DAFF" stroke-linecap="round"/>
<path d="M287.915 26.7638C289.791 26.0507 291.474 24.0331 291.446 21.8544M291.165 28.1656C292.4 27.6368 293.8 26.0143 294.006 24.2935" stroke="#76DAFF" stroke-linecap="round"/>
</svg>
