<svg width="301" height="39" viewBox="0 0 301 39" fill="none" xmlns="http://www.w3.org/2000/svg">
<path opacity="0.7" d="M1.87602 26V12H3.55602V18.2H9.51602V12H11.196V26H9.51602V19.76H3.55602V26H1.87602ZM18.8221 26.28C17.8754 26.28 17.0354 26.0667 16.3021 25.64C15.5821 25.2 15.0154 24.6 14.6021 23.84C14.1888 23.0667 13.9821 22.1733 13.9821 21.16V20.68C13.9821 19.7467 14.1954 18.9133 14.6221 18.18C15.0488 17.4467 15.6288 16.8667 16.3621 16.44C17.1088 16.0133 17.9421 15.8 18.8621 15.8C19.6754 15.8 20.3754 15.9467 20.9621 16.24C21.5621 16.5333 22.0488 16.9067 22.4221 17.36C22.8088 17.8133 23.0888 18.3 23.2621 18.82C23.4488 19.3267 23.5421 19.8 23.5421 20.24V21.52H15.5421C15.5821 22.4933 15.8888 23.2867 16.4621 23.9C17.0488 24.5 17.8488 24.8 18.8621 24.8C19.8088 24.8 20.5154 24.6 20.9821 24.2C21.4488 23.8 21.7688 23.32 21.9421 22.76L23.4221 23.16C23.1421 24.08 22.6221 24.8333 21.8621 25.42C21.1154 25.9933 20.1021 26.28 18.8221 26.28ZM15.5821 20.08H21.9821C21.9554 19.5067 21.7888 19.0133 21.4821 18.6C21.1888 18.1733 20.8088 17.8467 20.3421 17.62C19.8754 17.3933 19.3821 17.28 18.8621 17.28C17.9821 17.28 17.2421 17.5467 16.6421 18.08C16.0421 18.6133 15.6888 19.28 15.5821 20.08ZM26.6482 26V24.56H30.2482V13.44H26.7682V12H31.8082V24.56H35.4082V26H26.6482ZM38.8943 26V24.56H42.4943V13.44H39.0143V12H44.0543V24.56H47.6543V26H38.8943ZM55.5204 26.28C54.6404 26.28 53.8204 26.08 53.0604 25.68C52.3137 25.28 51.7071 24.7 51.2404 23.94C50.7737 23.18 50.5404 22.2533 50.5404 21.16V20.92C50.5404 19.84 50.7737 18.92 51.2404 18.16C51.7071 17.3867 52.3137 16.8 53.0604 16.4C53.8204 16 54.6404 15.8 55.5204 15.8C56.4004 15.8 57.2137 16 57.9604 16.4C58.7204 16.8 59.3337 17.3867 59.8004 18.16C60.2671 18.92 60.5004 19.84 60.5004 20.92V21.16C60.5004 22.2533 60.2671 23.18 59.8004 23.94C59.3337 24.7 58.7204 25.28 57.9604 25.68C57.2137 26.08 56.4004 26.28 55.5204 26.28ZM55.5204 24.8C56.1604 24.8 56.7337 24.6533 57.2404 24.36C57.7471 24.0667 58.1471 23.6467 58.4404 23.1C58.7471 22.5533 58.9004 21.9067 58.9004 21.16V20.92C58.9004 20.2 58.7471 19.5667 58.4404 19.02C58.1471 18.4733 57.7404 18.0467 57.2204 17.74C56.7137 17.4333 56.1471 17.28 55.5204 17.28C54.8937 17.28 54.3204 17.4333 53.8004 17.74C53.2937 18.0467 52.8871 18.4733 52.5804 19.02C52.2871 19.5667 52.1404 20.2 52.1404 20.92V21.16C52.1404 21.9067 52.2871 22.5533 52.5804 23.1C52.8871 23.6467 53.2937 24.0667 53.8004 24.36C54.3204 24.6533 54.8937 24.8 55.5204 24.8ZM79.9526 26C79.4992 26 79.1259 25.8533 78.8326 25.56C78.5526 25.2667 78.4126 24.8933 78.4126 24.44V17.52H75.2926V16.08H78.4126V12H79.9726V16.08H83.8126V17.52H79.9726V23.96C79.9726 24.36 80.1526 24.56 80.5126 24.56H83.3326V26H79.9526ZM87.8787 26V12H89.4387V17.88H89.6787C89.9853 17.24 90.412 16.7333 90.9587 16.36C91.5187 15.9867 92.1987 15.8 92.9987 15.8C94.0787 15.8 94.952 16.16 95.6187 16.88C96.2987 17.5867 96.6387 18.6533 96.6387 20.08V26H95.0787V20.4C95.0787 19.36 94.8453 18.58 94.3787 18.06C93.912 17.54 93.2787 17.28 92.4787 17.28C91.5453 17.28 90.8053 17.6067 90.2587 18.26C89.712 18.9 89.4387 19.76 89.4387 20.84V26H87.8787ZM104.545 26.28C103.598 26.28 102.758 26.0667 102.025 25.64C101.305 25.2 100.738 24.6 100.325 23.84C99.9114 23.0667 99.7048 22.1733 99.7048 21.16V20.68C99.7048 19.7467 99.9181 18.9133 100.345 18.18C100.771 17.4467 101.351 16.8667 102.085 16.44C102.831 16.0133 103.665 15.8 104.585 15.8C105.398 15.8 106.098 15.9467 106.685 16.24C107.285 16.5333 107.771 16.9067 108.145 17.36C108.531 17.8133 108.811 18.3 108.985 18.82C109.171 19.3267 109.265 19.8 109.265 20.24V21.52H101.265C101.305 22.4933 101.611 23.2867 102.185 23.9C102.771 24.5 103.571 24.8 104.585 24.8C105.531 24.8 106.238 24.6 106.705 24.2C107.171 23.8 107.491 23.32 107.665 22.76L109.145 23.16C108.865 24.08 108.345 24.8333 107.585 25.42C106.838 25.9933 105.825 26.28 104.545 26.28ZM101.305 20.08H107.705C107.678 19.5067 107.511 19.0133 107.205 18.6C106.911 18.1733 106.531 17.8467 106.065 17.62C105.598 17.3933 105.105 17.28 104.585 17.28C103.705 17.28 102.965 17.5467 102.365 18.08C101.765 18.6133 101.411 19.28 101.305 20.08ZM111.571 26V24.56H113.851V17.52H111.811V16.08H115.411V17.4H115.651C115.904 16.8533 116.264 16.4533 116.731 16.2C117.211 15.9333 117.744 15.8 118.331 15.8C119.318 15.8 120.118 16.1267 120.731 16.78C121.358 17.4333 121.691 18.3867 121.731 19.64L120.091 19.88C120.091 18.96 119.871 18.3 119.431 17.9C118.991 17.4867 118.451 17.28 117.811 17.28C116.998 17.28 116.391 17.58 115.991 18.18C115.604 18.7667 115.411 19.4933 115.411 20.36V24.56H117.931V26H111.571ZM129.037 26.28C128.09 26.28 127.25 26.0667 126.517 25.64C125.797 25.2 125.23 24.6 124.817 23.84C124.404 23.0667 124.197 22.1733 124.197 21.16V20.68C124.197 19.7467 124.41 18.9133 124.837 18.18C125.264 17.4467 125.844 16.8667 126.577 16.44C127.324 16.0133 128.157 15.8 129.077 15.8C129.89 15.8 130.59 15.9467 131.177 16.24C131.777 16.5333 132.264 16.9067 132.637 17.36C133.024 17.8133 133.304 18.3 133.477 18.82C133.664 19.3267 133.757 19.8 133.757 20.24V21.52H125.757C125.797 22.4933 126.104 23.2867 126.677 23.9C127.264 24.5 128.064 24.8 129.077 24.8C130.024 24.8 130.73 24.6 131.197 24.2C131.664 23.8 131.984 23.32 132.157 22.76L133.637 23.16C133.357 24.08 132.837 24.8333 132.077 25.42C131.33 25.9933 130.317 26.28 129.037 26.28ZM125.797 20.08H132.197C132.17 19.5067 132.004 19.0133 131.697 18.6C131.404 18.1733 131.024 17.8467 130.557 17.62C130.09 17.3933 129.597 17.28 129.077 17.28C128.197 17.28 127.457 17.5467 126.857 18.08C126.257 18.6133 125.904 19.28 125.797 20.08ZM140.083 28.4V27.32H141.023C141.383 27.32 141.563 27.12 141.563 26.72V26.22C141.47 26.26 141.356 26.28 141.223 26.28C140.85 26.28 140.523 26.14 140.243 25.86C139.976 25.58 139.843 25.2533 139.843 24.88C139.843 24.4933 139.983 24.1667 140.263 23.9C140.543 23.62 140.87 23.48 141.243 23.48C141.63 23.48 141.956 23.62 142.223 23.9C142.503 24.1667 142.643 24.4933 142.643 24.88V26.84C142.643 27.2933 142.496 27.6667 142.203 27.96C141.923 28.2533 141.556 28.4 141.103 28.4H140.083ZM161.535 26L159.975 16.08H161.575L162.895 25.28H163.135L164.295 16.08H167.175L168.335 25.28H168.575L169.895 16.08H171.495L169.935 26H167.055L165.855 16.8H165.615L164.415 26H161.535ZM178.021 26.28C177.075 26.28 176.235 26.0667 175.501 25.64C174.781 25.2 174.215 24.6 173.801 23.84C173.388 23.0667 173.181 22.1733 173.181 21.16V20.68C173.181 19.7467 173.395 18.9133 173.821 18.18C174.248 17.4467 174.828 16.8667 175.561 16.44C176.308 16.0133 177.141 15.8 178.061 15.8C178.875 15.8 179.575 15.9467 180.161 16.24C180.761 16.5333 181.248 16.9067 181.621 17.36C182.008 17.8133 182.288 18.3 182.461 18.82C182.648 19.3267 182.741 19.8 182.741 20.24V21.52H174.741C174.781 22.4933 175.088 23.2867 175.661 23.9C176.248 24.5 177.048 24.8 178.061 24.8C179.008 24.8 179.715 24.6 180.181 24.2C180.648 23.8 180.968 23.32 181.141 22.76L182.621 23.16C182.341 24.08 181.821 24.8333 181.061 25.42C180.315 25.9933 179.301 26.28 178.021 26.28ZM174.781 20.08H181.181C181.155 19.5067 180.988 19.0133 180.681 18.6C180.388 18.1733 180.008 17.8467 179.541 17.62C179.075 17.3933 178.581 17.28 178.061 17.28C177.181 17.28 176.441 17.5467 175.841 18.08C175.241 18.6133 174.888 19.28 174.781 20.08ZM185.847 26V24.56H189.447V13.44H185.967V12H191.007V24.56H194.607V26H185.847ZM202.654 26.28C201.734 26.28 200.887 26.0867 200.114 25.7C199.34 25.3 198.714 24.72 198.234 23.96C197.767 23.2 197.534 22.28 197.534 21.2V20.96C197.534 19.8933 197.767 18.9733 198.234 18.2C198.714 17.4267 199.34 16.8333 200.114 16.42C200.887 16.0067 201.734 15.8 202.654 15.8C203.494 15.8 204.24 15.9667 204.894 16.3C205.56 16.62 206.1 17.0667 206.514 17.64C206.94 18.2133 207.214 18.8667 207.334 19.6L205.774 19.96C205.72 19.4933 205.567 19.06 205.314 18.66C205.06 18.2467 204.707 17.9133 204.254 17.66C203.814 17.4067 203.267 17.28 202.614 17.28C201.974 17.28 201.387 17.44 200.854 17.76C200.334 18.0667 199.914 18.5 199.594 19.06C199.287 19.6067 199.134 20.24 199.134 20.96V21.2C199.134 21.9467 199.287 22.5933 199.594 23.14C199.914 23.6733 200.34 24.0867 200.874 24.38C201.407 24.66 202 24.8 202.654 24.8C203.307 24.8 203.854 24.6733 204.294 24.42C204.747 24.1533 205.094 23.82 205.334 23.42C205.587 23.0067 205.747 22.5733 205.814 22.12L207.374 22.48C207.24 23.2133 206.967 23.8667 206.554 24.44C206.14 25.0133 205.6 25.4667 204.934 25.8C204.28 26.12 203.52 26.28 202.654 26.28ZM214.72 26.28C213.84 26.28 213.02 26.08 212.26 25.68C211.513 25.28 210.906 24.7 210.44 23.94C209.973 23.18 209.74 22.2533 209.74 21.16V20.92C209.74 19.84 209.973 18.92 210.44 18.16C210.906 17.3867 211.513 16.8 212.26 16.4C213.02 16 213.84 15.8 214.72 15.8C215.6 15.8 216.413 16 217.16 16.4C217.92 16.8 218.533 17.3867 219 18.16C219.466 18.92 219.7 19.84 219.7 20.92V21.16C219.7 22.2533 219.466 23.18 219 23.94C218.533 24.7 217.92 25.28 217.16 25.68C216.413 26.08 215.6 26.28 214.72 26.28ZM214.72 24.8C215.36 24.8 215.933 24.6533 216.44 24.36C216.946 24.0667 217.346 23.6467 217.64 23.1C217.946 22.5533 218.1 21.9067 218.1 21.16V20.92C218.1 20.2 217.946 19.5667 217.64 19.02C217.346 18.4733 216.94 18.0467 216.42 17.74C215.913 17.4333 215.346 17.28 214.72 17.28C214.093 17.28 213.52 17.4333 213 17.74C212.493 18.0467 212.086 18.4733 211.78 19.02C211.486 19.5667 211.34 20.2 211.34 20.92V21.16C211.34 21.9067 211.486 22.5533 211.78 23.1C212.086 23.6467 212.493 24.0667 213 24.36C213.52 24.6533 214.093 24.8 214.72 24.8ZM221.806 26V16.08H223.366V17.16H223.606C223.779 16.6933 224.032 16.3533 224.366 16.14C224.699 15.9133 225.092 15.8 225.546 15.8C226.026 15.8 226.419 15.9267 226.726 16.18C227.046 16.4333 227.266 16.76 227.386 17.16H227.626C228.079 16.2533 228.799 15.8 229.786 15.8C230.532 15.8 231.106 16.04 231.506 16.52C231.919 16.9867 232.126 17.6 232.126 18.36V26H230.566V18.88C230.566 18.4133 230.459 18.0333 230.246 17.74C230.032 17.4333 229.692 17.28 229.226 17.28C228.786 17.28 228.426 17.4467 228.146 17.78C227.879 18.1133 227.746 18.6133 227.746 19.28V26H226.186V18.8C226.186 18.36 226.066 18 225.826 17.72C225.586 17.4267 225.266 17.28 224.866 17.28C224.386 17.28 224.012 17.4533 223.746 17.8C223.492 18.1467 223.366 18.6 223.366 19.16V26H221.806ZM239.252 26.28C238.305 26.28 237.465 26.0667 236.732 25.64C236.012 25.2 235.445 24.6 235.032 23.84C234.618 23.0667 234.412 22.1733 234.412 21.16V20.68C234.412 19.7467 234.625 18.9133 235.052 18.18C235.478 17.4467 236.058 16.8667 236.792 16.44C237.538 16.0133 238.372 15.8 239.292 15.8C240.105 15.8 240.805 15.9467 241.392 16.24C241.992 16.5333 242.478 16.9067 242.852 17.36C243.238 17.8133 243.518 18.3 243.692 18.82C243.878 19.3267 243.972 19.8 243.972 20.24V21.52H235.972C236.012 22.4933 236.318 23.2867 236.892 23.9C237.478 24.5 238.278 24.8 239.292 24.8C240.238 24.8 240.945 24.6 241.412 24.2C241.878 23.8 242.198 23.32 242.372 22.76L243.852 23.16C243.572 24.08 243.052 24.8333 242.292 25.42C241.545 25.9933 240.532 26.28 239.252 26.28ZM236.012 20.08H242.412C242.385 19.5067 242.218 19.0133 241.912 18.6C241.618 18.1733 241.238 17.8467 240.772 17.62C240.305 17.3933 239.812 17.28 239.292 17.28C238.412 17.28 237.672 17.5467 237.072 18.08C236.472 18.6133 236.118 19.28 236.012 20.08ZM250.658 22.28V12H252.258V22.28H250.658ZM251.458 26.28C251.085 26.28 250.758 26.14 250.478 25.86C250.198 25.58 250.058 25.2533 250.058 24.88C250.058 24.4933 250.198 24.1667 250.478 23.9C250.758 23.62 251.085 23.48 251.458 23.48C251.845 23.48 252.171 23.62 252.438 23.9C252.718 24.1667 252.858 24.4933 252.858 24.88C252.858 25.2533 252.718 25.58 252.438 25.86C252.171 26.14 251.845 26.28 251.458 26.28Z" fill="white"/>
<path d="M273.41 29.0899C273.41 29.0899 272.517 31.3406 272.049 32.2025C272.174 33.4928 278.22 36.1094 278.944 35.7275C279.295 34.8139 279.509 34.2028 279.894 33.7655C281.504 30.9768 274.853 26.8084 273.41 29.0899Z" fill="#FFE0BD" stroke="#FFCCAA" stroke-opacity="0.979118" stroke-linecap="round" stroke-linejoin="round"/>
<path d="M274.056 29.685C272.377 27.9618 271.101 25.2728 270.958 23.3871C270.816 21.5013 269.895 18.4411 269.658 16.5077C269.58 15.8173 268.911 14.1137 269.258 13.4216C269.528 12.8855 270.639 12.7569 271.759 14.1831C272.851 15.3734 273.313 16.5854 273.425 18.139C273.47 18.8139 273.587 20.2499 274.492 20.6213C275.397 20.9927 276.305 20.0076 276.725 19.456C277.144 18.9044 277.54 17.9093 278.07 16.7226C278.601 15.5359 278.477 14.4629 279.334 12.1329C279.782 10.9129 280.326 9.78211 280.742 8.49704C281.174 7.28807 282.231 4.9906 283.409 5.62411C284.684 6.30928 283.649 8.36337 283.282 9.28677C282.678 10.8041 282.396 12.0956 282.089 13.4625C281.912 14.253 281.264 15.5752 280.956 17.1204C280.935 17.2261 281.347 17.3558 281.394 17.2488C281.961 15.9447 282.386 14.5281 283.006 12.9162C283.657 11.6219 284.183 10.4556 284.716 9.18349C285.337 8.03345 286.025 6.03163 287.181 5.82932C287.72 5.75048 288.348 6.11405 288.479 6.60162C288.559 7.82224 288.014 8.76278 287.464 9.83479C286.698 11.3288 286.278 13.0468 285.742 14.331C285.15 15.7042 284.365 17.0573 283.803 18.28C283.685 18.5382 284.019 18.7899 284.204 18.5394C284.835 17.6848 285.417 16.642 285.974 15.8777C286.856 14.6685 287.438 13.6263 288.14 12.4821C288.679 11.6045 289.025 10.5456 289.711 9.82175C290.629 8.85342 292.115 9.76251 291.794 10.8997C291.55 11.7622 291.128 12.4506 290.794 13.1185C290.563 13.5804 289.946 14.4996 289.426 15.488C289.014 16.2712 288.479 17.0451 287.976 17.7721C287.321 18.7184 286.614 20.0131 286.386 20.6949C286.295 20.9683 286.42 21.3655 286.559 21.2585C287.046 20.883 287.456 20.2568 288.121 19.5757C288.999 18.675 289.645 17.8724 290.478 17.0966C291.277 16.1966 292.01 15.0625 292.83 14.9986C293.258 14.9653 293.73 15.1832 293.889 15.7321C294.13 16.5645 292.791 18.1563 292.009 19.2202C291.448 19.9818 290.726 20.8193 290.075 21.6107C289.021 22.8917 288.326 23.8217 287.598 24.9831C285.46 28.2755 282.724 32.8384 279.776 33.7876C279.612 33.8333 279.161 33.9138 278.786 33.5494" fill="#FFE0BD"/>
<path d="M274.056 29.685C272.377 27.9618 271.101 25.2728 270.958 23.3871C270.816 21.5013 269.895 18.4411 269.658 16.5077C269.58 15.8173 268.911 14.1137 269.258 13.4216C269.528 12.8855 270.639 12.7569 271.759 14.1831C272.851 15.3734 273.313 16.5854 273.425 18.139C273.47 18.8139 273.587 20.2499 274.492 20.6213C275.397 20.9927 276.305 20.0076 276.725 19.456C277.144 18.9044 277.54 17.9093 278.07 16.7226C278.601 15.5359 278.477 14.4629 279.334 12.1329C279.782 10.9129 280.326 9.78211 280.742 8.49704C281.174 7.28807 282.231 4.9906 283.409 5.62411C284.684 6.30928 283.649 8.36337 283.282 9.28677C282.678 10.8041 282.396 12.0956 282.089 13.4625C281.912 14.253 281.264 15.5752 280.956 17.1204C280.935 17.2261 281.347 17.3558 281.394 17.2488C281.961 15.9447 282.386 14.5281 283.006 12.9162C283.657 11.6219 284.183 10.4556 284.716 9.18349C285.337 8.03345 286.025 6.03163 287.181 5.82932C287.72 5.75048 288.348 6.11405 288.479 6.60162C288.559 7.82224 288.014 8.76278 287.464 9.83479C286.698 11.3288 286.278 13.0468 285.742 14.331C285.15 15.7042 284.365 17.0573 283.803 18.28C283.685 18.5382 284.019 18.7899 284.204 18.5394C284.835 17.6848 285.417 16.642 285.974 15.8777C286.856 14.6685 287.438 13.6263 288.14 12.4821C288.679 11.6045 289.025 10.5456 289.711 9.82175C290.629 8.85342 292.115 9.76251 291.794 10.8997C291.55 11.7622 291.128 12.4506 290.794 13.1185C290.563 13.5804 289.946 14.4996 289.426 15.488C289.014 16.2712 288.479 17.0451 287.976 17.7721C287.321 18.7184 286.614 20.0131 286.386 20.6949C286.295 20.9683 286.42 21.3655 286.559 21.2585C287.046 20.883 287.456 20.2568 288.121 19.5757C288.999 18.675 289.645 17.8724 290.478 17.0966C291.277 16.1966 292.01 15.0625 292.83 14.9986C293.258 14.9653 293.73 15.1832 293.889 15.7321C294.13 16.5645 292.791 18.1563 292.009 19.2202C291.448 19.9818 290.726 20.8193 290.075 21.6107C289.021 22.8917 288.326 23.8217 287.598 24.9831C285.46 28.2755 282.724 32.8384 279.776 33.7876C279.612 33.8333 279.161 33.9138 278.786 33.5494" stroke="#FFCCAA" stroke-opacity="0.979118" stroke-linecap="round" stroke-linejoin="round"/>
<path d="M277.634 21.5259C278.818 22.8607 279.37 25.9506 278.721 27.9666" stroke="#FFCCAA" stroke-opacity="0.979118" stroke-linecap="round" stroke-linejoin="round"/>
<path d="M275.72 9.04998C275.511 7.05398 276.553 4.64139 278.511 3.68487M273.004 6.78051C272.919 5.43948 273.736 3.45904 275.179 2.49908" stroke="#76DAFF" stroke-linecap="round"/>
<path d="M293.915 24.7638C295.791 24.0507 297.474 22.0331 297.446 19.8544M297.165 26.1656C298.4 25.6368 299.8 24.0143 300.006 22.2935" stroke="#76DAFF" stroke-linecap="round"/>
</svg>
