<svg width="310" height="27" viewBox="0 0 310 27" fill="none" xmlns="http://www.w3.org/2000/svg">
<g opacity="0.6">
<path d="M155 0.284607L146 13.2846C145.667 12.6179 144.3 11.2846 141.5 11.2846C138.7 11.2846 137.333 12.6179 137 13.2846L129.5 7.78461L110 13.2846L107 10.2846L104 13.2846H59C59 12.6179 58.2 11.2846 55 11.2846C51.8 11.2846 51 12.6179 51 13.2846H49.5L46.5 10.2846L43.5 13.2846H42C41.8333 12.6179 40.8 11.2846 38 11.2846C35.2 11.2846 33.8333 12.6179 33.5 13.2846L28.5 9.78461L15.5 13.2846" stroke="white" stroke-linejoin="round"/>
<path d="M146 13.2846L155 8.28461" stroke="white"/>
<path opacity="0.25" d="M5.6 15.0846C6.48366 15.0846 7.2 14.3682 7.2 13.4846C7.2 12.6009 6.48366 11.8846 5.6 11.8846C4.71634 11.8846 4 12.6009 4 13.4846C4 14.3682 4.71634 15.0846 5.6 15.0846Z" fill="white"/>
<path d="M155 26.2846L146 13.2846C145.667 13.9513 144.3 15.2846 141.5 15.2846C138.7 15.2846 137.333 13.9513 137 13.2846L129.5 18.7846L110 13.2846L107 16.2846L104 13.2846H59C59 13.9513 58.2 15.2846 55 15.2846C51.8 15.2846 51 13.9513 51 13.2846H49.5L46.5 16.2846L43.5 13.2846H42C41.8333 13.9513 40.8 15.2846 38 15.2846C35.2 15.2846 33.8333 13.9513 33.5 13.2846L28.5 16.7846L15.5 13.2846" stroke="white" stroke-linejoin="round"/>
<path d="M146 13.2846L155 18.2846" stroke="white"/>
<path opacity="0.25" d="M5.6 11.4846C6.48366 11.4846 7.2 12.201 7.2 13.0846C7.2 13.9683 6.48366 14.6846 5.6 14.6846C4.71634 14.6846 4 13.9683 4 13.0846C4 12.201 4.71634 11.4846 5.6 11.4846Z" fill="white"/>
<path d="M155 26.2846L164 13.2846C164.333 13.9513 165.7 15.2846 168.5 15.2846C171.3 15.2846 172.667 13.9513 173 13.2846L180.5 18.7846L200 13.2846L203 16.2846L206 13.2846H251C251 13.9513 251.8 15.2846 255 15.2846C258.2 15.2846 259 13.9513 259 13.2846H260.5L263.5 16.2846L266.5 13.2846H268C268.167 13.9513 269.2 15.2846 272 15.2846C274.8 15.2846 276.167 13.9513 276.5 13.2846L281.5 16.7846L294.5 13.2846" stroke="white" stroke-linejoin="round"/>
<path d="M164 13.2846L155 18.2846" stroke="white"/>
<path opacity="0.25" d="M304.4 11.4846C303.516 11.4846 302.8 12.201 302.8 13.0846C302.8 13.9683 303.516 14.6846 304.4 14.6846C305.284 14.6846 306 13.9683 306 13.0846C306 12.201 305.284 11.4846 304.4 11.4846Z" fill="white"/>
<path d="M155 0.284607L164 13.2846C164.333 12.6179 165.7 11.2846 168.5 11.2846C171.3 11.2846 172.667 12.6179 173 13.2846L180.5 7.78461L200 13.2846L203 10.2846L206 13.2846H251C251 12.6179 251.8 11.2846 255 11.2846C258.2 11.2846 259 12.6179 259 13.2846H260.5L263.5 10.2846L266.5 13.2846H268C268.167 12.6179 269.2 11.2846 272 11.2846C274.8 11.2846 276.167 12.6179 276.5 13.2846L281.5 9.78461L294.5 13.2846" stroke="white" stroke-linejoin="round"/>
<path d="M164 13.2846L155 8.28461" stroke="white"/>
<path opacity="0.25" d="M304.4 15.0846C303.516 15.0846 302.8 14.3682 302.8 13.4846C302.8 12.6009 303.516 11.8846 304.4 11.8846C305.284 11.8846 306 12.6009 306 13.4846C306 14.3682 305.284 15.0846 304.4 15.0846Z" fill="white"/>
</g>
</svg>
