<svg width="311" height="26" viewBox="0 0 311 26" fill="none" xmlns="http://www.w3.org/2000/svg">
<path d="M155.6 14.7C156.484 14.7 157.2 13.9837 157.2 13.1C157.2 12.2163 156.484 11.5 155.6 11.5C154.716 11.5 154 12.2163 154 13.1C154 13.9837 154.716 14.7 155.6 14.7Z" fill="white"/>
<path d="M145.5 13H59C59 12.3333 58.2 11 55 11C51.8 11 51 12.3333 51 13H49.5L46.5 10L43.5 13H42C41.8333 12.3333 40.8 11 38 11C35.2 11 33.8333 12.3333 33.5 13L28.5 9.5L15.5 13" stroke="white" stroke-linejoin="round"/>
<path d="M145.5 13H59C59 13.6667 58.2 15 55 15C51.8 15 51 13.6667 51 13H49.5L46.5 16L43.5 13H42C41.8333 13.6667 40.8 15 38 15C35.2 15 33.8333 13.6667 33.5 13L28.5 16.5L15.5 13" stroke="white" stroke-linejoin="round"/>
<path d="M165.5 13H252C252 12.3333 252.8 11 256 11C259.2 11 260 12.3333 260 13H261.5L264.5 10L267.5 13H269C269.167 12.3333 270.2 11 273 11C275.8 11 277.167 12.3333 277.5 13L282.5 9.5L295.5 13" stroke="white" stroke-linejoin="round"/>
<path d="M165.5 13H252C252 13.6667 252.8 15 256 15C259.2 15 260 13.6667 260 13H261.5L264.5 16L267.5 13H269C269.167 13.6667 270.2 15 273 15C275.8 15 277.167 13.6667 277.5 13L282.5 16.5L295.5 13" stroke="white" stroke-linejoin="round"/>
</svg>
