<svg width="227" height="39" viewBox="0 0 227 39" fill="none" xmlns="http://www.w3.org/2000/svg">
<path opacity="0.6" d="M182.266 27.6875C182.266 28.2604 182.005 28.5469 181.484 28.5469C181.328 28.5469 181.133 28.5273 180.898 28.4883C180.677 28.4492 180.449 28.3906 180.215 28.3125C179.98 28.2344 179.766 28.1432 179.57 28.0391C179.388 27.9219 179.258 27.7917 179.18 27.6484C179.076 27.4661 179.023 27.2773 179.023 27.082C179.023 26.8737 179.023 26.6589 179.023 26.4375C178.945 23.5469 178.841 20.6758 178.711 17.8242C178.594 14.9596 178.477 12.0755 178.359 9.17188C178.333 8.5599 178.307 7.94792 178.281 7.33594C178.255 6.71094 178.242 6.08594 178.242 5.46094C178.242 5.16146 178.275 4.9401 178.34 4.79688C178.405 4.64062 178.607 4.5625 178.945 4.5625C179.115 4.5625 179.297 4.58854 179.492 4.64062C179.688 4.67969 179.87 4.74479 180.039 4.83594C180.221 4.91406 180.378 5.01823 180.508 5.14844C180.651 5.26562 180.755 5.40885 180.82 5.57812C180.859 5.68229 180.905 6.02734 180.957 6.61328C181.022 7.19922 181.087 7.95443 181.152 8.87891C181.217 9.79036 181.283 10.8255 181.348 11.9844C181.413 13.1432 181.478 14.3411 181.543 15.5781C181.621 16.8021 181.693 18.026 181.758 19.25C181.823 20.4609 181.882 21.5872 181.934 22.6289C181.999 23.6706 182.051 24.582 182.09 25.3633C182.142 26.1445 182.188 26.7109 182.227 27.0625C182.227 27.1667 182.233 27.2708 182.246 27.375C182.259 27.4792 182.266 27.5833 182.266 27.6875ZM179.219 30.8906C179.219 30.7604 179.264 30.6628 179.355 30.5977C179.447 30.5195 179.557 30.4674 179.688 30.4414C179.831 30.4023 179.967 30.3828 180.098 30.3828C180.241 30.3828 180.365 30.3828 180.469 30.3828C180.599 30.3828 180.749 30.3893 180.918 30.4023C181.1 30.4023 181.27 30.4284 181.426 30.4805C181.582 30.5195 181.712 30.5911 181.816 30.6953C181.934 30.7865 181.992 30.9167 181.992 31.0859C181.992 31.151 181.986 31.2943 181.973 31.5156C181.973 31.724 181.966 31.9518 181.953 32.1992C181.953 32.4466 181.94 32.6745 181.914 32.8828C181.901 33.0781 181.888 33.1823 181.875 33.1953C181.797 33.3385 181.673 33.4167 181.504 33.4297C181.335 33.4557 181.172 33.4688 181.016 33.4688C180.625 33.4688 180.332 33.4492 180.137 33.4102C179.941 33.3711 179.798 33.293 179.707 33.1758C179.629 33.0586 179.57 32.8958 179.531 32.6875C179.505 32.4792 179.466 32.2057 179.414 31.8672C179.388 31.7109 179.349 31.5547 179.297 31.3984C179.245 31.2422 179.219 31.0729 179.219 30.8906Z" fill="white"/>
<path opacity="0.6" d="M176.914 29.4258C176.914 29.8164 176.803 30.2201 176.582 30.6367C176.374 31.0534 176.1 31.4375 175.762 31.7891C175.423 32.1276 175.033 32.4076 174.59 32.6289C174.16 32.8503 173.73 32.9609 173.301 32.9609C172.689 32.9609 172.161 32.8438 171.719 32.6094C171.276 32.362 170.892 32.0365 170.566 31.6328C170.241 31.2161 169.974 30.7474 169.766 30.2266C169.57 29.7057 169.414 29.1719 169.297 28.625C169.18 28.0651 169.095 27.5117 169.043 26.9648C169.004 26.4049 168.984 25.8971 168.984 25.4414C168.984 25.0508 169.004 24.5885 169.043 24.0547C169.095 23.5208 169.173 22.9674 169.277 22.3945C169.395 21.8216 169.551 21.2552 169.746 20.6953C169.941 20.1354 170.182 19.6341 170.469 19.1914C170.768 18.7487 171.12 18.3906 171.523 18.1172C171.94 17.8438 172.415 17.707 172.949 17.707C173.366 17.707 173.737 17.7917 174.062 17.9609C174.401 18.1302 174.681 18.3581 174.902 18.6445C175.137 18.918 175.312 19.237 175.43 19.6016C175.56 19.9661 175.625 20.3438 175.625 20.7344C175.625 21.2422 175.508 21.7956 175.273 22.3945C175.039 22.9935 174.733 23.5729 174.355 24.1328C173.991 24.6927 173.574 25.2005 173.105 25.6562C172.65 26.099 172.194 26.4375 171.738 26.6719C171.764 26.9062 171.816 27.2513 171.895 27.707C171.973 28.1497 172.077 28.5924 172.207 29.0352C172.35 29.4779 172.513 29.862 172.695 30.1875C172.891 30.513 173.118 30.6758 173.379 30.6758C173.509 30.6758 173.62 30.6367 173.711 30.5586C173.815 30.4805 173.906 30.3763 173.984 30.2461C174.062 30.1159 174.128 29.9727 174.18 29.8164C174.245 29.6602 174.303 29.5104 174.355 29.3672L174.473 29.0938C174.499 29.0547 174.512 29.0286 174.512 29.0156C174.525 29.0026 174.538 28.9831 174.551 28.957C174.642 28.7878 174.727 28.6315 174.805 28.4883C174.896 28.3451 175.02 28.2214 175.176 28.1172H175.156C175.208 28.0651 175.26 28.0391 175.312 28.0391C175.378 28.026 175.436 28.0195 175.488 28.0195C175.632 28.0195 175.788 28.0651 175.957 28.1562C176.126 28.2474 176.283 28.3646 176.426 28.5078C176.569 28.638 176.686 28.7878 176.777 28.957C176.868 29.1133 176.914 29.2695 176.914 29.4258ZM173.047 20.8125C173.047 20.6823 173.04 20.5456 173.027 20.4023C173.014 20.2591 172.982 20.1354 172.93 20.0312C172.747 20.2526 172.585 20.5195 172.441 20.832C172.311 21.1315 172.201 21.4505 172.109 21.7891C172.018 22.1146 171.94 22.4466 171.875 22.7852C171.823 23.1237 171.784 23.4362 171.758 23.7227C172.096 23.319 172.396 22.8633 172.656 22.3555C172.917 21.8346 173.047 21.3203 173.047 20.8125Z" fill="white"/>
<path opacity="0.6" d="M155.508 32.9023C155.508 33.2018 155.417 33.3971 155.234 33.4883C155.065 33.5794 154.857 33.625 154.609 33.625C154.388 33.625 154.167 33.6055 153.945 33.5664C153.737 33.5404 153.535 33.4818 153.34 33.3906C153.158 33.2995 152.995 33.1758 152.852 33.0195C152.721 32.8633 152.63 32.6615 152.578 32.4141C152.396 31.6328 152.292 30.8711 152.266 30.1289C152.24 29.3737 152.227 28.599 152.227 27.8047V25.4023C152.227 24.3086 152.272 23.1758 152.363 22.0039C152.454 20.819 152.552 19.6797 152.656 18.5859C152.656 18.5469 152.663 18.5013 152.676 18.4492C152.689 18.3971 152.695 18.3581 152.695 18.332C152.708 18.1888 152.728 18.0326 152.754 17.8633C152.78 17.694 152.819 17.5443 152.871 17.4141C152.936 17.2708 153.021 17.1536 153.125 17.0625C153.242 16.9714 153.392 16.9258 153.574 16.9258C153.783 16.9258 153.978 16.9714 154.16 17.0625C154.355 17.1406 154.525 17.2513 154.668 17.3945C154.811 17.5247 154.922 17.6875 155 17.8828C155.091 18.0781 155.137 18.2799 155.137 18.4883C155.137 18.7487 155.124 19.0221 155.098 19.3086C155.085 19.582 155.065 19.849 155.039 20.1094C155.013 20.2917 154.993 20.4284 154.98 20.5195C154.98 20.6107 154.974 20.7604 154.961 20.9688C155.117 20.6953 155.293 20.4219 155.488 20.1484C155.697 19.862 155.924 19.6146 156.172 19.4062C156.419 19.1849 156.686 19.0091 156.973 18.8789C157.272 18.7357 157.591 18.6641 157.93 18.6641C158.268 18.6641 158.548 18.7227 158.77 18.8398C158.991 18.944 159.167 19.0938 159.297 19.2891C159.427 19.4714 159.518 19.6927 159.57 19.9531C159.622 20.2135 159.648 20.487 159.648 20.7734C159.648 20.9557 159.642 21.1315 159.629 21.3008C159.629 21.4701 159.622 21.6393 159.609 21.8086C159.596 21.9779 159.583 22.1471 159.57 22.3164C159.57 22.4727 159.57 22.6419 159.57 22.8242C159.57 23.1628 159.577 23.4883 159.59 23.8008C159.616 24.1003 159.642 24.4193 159.668 24.7578C159.798 24.3281 159.954 23.8398 160.137 23.293C160.332 22.7461 160.553 22.1862 160.801 21.6133C161.061 21.0404 161.341 20.4805 161.641 19.9336C161.953 19.3737 162.285 18.8789 162.637 18.4492C163.001 18.0195 163.392 17.6745 163.809 17.4141C164.225 17.1406 164.661 17.0039 165.117 17.0039C165.833 17.0039 166.335 17.2122 166.621 17.6289C166.921 18.0456 167.07 18.5794 167.07 19.2305C167.07 19.4128 167.064 19.6081 167.051 19.8164C167.038 20.0117 167.018 20.2005 166.992 20.3828C166.927 21.0859 166.875 21.8086 166.836 22.5508C166.81 23.293 166.797 24.0156 166.797 24.7188V25.0898C166.797 26.0013 166.836 26.8607 166.914 27.668C166.992 28.4753 167.148 29.3281 167.383 30.2266L167.539 30.7539C167.591 30.9362 167.65 31.138 167.715 31.3594C167.793 31.5807 167.858 31.7956 167.91 32.0039C167.962 32.2122 168.008 32.4076 168.047 32.5898C168.086 32.7721 168.105 32.9154 168.105 33.0195C168.105 33.293 168.008 33.4753 167.812 33.5664C167.617 33.6576 167.415 33.7031 167.207 33.7031C167.077 33.7031 166.927 33.6966 166.758 33.6836C166.589 33.6836 166.419 33.6641 166.25 33.625C166.094 33.599 165.938 33.5534 165.781 33.4883C165.638 33.4232 165.521 33.3385 165.43 33.2344V33.2539C165.312 33.1367 165.228 32.9935 165.176 32.8242C165.124 32.6549 165.085 32.4857 165.059 32.3164L165.02 32.1406C164.837 31.4375 164.681 30.806 164.551 30.2461C164.434 29.6862 164.336 29.1263 164.258 28.5664C164.18 28.0065 164.121 27.4271 164.082 26.8281C164.056 26.2292 164.043 25.5391 164.043 24.7578C164.043 24.0938 164.069 23.4167 164.121 22.7266C164.186 22.0365 164.251 21.3594 164.316 20.6953C164.316 20.6302 164.316 20.5586 164.316 20.4805C164.329 20.3893 164.342 20.3112 164.355 20.2461C163.861 21.0143 163.424 21.8607 163.047 22.7852C162.682 23.6966 162.35 24.6341 162.051 25.5977C161.764 26.5612 161.51 27.5312 161.289 28.5078C161.081 29.4714 160.892 30.3893 160.723 31.2617C160.723 31.2747 160.749 31.3529 160.801 31.4961C160.866 31.6263 160.924 31.7826 160.977 31.9648C161.042 32.1341 161.1 32.3034 161.152 32.4727C161.204 32.6289 161.23 32.7331 161.23 32.7852C161.23 33.0846 161.133 33.2669 160.938 33.332C160.742 33.3971 160.54 33.4297 160.332 33.4297C160.176 33.4297 160.007 33.4232 159.824 33.4102C159.642 33.3971 159.46 33.3646 159.277 33.3125C159.108 33.2604 158.945 33.1888 158.789 33.0977C158.646 33.0195 158.529 32.9023 158.438 32.7461C158.359 32.6159 158.268 32.3099 158.164 31.8281C158.06 31.3333 157.949 30.7604 157.832 30.1094C157.715 29.4453 157.604 28.7357 157.5 27.9805C157.396 27.2253 157.298 26.5091 157.207 25.832C157.116 25.1549 157.044 24.5625 156.992 24.0547C156.94 23.5469 156.914 23.2018 156.914 23.0195V22.7266C156.497 23.625 156.152 24.5885 155.879 25.6172C155.605 26.6458 155.397 27.6549 155.254 28.6445L155.176 28.9961C155.15 29.1003 155.13 29.2044 155.117 29.3086C155.104 29.3997 155.098 29.4909 155.098 29.582C155.098 29.7253 155.111 29.901 155.137 30.1094C155.176 30.3177 155.221 30.5456 155.273 30.793C155.339 31.1315 155.391 31.4831 155.43 31.8477C155.482 32.1992 155.508 32.5508 155.508 32.9023Z" fill="white"/>
<path opacity="0.6" d="M150.859 24.9922C150.859 26.125 150.762 27.2578 150.566 28.3906C150.384 29.5104 150 30.5716 149.414 31.5742C149.232 31.8737 149.023 32.1667 148.789 32.4531C148.555 32.7266 148.294 32.974 148.008 33.1953C147.734 33.4297 147.428 33.612 147.09 33.7422C146.764 33.8854 146.419 33.957 146.055 33.957C145.482 33.957 144.98 33.8203 144.551 33.5469C144.134 33.2865 143.77 32.9414 143.457 32.5117C143.158 32.069 142.904 31.5742 142.695 31.0273C142.5 30.4674 142.344 29.901 142.227 29.3281C142.122 28.7422 142.044 28.1758 141.992 27.6289C141.953 27.082 141.934 26.6003 141.934 26.1836C141.934 25.7148 141.953 25.2005 141.992 24.6406C142.031 24.0807 142.096 23.5078 142.188 22.9219C142.292 22.3359 142.422 21.7565 142.578 21.1836C142.747 20.6107 142.962 20.0768 143.223 19.582C143.483 19.0742 143.796 18.625 144.16 18.2344C144.525 17.8307 144.948 17.5117 145.43 17.2773V17.2969C145.846 17.0755 146.263 16.9648 146.68 16.9648C146.94 16.9648 147.142 17.0234 147.285 17.1406C147.428 17.2448 147.493 17.4271 147.48 17.6875C148.197 17.8177 148.776 18.1628 149.219 18.7227C149.661 19.2826 150 19.9336 150.234 20.6758C150.482 21.418 150.645 22.1797 150.723 22.9609C150.814 23.7422 150.859 24.4193 150.859 24.9922ZM146.445 20.1094C146.224 20.1094 146.016 20.0247 145.82 19.8555C145.573 20.2331 145.365 20.6693 145.195 21.1641C145.026 21.6458 144.889 22.1471 144.785 22.668C144.694 23.1758 144.629 23.6901 144.59 24.2109C144.551 24.7318 144.531 25.2201 144.531 25.6758C144.531 26.0534 144.551 26.5417 144.59 27.1406C144.629 27.7266 144.701 28.319 144.805 28.918C144.922 29.5169 145.078 30.0768 145.273 30.5977C145.482 31.1185 145.749 31.5026 146.074 31.75C146.478 31.5156 146.81 31.1445 147.07 30.6367C147.344 30.1159 147.559 29.5495 147.715 28.9375C147.871 28.3255 147.975 27.707 148.027 27.082C148.092 26.457 148.125 25.9232 148.125 25.4805C148.125 25.1549 148.105 24.7318 148.066 24.2109C148.027 23.6901 147.962 23.1628 147.871 22.6289C147.78 22.082 147.65 21.5742 147.48 21.1055C147.324 20.6367 147.122 20.2852 146.875 20.0508C146.758 20.0898 146.615 20.1094 146.445 20.1094Z" fill="white"/>
<path opacity="0.6" d="M141.484 28.625C141.484 28.8984 141.439 29.1784 141.348 29.4648C141.257 29.7513 141.152 30.0247 141.035 30.2852C140.879 30.6628 140.69 31.0339 140.469 31.3984C140.247 31.75 139.993 32.069 139.707 32.3555C139.421 32.6289 139.095 32.8503 138.73 33.0195C138.366 33.1888 137.956 33.2734 137.5 33.2734C136.693 33.2734 136.022 33.0716 135.488 32.668C134.954 32.2643 134.531 31.7565 134.219 31.1445C133.906 30.5326 133.685 29.862 133.555 29.1328C133.438 28.4036 133.379 27.7135 133.379 27.0625C133.379 26.5807 133.398 26.0143 133.438 25.3633C133.477 24.6992 133.548 24.0156 133.652 23.3125C133.77 22.6094 133.932 21.9128 134.141 21.2227C134.362 20.5326 134.642 19.9206 134.98 19.3867C135.319 18.8398 135.729 18.3971 136.211 18.0586C136.706 17.7201 137.292 17.5508 137.969 17.5508C138.112 17.5508 138.32 17.5768 138.594 17.6289C138.867 17.681 139.134 17.7591 139.395 17.8633C139.668 17.9544 139.902 18.0846 140.098 18.2539C140.306 18.4102 140.41 18.5924 140.41 18.8008C140.41 18.9961 140.319 19.1458 140.137 19.25C139.967 19.3542 139.759 19.4323 139.512 19.4844C139.277 19.5234 139.03 19.5495 138.77 19.5625C138.522 19.5625 138.32 19.5625 138.164 19.5625H137.812C137.448 19.888 137.148 20.3698 136.914 21.0078C136.68 21.6328 136.497 22.3034 136.367 23.0195C136.237 23.7357 136.146 24.4453 136.094 25.1484C136.042 25.8385 136.016 26.4049 136.016 26.8477C136.016 27.4727 136.061 28.0911 136.152 28.7031C136.257 29.3021 136.458 29.8685 136.758 30.4023C136.823 30.5195 136.914 30.6562 137.031 30.8125C137.161 30.9557 137.305 31.0273 137.461 31.0273C137.578 31.0273 137.695 30.9297 137.812 30.7344C137.943 30.5391 138.06 30.3112 138.164 30.0508C138.268 29.7904 138.353 29.5365 138.418 29.2891C138.483 29.0417 138.529 28.8594 138.555 28.7422C138.568 28.6901 138.574 28.6315 138.574 28.5664C138.574 28.5013 138.574 28.4362 138.574 28.3711C138.574 28.2539 138.574 28.1432 138.574 28.0391C138.587 27.9219 138.607 27.8307 138.633 27.7656C138.724 27.5443 138.841 27.3945 138.984 27.3164C139.141 27.2383 139.329 27.1992 139.551 27.1992C139.746 27.1992 139.954 27.2253 140.176 27.2773C140.397 27.3294 140.605 27.4141 140.801 27.5312C140.996 27.6484 141.159 27.7982 141.289 27.9805C141.419 28.1628 141.484 28.3776 141.484 28.625Z" fill="white"/>
<path opacity="0.6" d="M133.379 33.5664C133.379 33.7487 133.333 33.8984 133.242 34.0156C133.151 34.1328 133.034 34.224 132.891 34.2891C132.76 34.3672 132.611 34.4193 132.441 34.4453C132.285 34.4844 132.142 34.5039 132.012 34.5039C131.556 34.5039 131.159 34.3737 130.82 34.1133C130.482 33.8529 130.189 33.5143 129.941 33.0977C129.694 32.694 129.492 32.2318 129.336 31.7109C129.18 31.1771 129.049 30.6497 128.945 30.1289C128.841 29.5951 128.763 29.0872 128.711 28.6055C128.659 28.1107 128.62 27.6875 128.594 27.3359C128.477 26.125 128.392 24.8945 128.34 23.6445C128.301 22.3945 128.281 21.1576 128.281 19.9336C128.281 16.5872 128.398 13.2734 128.633 9.99219C128.633 9.9401 128.633 9.88151 128.633 9.81641C128.646 9.7513 128.652 9.6862 128.652 9.62109C128.665 9.34766 128.678 9.03516 128.691 8.68359C128.704 8.31901 128.724 7.96094 128.75 7.60938C128.776 7.25781 128.802 6.9388 128.828 6.65234C128.867 6.35286 128.913 6.14453 128.965 6.02734V6.04688C129.017 5.86458 129.089 5.72786 129.18 5.63672C129.271 5.54557 129.427 5.5 129.648 5.5C130.117 5.5 130.514 5.65625 130.84 5.96875C131.165 6.28125 131.328 6.67188 131.328 7.14062C131.328 7.24479 131.322 7.34896 131.309 7.45312C131.309 7.54427 131.302 7.63542 131.289 7.72656C131.276 7.81771 131.263 7.90885 131.25 8C131.25 8.07812 131.25 8.14974 131.25 8.21484C131.211 8.72266 131.178 9.23047 131.152 9.73828C131.139 10.2331 131.12 10.7344 131.094 11.2422C131.029 12.362 130.977 13.4818 130.938 14.6016C130.911 15.7083 130.898 16.8281 130.898 17.9609C130.898 18.4427 130.905 19.0742 130.918 19.8555C130.931 20.6367 130.957 21.4896 130.996 22.4141C131.035 23.3255 131.087 24.2695 131.152 25.2461C131.23 26.2227 131.328 27.1536 131.445 28.0391C131.562 28.9245 131.699 29.7253 131.855 30.4414C132.025 31.1576 132.22 31.7109 132.441 32.1016C132.559 32.1536 132.669 32.2383 132.773 32.3555C132.891 32.4596 132.988 32.5833 133.066 32.7266C133.158 32.8568 133.229 32.9935 133.281 33.1367C133.346 33.293 133.379 33.4362 133.379 33.5664Z" fill="white"/>
<path opacity="0.6" d="M127.5 29.4258C127.5 29.8164 127.389 30.2201 127.168 30.6367C126.96 31.0534 126.686 31.4375 126.348 31.7891C126.009 32.1276 125.618 32.4076 125.176 32.6289C124.746 32.8503 124.316 32.9609 123.887 32.9609C123.275 32.9609 122.747 32.8438 122.305 32.6094C121.862 32.362 121.478 32.0365 121.152 31.6328C120.827 31.2161 120.56 30.7474 120.352 30.2266C120.156 29.7057 120 29.1719 119.883 28.625C119.766 28.0651 119.681 27.5117 119.629 26.9648C119.59 26.4049 119.57 25.8971 119.57 25.4414C119.57 25.0508 119.59 24.5885 119.629 24.0547C119.681 23.5208 119.759 22.9674 119.863 22.3945C119.98 21.8216 120.137 21.2552 120.332 20.6953C120.527 20.1354 120.768 19.6341 121.055 19.1914C121.354 18.7487 121.706 18.3906 122.109 18.1172C122.526 17.8438 123.001 17.707 123.535 17.707C123.952 17.707 124.323 17.7917 124.648 17.9609C124.987 18.1302 125.267 18.3581 125.488 18.6445C125.723 18.918 125.898 19.237 126.016 19.6016C126.146 19.9661 126.211 20.3438 126.211 20.7344C126.211 21.2422 126.094 21.7956 125.859 22.3945C125.625 22.9935 125.319 23.5729 124.941 24.1328C124.577 24.6927 124.16 25.2005 123.691 25.6562C123.236 26.099 122.78 26.4375 122.324 26.6719C122.35 26.9062 122.402 27.2513 122.48 27.707C122.559 28.1497 122.663 28.5924 122.793 29.0352C122.936 29.4779 123.099 29.862 123.281 30.1875C123.477 30.513 123.704 30.6758 123.965 30.6758C124.095 30.6758 124.206 30.6367 124.297 30.5586C124.401 30.4805 124.492 30.3763 124.57 30.2461C124.648 30.1159 124.714 29.9727 124.766 29.8164C124.831 29.6602 124.889 29.5104 124.941 29.3672L125.059 29.0938C125.085 29.0547 125.098 29.0286 125.098 29.0156C125.111 29.0026 125.124 28.9831 125.137 28.957C125.228 28.7878 125.312 28.6315 125.391 28.4883C125.482 28.3451 125.605 28.2214 125.762 28.1172H125.742C125.794 28.0651 125.846 28.0391 125.898 28.0391C125.964 28.026 126.022 28.0195 126.074 28.0195C126.217 28.0195 126.374 28.0651 126.543 28.1562C126.712 28.2474 126.868 28.3646 127.012 28.5078C127.155 28.638 127.272 28.7878 127.363 28.957C127.454 29.1133 127.5 29.2695 127.5 29.4258ZM123.633 20.8125C123.633 20.6823 123.626 20.5456 123.613 20.4023C123.6 20.2591 123.568 20.1354 123.516 20.0312C123.333 20.2526 123.171 20.5195 123.027 20.832C122.897 21.1315 122.786 21.4505 122.695 21.7891C122.604 22.1146 122.526 22.4466 122.461 22.7852C122.409 23.1237 122.37 23.4362 122.344 23.7227C122.682 23.319 122.982 22.8633 123.242 22.3555C123.503 21.8346 123.633 21.3203 123.633 20.8125Z" fill="white"/>
<path opacity="0.6" d="M114.082 20.6562C114.082 20.7604 114.082 20.8646 114.082 20.9688C114.082 21.0599 114.069 21.151 114.043 21.2422C114.238 21.9453 114.414 22.6549 114.57 23.3711C114.74 24.0742 114.902 24.7773 115.059 25.4805C115.137 24.6862 115.202 23.8919 115.254 23.0977C115.319 22.2904 115.352 21.4896 115.352 20.6953C115.352 19.9141 115.326 19.1198 115.273 18.3125C115.221 17.4922 115.091 16.7109 114.883 15.9688L114.805 15.6953C114.779 15.6302 114.759 15.5586 114.746 15.4805C114.733 15.4023 114.727 15.3242 114.727 15.2461C114.727 15.1029 114.759 14.9922 114.824 14.9141C114.902 14.8229 114.993 14.7578 115.098 14.7188C115.202 14.6797 115.319 14.6536 115.449 14.6406C115.579 14.6276 115.697 14.6211 115.801 14.6211C116.126 14.6211 116.465 14.6602 116.816 14.7383C117.051 14.8034 117.24 14.901 117.383 15.0312C117.526 15.1484 117.63 15.2917 117.695 15.4609C117.773 15.6302 117.826 15.819 117.852 16.0273C117.878 16.2227 117.897 16.4245 117.91 16.6328C117.91 16.6589 117.91 16.6849 117.91 16.7109C117.923 16.737 117.93 16.763 117.93 16.7891C117.995 17.362 118.04 17.9414 118.066 18.5273C118.105 19.1003 118.125 19.6667 118.125 20.2266C118.125 21.9714 118.021 23.7096 117.812 25.4414C117.617 27.1732 117.376 28.8919 117.09 30.5977C117.051 30.8581 116.992 31.125 116.914 31.3984C116.849 31.6719 116.751 31.9258 116.621 32.1602C116.491 32.3945 116.322 32.5898 116.113 32.7461C115.905 32.8893 115.645 32.9609 115.332 32.9609C114.98 32.9609 114.694 32.8828 114.473 32.7266C114.251 32.5573 114.069 32.349 113.926 32.1016C113.796 31.8411 113.698 31.5547 113.633 31.2422C113.568 30.9297 113.516 30.6237 113.477 30.3242C113.451 30.181 113.424 30.0508 113.398 29.9336C113.385 29.8164 113.366 29.7057 113.34 29.6016L112.793 27.1797C112.689 27.5443 112.546 28.0065 112.363 28.5664C112.194 29.1133 112.005 29.6667 111.797 30.2266C111.602 30.7865 111.4 31.2943 111.191 31.75C110.996 32.2057 110.833 32.5182 110.703 32.6875C110.56 32.8568 110.378 32.987 110.156 33.0781C109.935 33.1823 109.714 33.2344 109.492 33.2344C109.102 33.2344 108.763 33.1107 108.477 32.8633C108.216 32.6029 108.047 32.3034 107.969 31.9648C107.891 31.6263 107.832 31.2878 107.793 30.9492C107.793 30.9232 107.786 30.8906 107.773 30.8516C107.773 30.8125 107.773 30.7799 107.773 30.7539C107.578 29.3216 107.435 27.8698 107.344 26.3984C107.253 24.9141 107.207 23.4362 107.207 21.9648V18.7227C107.207 18.6055 107.214 18.4818 107.227 18.3516C107.24 18.2214 107.266 18.1042 107.305 18C107.357 17.8828 107.428 17.7917 107.52 17.7266C107.624 17.6615 107.767 17.6289 107.949 17.6289C108.431 17.6289 108.828 17.7721 109.141 18.0586C109.453 18.3451 109.629 18.7227 109.668 19.1914C109.707 19.8164 109.733 20.4479 109.746 21.0859C109.772 21.724 109.792 22.3555 109.805 22.9805C109.818 23.6966 109.824 24.3932 109.824 25.0703C109.837 25.7344 109.883 26.4375 109.961 27.1797C110.117 26.6719 110.267 26.1445 110.41 25.5977C110.553 25.0508 110.677 24.4974 110.781 23.9375C110.898 23.3776 110.99 22.8242 111.055 22.2773C111.133 21.7174 111.172 21.1771 111.172 20.6562C111.172 20.5911 111.165 20.5391 111.152 20.5C111.152 20.4479 111.152 20.3893 111.152 20.3242C111.139 20.2591 111.133 20.194 111.133 20.1289C111.133 20.0638 111.133 19.9987 111.133 19.9336C111.133 19.6081 111.204 19.3672 111.348 19.2109C111.491 19.0547 111.738 18.9766 112.09 18.9766C112.22 18.9766 112.376 18.9961 112.559 19.0352C112.754 19.0742 112.943 19.1328 113.125 19.2109C113.32 19.2891 113.496 19.3867 113.652 19.5039C113.809 19.6211 113.913 19.7513 113.965 19.8945H113.945C114.01 20.0247 114.049 20.1484 114.062 20.2656C114.076 20.3828 114.082 20.513 114.082 20.6562Z" fill="white"/>
<path opacity="0.6" d="M99.5117 31.125C99.5117 31.9323 99.3815 32.707 99.1211 33.4492C98.8607 34.2044 98.4961 34.9141 98.0273 35.5781C97.9622 35.6562 97.8906 35.7474 97.8125 35.8516C97.7474 35.9688 97.6693 36.0729 97.5781 36.1641C97.487 36.2682 97.3893 36.3529 97.2852 36.418C97.181 36.4831 97.0768 36.5156 96.9727 36.5156C96.8294 36.5156 96.6602 36.457 96.4648 36.3398C96.2826 36.2357 96.1068 36.1055 95.9375 35.9492C95.7812 35.793 95.651 35.6237 95.5469 35.4414C95.4297 35.2591 95.3711 35.0964 95.3711 34.9531C95.3711 34.849 95.4102 34.7253 95.4883 34.582C95.5664 34.4518 95.6576 34.3151 95.7617 34.1719C95.8529 34.0417 95.9505 33.9115 96.0547 33.7812C96.1589 33.651 96.2435 33.5339 96.3086 33.4297C96.4779 33.1302 96.6081 32.8503 96.6992 32.5898C96.7904 32.3294 96.8555 32.0755 96.8945 31.8281C96.9336 31.5677 96.9596 31.3073 96.9727 31.0469C96.9987 30.7734 97.0378 30.474 97.0898 30.1484C97.1159 29.9141 97.1875 29.7643 97.3047 29.6992C97.4349 29.6341 97.6107 29.6016 97.832 29.6016C98.3659 29.6016 98.776 29.7057 99.0625 29.9141C99.362 30.1094 99.5117 30.513 99.5117 31.125Z" fill="white"/>
<path opacity="0.6" d="M95.8203 29.4258C95.8203 29.8164 95.7096 30.2201 95.4883 30.6367C95.2799 31.0534 95.0065 31.4375 94.668 31.7891C94.3294 32.1276 93.9388 32.4076 93.4961 32.6289C93.0664 32.8503 92.6367 32.9609 92.207 32.9609C91.5951 32.9609 91.0677 32.8438 90.625 32.6094C90.1823 32.362 89.7982 32.0365 89.4727 31.6328C89.1471 31.2161 88.8802 30.7474 88.6719 30.2266C88.4766 29.7057 88.3203 29.1719 88.2031 28.625C88.0859 28.0651 88.0013 27.5117 87.9492 26.9648C87.9102 26.4049 87.8906 25.8971 87.8906 25.4414C87.8906 25.0508 87.9102 24.5885 87.9492 24.0547C88.0013 23.5208 88.0794 22.9674 88.1836 22.3945C88.3008 21.8216 88.457 21.2552 88.6523 20.6953C88.8477 20.1354 89.0885 19.6341 89.375 19.1914C89.6745 18.7487 90.026 18.3906 90.4297 18.1172C90.8464 17.8438 91.3216 17.707 91.8555 17.707C92.2721 17.707 92.6432 17.7917 92.9688 17.9609C93.3073 18.1302 93.5872 18.3581 93.8086 18.6445C94.043 18.918 94.2188 19.237 94.3359 19.6016C94.4661 19.9661 94.5312 20.3438 94.5312 20.7344C94.5312 21.2422 94.4141 21.7956 94.1797 22.3945C93.9453 22.9935 93.6393 23.5729 93.2617 24.1328C92.8971 24.6927 92.4805 25.2005 92.0117 25.6562C91.556 26.099 91.1003 26.4375 90.6445 26.6719C90.6706 26.9062 90.7227 27.2513 90.8008 27.707C90.8789 28.1497 90.9831 28.5924 91.1133 29.0352C91.2565 29.4779 91.4193 29.862 91.6016 30.1875C91.7969 30.513 92.0247 30.6758 92.2852 30.6758C92.4154 30.6758 92.526 30.6367 92.6172 30.5586C92.7214 30.4805 92.8125 30.3763 92.8906 30.2461C92.9688 30.1159 93.0339 29.9727 93.0859 29.8164C93.151 29.6602 93.2096 29.5104 93.2617 29.3672L93.3789 29.0938C93.4049 29.0547 93.418 29.0286 93.418 29.0156C93.431 29.0026 93.444 28.9831 93.457 28.957C93.5482 28.7878 93.6328 28.6315 93.7109 28.4883C93.8021 28.3451 93.9258 28.2214 94.082 28.1172H94.0625C94.1146 28.0651 94.1667 28.0391 94.2188 28.0391C94.2839 28.026 94.3424 28.0195 94.3945 28.0195C94.5378 28.0195 94.694 28.0651 94.8633 28.1562C95.0326 28.2474 95.1888 28.3646 95.332 28.5078C95.4753 28.638 95.5924 28.7878 95.6836 28.957C95.7747 29.1133 95.8203 29.2695 95.8203 29.4258ZM91.9531 20.8125C91.9531 20.6823 91.9466 20.5456 91.9336 20.4023C91.9206 20.2591 91.888 20.1354 91.8359 20.0312C91.6536 20.2526 91.4909 20.5195 91.3477 20.832C91.2174 21.1315 91.1068 21.4505 91.0156 21.7891C90.9245 22.1146 90.8464 22.4466 90.7812 22.7852C90.7292 23.1237 90.6901 23.4362 90.6641 23.7227C91.0026 23.319 91.3021 22.8633 91.5625 22.3555C91.8229 21.8346 91.9531 21.3203 91.9531 20.8125Z" fill="white"/>
<path opacity="0.6" d="M80.4297 33.3125C80.2344 33.3125 80.0195 33.2865 79.7852 33.2344C79.5638 33.1823 79.349 33.0977 79.1406 32.9805C78.9453 32.8633 78.776 32.7201 78.6328 32.5508C78.5026 32.3685 78.4375 32.1536 78.4375 31.9062C78.4375 31.5417 78.4505 31.1836 78.4766 30.832C78.5156 30.4674 78.5547 30.1094 78.5938 29.7578V29.7773L78.7109 28.4688C78.75 28 78.7826 27.4857 78.8086 26.9258C78.8346 26.3659 78.8542 25.7995 78.8672 25.2266C78.8932 24.6406 78.9128 24.0677 78.9258 23.5078C78.9388 22.9479 78.9453 22.4336 78.9453 21.9648C78.9453 21.6914 78.9388 21.418 78.9258 21.1445C78.9258 20.8581 78.9258 20.5716 78.9258 20.2852C78.9128 20.0378 78.9062 19.7643 78.9062 19.4648C78.9062 19.1523 78.9062 18.8659 78.9062 18.6055C78.9062 18.332 78.9388 18.1107 79.0039 17.9414C79.082 17.7591 79.2904 17.668 79.6289 17.668C79.9284 17.668 80.2409 17.7461 80.5664 17.9023C80.9049 18.0586 81.1393 18.2799 81.2695 18.5664H81.25C81.3151 18.7096 81.3607 18.944 81.3867 19.2695C81.4258 19.582 81.4518 19.862 81.4648 20.1094C81.6862 19.7708 81.9336 19.4128 82.207 19.0352C82.4935 18.6576 82.7995 18.3125 83.125 18C83.4505 17.6745 83.7956 17.4076 84.1602 17.1992C84.5247 16.9909 84.9154 16.8867 85.332 16.8867C85.8789 16.8867 86.2956 17.0234 86.582 17.2969C86.8685 17.5703 87.0768 17.9154 87.207 18.332C87.3372 18.7357 87.4089 19.1719 87.4219 19.6406C87.4349 20.0964 87.4414 20.513 87.4414 20.8906V21.0469C87.4414 21.2031 87.4349 21.3594 87.4219 21.5156C87.4219 21.6589 87.3958 21.7956 87.3438 21.9258C87.3047 22.043 87.2266 22.1406 87.1094 22.2188C87.0052 22.2969 86.8555 22.3359 86.6602 22.3359C86.4518 22.3359 86.2305 22.3099 85.9961 22.2578C85.7617 22.1927 85.5404 22.1016 85.332 21.9844C85.1367 21.8672 84.9674 21.724 84.8242 21.5547C84.681 21.3724 84.6029 21.1641 84.5898 20.9297C84.5898 20.8255 84.5898 20.7214 84.5898 20.6172C84.5898 20.513 84.5964 20.4089 84.6094 20.3047C84.6094 20.2396 84.6094 20.1615 84.6094 20.0703C84.6224 19.9661 84.6289 19.8685 84.6289 19.7773C84.2122 20.194 83.8411 20.7083 83.5156 21.3203C83.2031 21.9323 82.9167 22.5833 82.6562 23.2734C82.4089 23.9635 82.194 24.6602 82.0117 25.3633C81.8294 26.0534 81.6732 26.6784 81.543 27.2383V27.2969C81.5039 27.7005 81.4779 28.0977 81.4648 28.4883C81.4518 28.8789 81.4388 29.2826 81.4258 29.6992C81.4128 30.168 81.3932 30.6432 81.3672 31.125C81.3542 31.6068 81.3216 32.0755 81.2695 32.5312C81.2435 32.7786 81.1654 32.9674 81.0352 33.0977C80.918 33.2409 80.7161 33.3125 80.4297 33.3125Z" fill="white"/>
<path opacity="0.6" d="M77.6953 29.4258C77.6953 29.8164 77.5846 30.2201 77.3633 30.6367C77.1549 31.0534 76.8815 31.4375 76.543 31.7891C76.2044 32.1276 75.8138 32.4076 75.3711 32.6289C74.9414 32.8503 74.5117 32.9609 74.082 32.9609C73.4701 32.9609 72.9427 32.8438 72.5 32.6094C72.0573 32.362 71.6732 32.0365 71.3477 31.6328C71.0221 31.2161 70.7552 30.7474 70.5469 30.2266C70.3516 29.7057 70.1953 29.1719 70.0781 28.625C69.9609 28.0651 69.8763 27.5117 69.8242 26.9648C69.7852 26.4049 69.7656 25.8971 69.7656 25.4414C69.7656 25.0508 69.7852 24.5885 69.8242 24.0547C69.8763 23.5208 69.9544 22.9674 70.0586 22.3945C70.1758 21.8216 70.332 21.2552 70.5273 20.6953C70.7227 20.1354 70.9635 19.6341 71.25 19.1914C71.5495 18.7487 71.901 18.3906 72.3047 18.1172C72.7214 17.8438 73.1966 17.707 73.7305 17.707C74.1471 17.707 74.5182 17.7917 74.8438 17.9609C75.1823 18.1302 75.4622 18.3581 75.6836 18.6445C75.918 18.918 76.0938 19.237 76.2109 19.6016C76.3411 19.9661 76.4062 20.3438 76.4062 20.7344C76.4062 21.2422 76.2891 21.7956 76.0547 22.3945C75.8203 22.9935 75.5143 23.5729 75.1367 24.1328C74.7721 24.6927 74.3555 25.2005 73.8867 25.6562C73.431 26.099 72.9753 26.4375 72.5195 26.6719C72.5456 26.9062 72.5977 27.2513 72.6758 27.707C72.7539 28.1497 72.8581 28.5924 72.9883 29.0352C73.1315 29.4779 73.2943 29.862 73.4766 30.1875C73.6719 30.513 73.8997 30.6758 74.1602 30.6758C74.2904 30.6758 74.401 30.6367 74.4922 30.5586C74.5964 30.4805 74.6875 30.3763 74.7656 30.2461C74.8438 30.1159 74.9089 29.9727 74.9609 29.8164C75.026 29.6602 75.0846 29.5104 75.1367 29.3672L75.2539 29.0938C75.2799 29.0547 75.293 29.0286 75.293 29.0156C75.306 29.0026 75.319 28.9831 75.332 28.957C75.4232 28.7878 75.5078 28.6315 75.5859 28.4883C75.6771 28.3451 75.8008 28.2214 75.957 28.1172H75.9375C75.9896 28.0651 76.0417 28.0391 76.0938 28.0391C76.1589 28.026 76.2174 28.0195 76.2695 28.0195C76.4128 28.0195 76.569 28.0651 76.7383 28.1562C76.9076 28.2474 77.0638 28.3646 77.207 28.5078C77.3503 28.638 77.4674 28.7878 77.5586 28.957C77.6497 29.1133 77.6953 29.2695 77.6953 29.4258ZM73.8281 20.8125C73.8281 20.6823 73.8216 20.5456 73.8086 20.4023C73.7956 20.2591 73.763 20.1354 73.7109 20.0312C73.5286 20.2526 73.3659 20.5195 73.2227 20.832C73.0924 21.1315 72.9818 21.4505 72.8906 21.7891C72.7995 22.1146 72.7214 22.4466 72.6562 22.7852C72.6042 23.1237 72.5651 23.4362 72.5391 23.7227C72.8776 23.319 73.1771 22.8633 73.4375 22.3555C73.6979 21.8346 73.8281 21.3203 73.8281 20.8125Z" fill="white"/>
<path opacity="0.6" d="M68.457 31.9453C68.457 32.2057 68.3724 32.3945 68.2031 32.5117C68.0339 32.6289 67.8255 32.6875 67.5781 32.6875C67.4219 32.6875 67.2591 32.6745 67.0898 32.6484C66.9206 32.6094 66.7578 32.5703 66.6016 32.5312C66.3281 32.4531 66.1133 32.3555 65.957 32.2383C65.8138 32.1211 65.7031 31.9909 65.625 31.8477C65.5469 31.6914 65.4948 31.5221 65.4688 31.3398C65.4557 31.1576 65.4427 30.9557 65.4297 30.7344C65.4297 30.6693 65.4232 30.6107 65.4102 30.5586C65.4102 30.5065 65.4102 30.4544 65.4102 30.4023C65.3711 29.6602 65.332 28.8984 65.293 28.1172C65.2669 27.3359 65.2539 26.5742 65.2539 25.832C65.2539 25.4544 65.2539 25.0768 65.2539 24.6992C65.2669 24.3216 65.2799 23.944 65.293 23.5664C65.306 23.1888 65.3125 22.8177 65.3125 22.4531C65.3255 22.0755 65.332 21.6979 65.332 21.3203C65.332 21.2422 65.3255 21.1706 65.3125 21.1055C65.3125 21.0273 65.306 20.9492 65.293 20.8711C64.9544 21.3659 64.6549 21.9193 64.3945 22.5312C64.1471 23.1302 63.9258 23.7552 63.7305 24.4062C63.5352 25.0443 63.3659 25.6888 63.2227 26.3398C63.0924 26.9779 62.9818 27.5898 62.8906 28.1758L62.832 28.5859C62.7669 29.0417 62.7018 29.5104 62.6367 29.9922C62.5716 30.4609 62.5391 30.9297 62.5391 31.3984C62.5391 31.5938 62.5716 31.8086 62.6367 32.043C62.6628 32.1471 62.6823 32.2513 62.6953 32.3555C62.7214 32.4466 62.7344 32.5638 62.7344 32.707C62.7344 33.0195 62.6562 33.2279 62.5 33.332C62.3438 33.4492 62.1354 33.5078 61.875 33.5078C61.7188 33.5078 61.543 33.4948 61.3477 33.4688C61.1654 33.4427 60.9831 33.3971 60.8008 33.332C60.6315 33.2799 60.4688 33.2083 60.3125 33.1172C60.1562 33.026 60.0326 32.9089 59.9414 32.7656C59.8633 32.5964 59.7852 32.1471 59.707 31.418C59.6419 30.6888 59.5768 29.7839 59.5117 28.7031C59.4596 27.6224 59.4076 26.4115 59.3555 25.0703C59.3034 23.7161 59.2513 22.3294 59.1992 20.9102C59.1602 19.4909 59.1211 18.0846 59.082 16.6914C59.056 15.2982 59.0299 14.0156 59.0039 12.8438C58.9909 11.6719 58.9779 10.6562 58.9648 9.79688C58.9518 8.92448 58.9453 8.3125 58.9453 7.96094C58.9453 7.70052 58.9779 7.46615 59.043 7.25781C59.1211 7.03646 59.3294 6.92578 59.668 6.92578C60.0195 6.92578 60.3516 7.01042 60.6641 7.17969C60.9766 7.33594 61.2044 7.58333 61.3477 7.92188C61.3737 7.97396 61.3997 8.1888 61.4258 8.56641C61.4518 8.93099 61.4779 9.40625 61.5039 9.99219C61.5299 10.5651 61.556 11.2292 61.582 11.9844C61.6081 12.7266 61.6341 13.5013 61.6602 14.3086C61.6862 15.1029 61.7122 15.9036 61.7383 16.7109C61.7643 17.5182 61.7904 18.2734 61.8164 18.9766L61.9141 21.8672C62.0703 21.4635 62.2656 21.0404 62.5 20.5977C62.7344 20.1549 63.0013 19.7513 63.3008 19.3867C63.6133 19.0221 63.9583 18.7227 64.3359 18.4883C64.7266 18.2539 65.1562 18.1367 65.625 18.1367C66.1979 18.1367 66.6471 18.2865 66.9727 18.5859C67.2982 18.8854 67.5391 19.2565 67.6953 19.6992C67.8646 20.1419 67.9688 20.6172 68.0078 21.125C68.0469 21.6328 68.0664 22.0951 68.0664 22.5117C68.0664 22.7721 68.0599 23.026 68.0469 23.2734C68.0469 23.5208 68.0404 23.7682 68.0273 24.0156C68.0143 24.276 68.0013 24.5365 67.9883 24.7969C67.9883 25.0443 67.9883 25.2982 67.9883 25.5586C67.9883 26.457 68.0078 27.3815 68.0469 28.332C68.0859 29.2695 68.1836 30.194 68.3398 31.1055L68.3789 31.3789C68.4049 31.457 68.4245 31.5482 68.4375 31.6523C68.4505 31.7565 68.457 31.8542 68.457 31.9453Z" fill="white"/>
<path opacity="0.6" d="M55.6641 32.5117C55.6641 32.6549 55.6315 32.7786 55.5664 32.8828C55.5013 32.974 55.4167 33.0456 55.3125 33.0977C55.2214 33.1497 55.1172 33.1823 55 33.1953C54.8958 33.2214 54.7917 33.2344 54.6875 33.2344C54.5443 33.2344 54.375 33.2148 54.1797 33.1758C53.9974 33.1497 53.8151 33.1042 53.6328 33.0391C53.4505 32.974 53.2812 32.8958 53.125 32.8047C52.9818 32.7005 52.8711 32.5768 52.793 32.4336C52.7148 32.3034 52.6432 32.0625 52.5781 31.7109C52.526 31.3464 52.4805 30.9297 52.4414 30.4609C52.4023 29.9792 52.3698 29.4714 52.3438 28.9375C52.3177 28.3906 52.2917 27.8698 52.2656 27.375C52.2526 26.8802 52.2396 26.4375 52.2266 26.0469C52.2266 25.6432 52.2266 25.3438 52.2266 25.1484C52.2266 24.237 52.2396 23.3581 52.2656 22.5117C52.3047 21.6523 52.3438 20.7734 52.3828 19.875C52.3177 19.875 52.2526 19.8815 52.1875 19.8945C52.1224 19.9076 52.0573 19.9141 51.9922 19.9141C51.8229 19.9401 51.6471 19.9596 51.4648 19.9727C51.2956 19.9857 51.1198 19.9922 50.9375 19.9922C50.7161 19.9922 50.5208 19.9531 50.3516 19.875C50.1823 19.7969 50.0977 19.6211 50.0977 19.3477C50.0977 19.0221 50.1693 18.7617 50.3125 18.5664C50.4557 18.3711 50.638 18.2214 50.8594 18.1172C51.0807 18 51.3216 17.9219 51.582 17.8828C51.8424 17.8307 52.0964 17.7917 52.3438 17.7656C52.3828 17.7656 52.4089 17.7656 52.4219 17.7656C52.4349 17.7526 52.4609 17.7461 52.5 17.7461C52.513 17.5898 52.526 17.401 52.5391 17.1797C52.5521 16.9453 52.5651 16.6914 52.5781 16.418C52.5911 15.9883 52.6107 15.5326 52.6367 15.0508C52.6628 14.556 52.6888 14.0872 52.7148 13.6445C52.7409 13.1888 52.7734 12.7917 52.8125 12.4531C52.8516 12.1016 52.8906 11.8542 52.9297 11.7109C52.9948 11.5417 53.0664 11.4049 53.1445 11.3008C53.2357 11.1966 53.3984 11.1445 53.6328 11.1445C54.1536 11.1445 54.5573 11.3138 54.8438 11.6523C55.1302 11.9909 55.2734 12.4076 55.2734 12.9023C55.2734 13.4753 55.2539 14.0482 55.2148 14.6211C55.1888 15.194 55.1628 15.7734 55.1367 16.3594L55.0781 17.3555C55.4036 17.3164 55.7292 17.2578 56.0547 17.1797C56.3672 17.1146 56.6797 17.056 56.9922 17.0039C57.3177 16.9518 57.6302 16.9258 57.9297 16.9258C58.1901 16.9258 58.3919 16.9974 58.5352 17.1406C58.6784 17.2708 58.75 17.4661 58.75 17.7266C58.75 18.013 58.6979 18.293 58.5938 18.5664C58.4896 18.8398 58.3073 19.0482 58.0469 19.1914H58.0664C58.0143 19.2174 57.8581 19.2565 57.5977 19.3086C57.3372 19.3477 57.0378 19.3867 56.6992 19.4258C56.3737 19.4648 56.0482 19.5039 55.7227 19.543C55.4102 19.582 55.1758 19.6081 55.0195 19.6211H55C54.974 20.3503 54.9544 21.0729 54.9414 21.7891C54.9284 22.4922 54.9219 23.2083 54.9219 23.9375C54.9219 24.9401 54.9479 26.0078 55 27.1406C55.0651 28.2604 55.1693 29.3281 55.3125 30.3438L55.4688 31.2227C55.5208 31.444 55.5664 31.6654 55.6055 31.8867C55.6445 32.0951 55.6641 32.3034 55.6641 32.5117Z" fill="white"/>
<path opacity="0.6" d="M44.0625 24.9922C44.0625 26.125 43.9648 27.2578 43.7695 28.3906C43.5872 29.5104 43.2031 30.5716 42.6172 31.5742C42.4349 31.8737 42.2266 32.1667 41.9922 32.4531C41.7578 32.7266 41.4974 32.974 41.2109 33.1953C40.9375 33.4297 40.6315 33.612 40.293 33.7422C39.9674 33.8854 39.6224 33.957 39.2578 33.957C38.6849 33.957 38.1836 33.8203 37.7539 33.5469C37.3372 33.2865 36.9727 32.9414 36.6602 32.5117C36.3607 32.069 36.1068 31.5742 35.8984 31.0273C35.7031 30.4674 35.5469 29.901 35.4297 29.3281C35.3255 28.7422 35.2474 28.1758 35.1953 27.6289C35.1562 27.082 35.1367 26.6003 35.1367 26.1836C35.1367 25.7148 35.1562 25.2005 35.1953 24.6406C35.2344 24.0807 35.2995 23.5078 35.3906 22.9219C35.4948 22.3359 35.625 21.7565 35.7812 21.1836C35.9505 20.6107 36.1654 20.0768 36.4258 19.582C36.6862 19.0742 36.9987 18.625 37.3633 18.2344C37.7279 17.8307 38.151 17.5117 38.6328 17.2773V17.2969C39.0495 17.0755 39.4661 16.9648 39.8828 16.9648C40.1432 16.9648 40.3451 17.0234 40.4883 17.1406C40.6315 17.2448 40.6966 17.4271 40.6836 17.6875C41.3997 17.8177 41.9792 18.1628 42.4219 18.7227C42.8646 19.2826 43.2031 19.9336 43.4375 20.6758C43.6849 21.418 43.8477 22.1797 43.9258 22.9609C44.0169 23.7422 44.0625 24.4193 44.0625 24.9922ZM39.6484 20.1094C39.4271 20.1094 39.2188 20.0247 39.0234 19.8555C38.776 20.2331 38.5677 20.6693 38.3984 21.1641C38.2292 21.6458 38.0924 22.1471 37.9883 22.668C37.8971 23.1758 37.832 23.6901 37.793 24.2109C37.7539 24.7318 37.7344 25.2201 37.7344 25.6758C37.7344 26.0534 37.7539 26.5417 37.793 27.1406C37.832 27.7266 37.9036 28.319 38.0078 28.918C38.125 29.5169 38.2812 30.0768 38.4766 30.5977C38.6849 31.1185 38.9518 31.5026 39.2773 31.75C39.681 31.5156 40.013 31.1445 40.2734 30.6367C40.5469 30.1159 40.7617 29.5495 40.918 28.9375C41.0742 28.3255 41.1784 27.707 41.2305 27.082C41.2956 26.457 41.3281 25.9232 41.3281 25.4805C41.3281 25.1549 41.3086 24.7318 41.2695 24.2109C41.2305 23.6901 41.1654 23.1628 41.0742 22.6289C40.9831 22.082 40.8529 21.5742 40.6836 21.1055C40.5273 20.6367 40.3255 20.2852 40.0781 20.0508C39.9609 20.0898 39.8177 20.1094 39.6484 20.1094Z" fill="white"/>
<path opacity="0.6" d="M35.0195 33.5664C35.0195 33.7487 34.974 33.8984 34.8828 34.0156C34.7917 34.1328 34.6745 34.224 34.5312 34.2891C34.401 34.3672 34.2513 34.4193 34.082 34.4453C33.9258 34.4844 33.7826 34.5039 33.6523 34.5039C33.1966 34.5039 32.7995 34.3737 32.4609 34.1133C32.1224 33.8529 31.8294 33.5143 31.582 33.0977C31.3346 32.694 31.1328 32.2318 30.9766 31.7109C30.8203 31.1771 30.6901 30.6497 30.5859 30.1289C30.4818 29.5951 30.4036 29.0872 30.3516 28.6055C30.2995 28.1107 30.2604 27.6875 30.2344 27.3359C30.1172 26.125 30.0326 24.8945 29.9805 23.6445C29.9414 22.3945 29.9219 21.1576 29.9219 19.9336C29.9219 16.5872 30.0391 13.2734 30.2734 9.99219C30.2734 9.9401 30.2734 9.88151 30.2734 9.81641C30.2865 9.7513 30.293 9.6862 30.293 9.62109C30.306 9.34766 30.319 9.03516 30.332 8.68359C30.3451 8.31901 30.3646 7.96094 30.3906 7.60938C30.4167 7.25781 30.4427 6.9388 30.4688 6.65234C30.5078 6.35286 30.5534 6.14453 30.6055 6.02734V6.04688C30.6576 5.86458 30.7292 5.72786 30.8203 5.63672C30.9115 5.54557 31.0677 5.5 31.2891 5.5C31.7578 5.5 32.1549 5.65625 32.4805 5.96875C32.806 6.28125 32.9688 6.67188 32.9688 7.14062C32.9688 7.24479 32.9622 7.34896 32.9492 7.45312C32.9492 7.54427 32.9427 7.63542 32.9297 7.72656C32.9167 7.81771 32.9036 7.90885 32.8906 8C32.8906 8.07812 32.8906 8.14974 32.8906 8.21484C32.8516 8.72266 32.819 9.23047 32.793 9.73828C32.7799 10.2331 32.7604 10.7344 32.7344 11.2422C32.6693 12.362 32.6172 13.4818 32.5781 14.6016C32.5521 15.7083 32.5391 16.8281 32.5391 17.9609C32.5391 18.4427 32.5456 19.0742 32.5586 19.8555C32.5716 20.6367 32.5977 21.4896 32.6367 22.4141C32.6758 23.3255 32.7279 24.2695 32.793 25.2461C32.8711 26.2227 32.9688 27.1536 33.0859 28.0391C33.2031 28.9245 33.3398 29.7253 33.4961 30.4414C33.6654 31.1576 33.8607 31.7109 34.082 32.1016C34.1992 32.1536 34.3099 32.2383 34.4141 32.3555C34.5312 32.4596 34.6289 32.5833 34.707 32.7266C34.7982 32.8568 34.8698 32.9935 34.9219 33.1367C34.987 33.293 35.0195 33.4362 35.0195 33.5664Z" fill="white"/>
<path opacity="0.6" d="M29.5117 33.5664C29.5117 33.7487 29.4661 33.8984 29.375 34.0156C29.2839 34.1328 29.1667 34.224 29.0234 34.2891C28.8932 34.3672 28.7435 34.4193 28.5742 34.4453C28.418 34.4844 28.2747 34.5039 28.1445 34.5039C27.6888 34.5039 27.2917 34.3737 26.9531 34.1133C26.6146 33.8529 26.3216 33.5143 26.0742 33.0977C25.8268 32.694 25.625 32.2318 25.4688 31.7109C25.3125 31.1771 25.1823 30.6497 25.0781 30.1289C24.974 29.5951 24.8958 29.0872 24.8438 28.6055C24.7917 28.1107 24.7526 27.6875 24.7266 27.3359C24.6094 26.125 24.5247 24.8945 24.4727 23.6445C24.4336 22.3945 24.4141 21.1576 24.4141 19.9336C24.4141 16.5872 24.5312 13.2734 24.7656 9.99219C24.7656 9.9401 24.7656 9.88151 24.7656 9.81641C24.7786 9.7513 24.7852 9.6862 24.7852 9.62109C24.7982 9.34766 24.8112 9.03516 24.8242 8.68359C24.8372 8.31901 24.8568 7.96094 24.8828 7.60938C24.9089 7.25781 24.9349 6.9388 24.9609 6.65234C25 6.35286 25.0456 6.14453 25.0977 6.02734V6.04688C25.1497 5.86458 25.2214 5.72786 25.3125 5.63672C25.4036 5.54557 25.5599 5.5 25.7812 5.5C26.25 5.5 26.6471 5.65625 26.9727 5.96875C27.2982 6.28125 27.4609 6.67188 27.4609 7.14062C27.4609 7.24479 27.4544 7.34896 27.4414 7.45312C27.4414 7.54427 27.4349 7.63542 27.4219 7.72656C27.4089 7.81771 27.3958 7.90885 27.3828 8C27.3828 8.07812 27.3828 8.14974 27.3828 8.21484C27.3438 8.72266 27.3112 9.23047 27.2852 9.73828C27.2721 10.2331 27.2526 10.7344 27.2266 11.2422C27.1615 12.362 27.1094 13.4818 27.0703 14.6016C27.0443 15.7083 27.0312 16.8281 27.0312 17.9609C27.0312 18.4427 27.0378 19.0742 27.0508 19.8555C27.0638 20.6367 27.0898 21.4896 27.1289 22.4141C27.168 23.3255 27.2201 24.2695 27.2852 25.2461C27.3633 26.2227 27.4609 27.1536 27.5781 28.0391C27.6953 28.9245 27.832 29.7253 27.9883 30.4414C28.1576 31.1576 28.3529 31.7109 28.5742 32.1016C28.6914 32.1536 28.8021 32.2383 28.9062 32.3555C29.0234 32.4596 29.1211 32.5833 29.1992 32.7266C29.2904 32.8568 29.362 32.9935 29.4141 33.1367C29.4792 33.293 29.5117 33.4362 29.5117 33.5664Z" fill="white"/>
<path opacity="0.6" d="M23.6328 29.4258C23.6328 29.8164 23.5221 30.2201 23.3008 30.6367C23.0924 31.0534 22.819 31.4375 22.4805 31.7891C22.1419 32.1276 21.7513 32.4076 21.3086 32.6289C20.8789 32.8503 20.4492 32.9609 20.0195 32.9609C19.4076 32.9609 18.8802 32.8438 18.4375 32.6094C17.9948 32.362 17.6107 32.0365 17.2852 31.6328C16.9596 31.2161 16.6927 30.7474 16.4844 30.2266C16.2891 29.7057 16.1328 29.1719 16.0156 28.625C15.8984 28.0651 15.8138 27.5117 15.7617 26.9648C15.7227 26.4049 15.7031 25.8971 15.7031 25.4414C15.7031 25.0508 15.7227 24.5885 15.7617 24.0547C15.8138 23.5208 15.8919 22.9674 15.9961 22.3945C16.1133 21.8216 16.2695 21.2552 16.4648 20.6953C16.6602 20.1354 16.901 19.6341 17.1875 19.1914C17.487 18.7487 17.8385 18.3906 18.2422 18.1172C18.6589 17.8438 19.1341 17.707 19.668 17.707C20.0846 17.707 20.4557 17.7917 20.7812 17.9609C21.1198 18.1302 21.3997 18.3581 21.6211 18.6445C21.8555 18.918 22.0312 19.237 22.1484 19.6016C22.2786 19.9661 22.3438 20.3438 22.3438 20.7344C22.3438 21.2422 22.2266 21.7956 21.9922 22.3945C21.7578 22.9935 21.4518 23.5729 21.0742 24.1328C20.7096 24.6927 20.293 25.2005 19.8242 25.6562C19.3685 26.099 18.9128 26.4375 18.457 26.6719C18.4831 26.9062 18.5352 27.2513 18.6133 27.707C18.6914 28.1497 18.7956 28.5924 18.9258 29.0352C19.069 29.4779 19.2318 29.862 19.4141 30.1875C19.6094 30.513 19.8372 30.6758 20.0977 30.6758C20.2279 30.6758 20.3385 30.6367 20.4297 30.5586C20.5339 30.4805 20.625 30.3763 20.7031 30.2461C20.7812 30.1159 20.8464 29.9727 20.8984 29.8164C20.9635 29.6602 21.0221 29.5104 21.0742 29.3672L21.1914 29.0938C21.2174 29.0547 21.2305 29.0286 21.2305 29.0156C21.2435 29.0026 21.2565 28.9831 21.2695 28.957C21.3607 28.7878 21.4453 28.6315 21.5234 28.4883C21.6146 28.3451 21.7383 28.2214 21.8945 28.1172H21.875C21.9271 28.0651 21.9792 28.0391 22.0312 28.0391C22.0964 28.026 22.1549 28.0195 22.207 28.0195C22.3503 28.0195 22.5065 28.0651 22.6758 28.1562C22.8451 28.2474 23.0013 28.3646 23.1445 28.5078C23.2878 28.638 23.4049 28.7878 23.4961 28.957C23.5872 29.1133 23.6328 29.2695 23.6328 29.4258ZM19.7656 20.8125C19.7656 20.6823 19.7591 20.5456 19.7461 20.4023C19.7331 20.2591 19.7005 20.1354 19.6484 20.0312C19.4661 20.2526 19.3034 20.5195 19.1602 20.832C19.0299 21.1315 18.9193 21.4505 18.8281 21.7891C18.737 22.1146 18.6589 22.4466 18.5938 22.7852C18.5417 23.1237 18.5026 23.4362 18.4766 23.7227C18.8151 23.319 19.1146 22.8633 19.375 22.3555C19.6354 21.8346 19.7656 21.3203 19.7656 20.8125Z" fill="white"/>
<path opacity="0.6" d="M15.0781 17.8047C15.0781 18.3906 14.9284 18.8073 14.6289 19.0547C14.3294 19.2891 13.9062 19.4583 13.3594 19.5625C13.4766 21.5677 13.5482 23.5599 13.5742 25.5391C13.6133 27.5182 13.6328 29.5104 13.6328 31.5156C13.6328 31.8281 13.5677 32.069 13.4375 32.2383C13.3073 32.4076 13.0729 32.4922 12.7344 32.4922C12.4479 32.4922 12.1615 32.4596 11.875 32.3945C11.6016 32.3294 11.3542 32.2318 11.1328 32.1016C10.9115 31.9583 10.7292 31.776 10.5859 31.5547C10.4557 31.3203 10.3906 31.0339 10.3906 30.6953V24.6016C10.3906 23.8333 10.3906 23.0651 10.3906 22.2969C10.3906 21.5286 10.3776 20.7604 10.3516 19.9922C9.23177 20.1484 8.11198 20.2852 6.99219 20.4023C5.8724 20.5065 4.7526 20.5781 3.63281 20.6172C3.67188 23.3906 3.75 26.1641 3.86719 28.9375C3.90625 29.5104 3.94531 30.0703 3.98438 30.6172C4.03646 31.1641 4.0625 31.7109 4.0625 32.2578C4.0625 32.5182 3.99089 32.7135 3.84766 32.8438C3.70443 32.974 3.5026 33.0391 3.24219 33.0391C3.04688 33.0391 2.83854 33.026 2.61719 33C2.39583 32.9609 2.17448 32.9023 1.95312 32.8242C1.74479 32.7461 1.54948 32.6484 1.36719 32.5312C1.1849 32.4141 1.04167 32.2708 0.9375 32.1016C0.898438 32.0365 0.865885 31.8411 0.839844 31.5156C0.813802 31.1901 0.78776 30.7799 0.761719 30.2852C0.748698 29.7904 0.735677 29.2305 0.722656 28.6055C0.709635 27.9805 0.703125 27.3359 0.703125 26.6719C0.703125 26.0078 0.703125 25.3568 0.703125 24.7188C0.703125 24.0677 0.703125 23.4688 0.703125 22.9219C0.703125 22.375 0.703125 21.8997 0.703125 21.4961C0.703125 21.0924 0.703125 20.8125 0.703125 20.6562C0.520833 20.6562 0.358073 20.6172 0.214844 20.5391C0.0716146 20.4479 0 20.3047 0 20.1094C0 19.875 0.0651042 19.6536 0.195312 19.4453C0.338542 19.224 0.507812 19.0417 0.703125 18.8984V7.10156C0.703125 6.84115 0.748698 6.63281 0.839844 6.47656C0.94401 6.32031 1.13281 6.24219 1.40625 6.24219C1.84896 6.24219 2.20052 6.30729 2.46094 6.4375C2.73438 6.56771 2.9362 6.75 3.06641 6.98438C3.20964 7.20573 3.30078 7.47917 3.33984 7.80469C3.39193 8.11719 3.42448 8.45573 3.4375 8.82031C3.47656 10.4089 3.5026 11.9974 3.51562 13.5859C3.52865 15.1745 3.55469 16.763 3.59375 18.3516C4.71354 18.2474 5.82682 18.1432 6.93359 18.0391C8.04036 17.9219 9.15365 17.7526 10.2734 17.5312C10.2083 16.151 10.1237 14.7839 10.0195 13.4297C9.92839 12.0755 9.79167 10.7083 9.60938 9.32812C9.50521 8.67708 9.38151 8.03255 9.23828 7.39453C9.09505 6.74349 9.02344 6.08594 9.02344 5.42188C9.02344 5.1875 9.10807 5.03776 9.27734 4.97266C9.45964 4.90755 9.64844 4.875 9.84375 4.875C10.1562 4.875 10.4688 4.92708 10.7812 5.03125C11.1068 5.13542 11.3672 5.31771 11.5625 5.57812C11.6797 5.7474 11.8034 6.10547 11.9336 6.65234C12.0638 7.1862 12.181 7.82422 12.2852 8.56641C12.4023 9.30859 12.513 10.1094 12.6172 10.9688C12.7214 11.8281 12.8125 12.6549 12.8906 13.4492C12.9688 14.2305 13.0339 14.9401 13.0859 15.5781C13.151 16.2031 13.1901 16.6589 13.2031 16.9453C13.3594 16.9062 13.5221 16.8737 13.6914 16.8477C13.8607 16.8086 14.0234 16.7891 14.1797 16.7891C14.4922 16.7891 14.7201 16.8867 14.8633 17.082C15.0065 17.2643 15.0781 17.5052 15.0781 17.8047Z" fill="white"/>
<path d="M198.634 29.0899C198.634 29.0899 197.741 31.3406 197.273 32.2025C197.398 33.4928 203.444 36.1094 204.168 35.7275C204.519 34.8139 204.733 34.2028 205.118 33.7655C206.728 30.9768 200.077 26.8084 198.634 29.0899Z" fill="#F0D3D8" stroke="#E9B490" stroke-opacity="0.979118" stroke-linecap="round" stroke-linejoin="round"/>
<path d="M199.28 29.685C197.601 27.9618 196.325 25.2728 196.182 23.3871C196.04 21.5013 195.119 18.4411 194.882 16.5077C194.804 15.8173 194.135 14.1137 194.482 13.4216C194.752 12.8855 195.863 12.7569 196.983 14.1831C198.075 15.3734 198.537 16.5854 198.649 18.139C198.694 18.8139 198.811 20.2499 199.716 20.6213C200.621 20.9927 201.529 20.0076 201.949 19.456C202.368 18.9044 202.764 17.9093 203.294 16.7226C203.825 15.5359 203.702 14.4629 204.558 12.1329C205.006 10.9129 205.55 9.78211 205.966 8.49704C206.398 7.28807 207.455 4.9906 208.633 5.62411C209.908 6.30928 208.874 8.36337 208.506 9.28677C207.902 10.8041 207.62 12.0956 207.314 13.4625C207.136 14.253 206.488 15.5752 206.18 17.1204C206.159 17.2261 206.572 17.3558 206.618 17.2488C207.185 15.9447 207.61 14.5281 208.23 12.9162C208.881 11.6219 209.407 10.4556 209.94 9.18349C210.561 8.03345 211.249 6.03163 212.405 5.82932C212.944 5.75048 213.572 6.11405 213.703 6.60162C213.783 7.82224 213.239 8.76278 212.689 9.83479C211.922 11.3288 211.502 13.0468 210.966 14.331C210.374 15.7042 209.59 17.0573 209.027 18.28C208.909 18.5382 209.243 18.7899 209.428 18.5394C210.059 17.6848 210.641 16.642 211.198 15.8777C212.08 14.6685 212.662 13.6263 213.364 12.4821C213.903 11.6045 214.249 10.5456 214.935 9.82175C215.854 8.85342 217.339 9.76251 217.018 10.8997C216.774 11.7622 216.352 12.4506 216.018 13.1185C215.787 13.5804 215.17 14.4996 214.65 15.488C214.238 16.2712 213.703 17.0451 213.2 17.7721C212.545 18.7184 211.838 20.0131 211.611 20.6949C211.519 20.9683 211.645 21.3655 211.783 21.2585C212.27 20.883 212.681 20.2568 213.345 19.5757C214.223 18.675 214.869 17.8724 215.702 17.0966C216.501 16.1966 217.234 15.0625 218.054 14.9986C218.482 14.9653 218.955 15.1832 219.113 15.7321C219.354 16.5645 218.016 18.1563 217.233 19.2202C216.672 19.9818 215.95 20.8193 215.299 21.6107C214.245 22.8917 213.55 23.8217 212.822 24.9831C210.684 28.2755 207.948 32.8384 205 33.7876C204.836 33.8333 204.385 33.9138 204.01 33.5494" fill="#F0D3D8"/>
<path d="M199.28 29.685C197.601 27.9618 196.325 25.2728 196.182 23.3871C196.04 21.5013 195.119 18.4411 194.882 16.5077C194.804 15.8173 194.135 14.1137 194.482 13.4216C194.752 12.8855 195.863 12.7569 196.983 14.1831C198.075 15.3734 198.537 16.5854 198.649 18.139C198.694 18.8139 198.811 20.2499 199.716 20.6213C200.621 20.9927 201.529 20.0076 201.949 19.456C202.368 18.9044 202.764 17.9093 203.294 16.7226C203.825 15.5359 203.702 14.4629 204.558 12.1329C205.006 10.9129 205.55 9.78211 205.966 8.49704C206.398 7.28807 207.455 4.9906 208.633 5.62411C209.908 6.30928 208.874 8.36337 208.506 9.28677C207.902 10.8041 207.62 12.0956 207.314 13.4625C207.136 14.253 206.488 15.5752 206.18 17.1204C206.159 17.2261 206.572 17.3558 206.618 17.2488C207.185 15.9447 207.61 14.5281 208.23 12.9162C208.881 11.6219 209.407 10.4556 209.94 9.18349C210.561 8.03345 211.249 6.03163 212.405 5.82932C212.944 5.75048 213.572 6.11405 213.703 6.60162C213.783 7.82224 213.239 8.76278 212.689 9.83479C211.922 11.3288 211.502 13.0468 210.966 14.331C210.374 15.7042 209.59 17.0573 209.027 18.28C208.909 18.5382 209.243 18.7899 209.428 18.5394C210.059 17.6848 210.641 16.642 211.198 15.8777C212.08 14.6685 212.662 13.6263 213.364 12.4821C213.903 11.6045 214.249 10.5456 214.935 9.82175C215.854 8.85342 217.339 9.76251 217.018 10.8997C216.774 11.7622 216.352 12.4506 216.018 13.1185C215.787 13.5804 215.17 14.4996 214.65 15.488C214.238 16.2712 213.703 17.0451 213.2 17.7721C212.545 18.7184 211.838 20.0131 211.611 20.6949C211.519 20.9683 211.645 21.3655 211.783 21.2585C212.27 20.883 212.681 20.2568 213.345 19.5757C214.223 18.675 214.869 17.8724 215.702 17.0966C216.501 16.1966 217.234 15.0625 218.054 14.9986C218.482 14.9653 218.955 15.1832 219.113 15.7321C219.354 16.5645 218.016 18.1563 217.233 19.2202C216.672 19.9818 215.95 20.8193 215.299 21.6107C214.245 22.8917 213.55 23.8217 212.822 24.9831C210.684 28.2755 207.948 32.8384 205 33.7876C204.836 33.8333 204.385 33.9138 204.01 33.5494" stroke="#E9B490" stroke-opacity="0.979118" stroke-linecap="round" stroke-linejoin="round"/>
<path d="M202.858 21.5259C204.042 22.8607 204.594 25.9506 203.945 27.9666L202.858 21.5259Z" fill="#F0D3D8"/>
<path d="M202.858 21.5259C204.042 22.8607 204.594 25.9506 203.945 27.9666" stroke="#E9B490" stroke-opacity="0.979118" stroke-linecap="round" stroke-linejoin="round"/>
<path d="M200.944 9.04998C200.735 7.05398 201.777 4.64139 203.735 3.68487M198.228 6.78051C198.143 5.43948 198.96 3.45904 200.403 2.49908" stroke="white" stroke-opacity="0.4" stroke-linecap="round"/>
<path d="M219.139 24.7638C221.015 24.0507 222.699 22.0331 222.67 19.8544M222.389 26.1656C223.625 25.6368 225.024 24.0143 225.23 22.2935" stroke="white" stroke-opacity="0.4" stroke-linecap="round"/>
</svg>
