<svg width="310" height="80" viewBox="0 0 310 80" fill="none" xmlns="http://www.w3.org/2000/svg">
<path opacity="0.6" d="M57.4453 17.8047C57.4453 18.3906 57.2956 18.8073 56.9961 19.0547C56.6966 19.2891 56.2734 19.4583 55.7266 19.5625C55.8438 21.5677 55.9154 23.5599 55.9414 25.5391C55.9805 27.5182 56 29.5104 56 31.5156C56 31.8281 55.9349 32.069 55.8047 32.2383C55.6745 32.4076 55.4401 32.4922 55.1016 32.4922C54.8151 32.4922 54.5286 32.4596 54.2422 32.3945C53.9688 32.3294 53.7214 32.2318 53.5 32.1016C53.2786 31.9583 53.0964 31.776 52.9531 31.5547C52.8229 31.3203 52.7578 31.0339 52.7578 30.6953V24.6016C52.7578 23.8333 52.7578 23.0651 52.7578 22.2969C52.7578 21.5286 52.7448 20.7604 52.7188 19.9922C51.599 20.1484 50.4792 20.2852 49.3594 20.4023C48.2396 20.5065 47.1198 20.5781 46 20.6172C46.0391 23.3906 46.1172 26.1641 46.2344 28.9375C46.2734 29.5104 46.3125 30.0703 46.3516 30.6172C46.4036 31.1641 46.4297 31.7109 46.4297 32.2578C46.4297 32.5182 46.3581 32.7135 46.2148 32.8438C46.0716 32.974 45.8698 33.0391 45.6094 33.0391C45.4141 33.0391 45.2057 33.026 44.9844 33C44.763 32.9609 44.5417 32.9023 44.3203 32.8242C44.112 32.7461 43.9167 32.6484 43.7344 32.5312C43.5521 32.4141 43.4089 32.2708 43.3047 32.1016C43.2656 32.0365 43.2331 31.8411 43.207 31.5156C43.181 31.1901 43.1549 30.7799 43.1289 30.2852C43.1159 29.7904 43.1029 29.2305 43.0898 28.6055C43.0768 27.9805 43.0703 27.3359 43.0703 26.6719C43.0703 26.0078 43.0703 25.3568 43.0703 24.7188C43.0703 24.0677 43.0703 23.4688 43.0703 22.9219C43.0703 22.375 43.0703 21.8997 43.0703 21.4961C43.0703 21.0924 43.0703 20.8125 43.0703 20.6562C42.888 20.6562 42.7253 20.6172 42.582 20.5391C42.4388 20.4479 42.3672 20.3047 42.3672 20.1094C42.3672 19.875 42.4323 19.6536 42.5625 19.4453C42.7057 19.224 42.875 19.0417 43.0703 18.8984V7.10156C43.0703 6.84115 43.1159 6.63281 43.207 6.47656C43.3112 6.32031 43.5 6.24219 43.7734 6.24219C44.2161 6.24219 44.5677 6.30729 44.8281 6.4375C45.1016 6.56771 45.3034 6.75 45.4336 6.98438C45.5768 7.20573 45.668 7.47917 45.707 7.80469C45.7591 8.11719 45.7917 8.45573 45.8047 8.82031C45.8438 10.4089 45.8698 11.9974 45.8828 13.5859C45.8958 15.1745 45.9219 16.763 45.9609 18.3516C47.0807 18.2474 48.194 18.1432 49.3008 18.0391C50.4076 17.9219 51.5208 17.7526 52.6406 17.5312C52.5755 16.151 52.4909 14.7839 52.3867 13.4297C52.2956 12.0755 52.1589 10.7083 51.9766 9.32812C51.8724 8.67708 51.7487 8.03255 51.6055 7.39453C51.4622 6.74349 51.3906 6.08594 51.3906 5.42188C51.3906 5.1875 51.4753 5.03776 51.6445 4.97266C51.8268 4.90755 52.0156 4.875 52.2109 4.875C52.5234 4.875 52.8359 4.92708 53.1484 5.03125C53.474 5.13542 53.7344 5.31771 53.9297 5.57812C54.0469 5.7474 54.1706 6.10547 54.3008 6.65234C54.431 7.1862 54.5482 7.82422 54.6523 8.56641C54.7695 9.30859 54.8802 10.1094 54.9844 10.9688C55.0885 11.8281 55.1797 12.6549 55.2578 13.4492C55.3359 14.2305 55.401 14.9401 55.4531 15.5781C55.5182 16.2031 55.5573 16.6589 55.5703 16.9453C55.7266 16.9062 55.8893 16.8737 56.0586 16.8477C56.2279 16.8086 56.3906 16.7891 56.5469 16.7891C56.8594 16.7891 57.0872 16.8867 57.2305 17.082C57.3737 17.2643 57.4453 17.5052 57.4453 17.8047ZM66 29.4258C66 29.8164 65.8893 30.2201 65.668 30.6367C65.4596 31.0534 65.1862 31.4375 64.8477 31.7891C64.5091 32.1276 64.1185 32.4076 63.6758 32.6289C63.2461 32.8503 62.8164 32.9609 62.3867 32.9609C61.7747 32.9609 61.2474 32.8438 60.8047 32.6094C60.362 32.362 59.9779 32.0365 59.6523 31.6328C59.3268 31.2161 59.0599 30.7474 58.8516 30.2266C58.6562 29.7057 58.5 29.1719 58.3828 28.625C58.2656 28.0651 58.181 27.5117 58.1289 26.9648C58.0898 26.4049 58.0703 25.8971 58.0703 25.4414C58.0703 25.0508 58.0898 24.5885 58.1289 24.0547C58.181 23.5208 58.2591 22.9674 58.3633 22.3945C58.4805 21.8216 58.6367 21.2552 58.832 20.6953C59.0273 20.1354 59.2682 19.6341 59.5547 19.1914C59.8542 18.7487 60.2057 18.3906 60.6094 18.1172C61.026 17.8438 61.5013 17.707 62.0352 17.707C62.4518 17.707 62.8229 17.7917 63.1484 17.9609C63.487 18.1302 63.7669 18.3581 63.9883 18.6445C64.2227 18.918 64.3984 19.237 64.5156 19.6016C64.6458 19.9661 64.7109 20.3438 64.7109 20.7344C64.7109 21.2422 64.5938 21.7956 64.3594 22.3945C64.125 22.9935 63.819 23.5729 63.4414 24.1328C63.0768 24.6927 62.6602 25.2005 62.1914 25.6562C61.7357 26.099 61.2799 26.4375 60.8242 26.6719C60.8503 26.9062 60.9023 27.2513 60.9805 27.707C61.0586 28.1497 61.1628 28.5924 61.293 29.0352C61.4362 29.4779 61.599 29.862 61.7812 30.1875C61.9766 30.513 62.2044 30.6758 62.4648 30.6758C62.5951 30.6758 62.7057 30.6367 62.7969 30.5586C62.901 30.4805 62.9922 30.3763 63.0703 30.2461C63.1484 30.1159 63.2135 29.9727 63.2656 29.8164C63.3307 29.6602 63.3893 29.5104 63.4414 29.3672L63.5586 29.0938C63.5846 29.0547 63.5977 29.0286 63.5977 29.0156C63.6107 29.0026 63.6237 28.9831 63.6367 28.957C63.7279 28.7878 63.8125 28.6315 63.8906 28.4883C63.9818 28.3451 64.1055 28.2214 64.2617 28.1172H64.2422C64.2943 28.0651 64.3464 28.0391 64.3984 28.0391C64.4635 28.026 64.5221 28.0195 64.5742 28.0195C64.7174 28.0195 64.8737 28.0651 65.043 28.1562C65.2122 28.2474 65.3685 28.3646 65.5117 28.5078C65.6549 28.638 65.7721 28.7878 65.8633 28.957C65.9544 29.1133 66 29.2695 66 29.4258ZM62.1328 20.8125C62.1328 20.6823 62.1263 20.5456 62.1133 20.4023C62.1003 20.2591 62.0677 20.1354 62.0156 20.0312C61.8333 20.2526 61.6706 20.5195 61.5273 20.832C61.3971 21.1315 61.2865 21.4505 61.1953 21.7891C61.1042 22.1146 61.026 22.4466 60.9609 22.7852C60.9089 23.1237 60.8698 23.4362 60.8438 23.7227C61.1823 23.319 61.4818 22.8633 61.7422 22.3555C62.0026 21.8346 62.1328 21.3203 62.1328 20.8125ZM71.8789 33.5664C71.8789 33.7487 71.8333 33.8984 71.7422 34.0156C71.651 34.1328 71.5339 34.224 71.3906 34.2891C71.2604 34.3672 71.1107 34.4193 70.9414 34.4453C70.7852 34.4844 70.6419 34.5039 70.5117 34.5039C70.056 34.5039 69.6589 34.3737 69.3203 34.1133C68.9818 33.8529 68.6888 33.5143 68.4414 33.0977C68.194 32.694 67.9922 32.2318 67.8359 31.7109C67.6797 31.1771 67.5495 30.6497 67.4453 30.1289C67.3411 29.5951 67.263 29.0872 67.2109 28.6055C67.1589 28.1107 67.1198 27.6875 67.0938 27.3359C66.9766 26.125 66.8919 24.8945 66.8398 23.6445C66.8008 22.3945 66.7812 21.1576 66.7812 19.9336C66.7812 16.5872 66.8984 13.2734 67.1328 9.99219C67.1328 9.9401 67.1328 9.88151 67.1328 9.81641C67.1458 9.7513 67.1523 9.6862 67.1523 9.62109C67.1654 9.34766 67.1784 9.03516 67.1914 8.68359C67.2044 8.31901 67.224 7.96094 67.25 7.60938C67.276 7.25781 67.3021 6.9388 67.3281 6.65234C67.3672 6.35286 67.4128 6.14453 67.4648 6.02734V6.04688C67.5169 5.86458 67.5885 5.72786 67.6797 5.63672C67.7708 5.54557 67.9271 5.5 68.1484 5.5C68.6172 5.5 69.0143 5.65625 69.3398 5.96875C69.6654 6.28125 69.8281 6.67188 69.8281 7.14062C69.8281 7.24479 69.8216 7.34896 69.8086 7.45312C69.8086 7.54427 69.8021 7.63542 69.7891 7.72656C69.776 7.81771 69.763 7.90885 69.75 8C69.75 8.07812 69.75 8.14974 69.75 8.21484C69.7109 8.72266 69.6784 9.23047 69.6523 9.73828C69.6393 10.2331 69.6198 10.7344 69.5938 11.2422C69.5286 12.362 69.4766 13.4818 69.4375 14.6016C69.4115 15.7083 69.3984 16.8281 69.3984 17.9609C69.3984 18.4427 69.4049 19.0742 69.418 19.8555C69.431 20.6367 69.457 21.4896 69.4961 22.4141C69.5352 23.3255 69.5872 24.2695 69.6523 25.2461C69.7305 26.2227 69.8281 27.1536 69.9453 28.0391C70.0625 28.9245 70.1992 29.7253 70.3555 30.4414C70.5247 31.1576 70.7201 31.7109 70.9414 32.1016C71.0586 32.1536 71.1693 32.2383 71.2734 32.3555C71.3906 32.4596 71.4883 32.5833 71.5664 32.7266C71.6576 32.8568 71.7292 32.9935 71.7812 33.1367C71.8464 33.293 71.8789 33.4362 71.8789 33.5664ZM77.3867 33.5664C77.3867 33.7487 77.3411 33.8984 77.25 34.0156C77.1589 34.1328 77.0417 34.224 76.8984 34.2891C76.7682 34.3672 76.6185 34.4193 76.4492 34.4453C76.293 34.4844 76.1497 34.5039 76.0195 34.5039C75.5638 34.5039 75.1667 34.3737 74.8281 34.1133C74.4896 33.8529 74.1966 33.5143 73.9492 33.0977C73.7018 32.694 73.5 32.2318 73.3438 31.7109C73.1875 31.1771 73.0573 30.6497 72.9531 30.1289C72.849 29.5951 72.7708 29.0872 72.7188 28.6055C72.6667 28.1107 72.6276 27.6875 72.6016 27.3359C72.4844 26.125 72.3997 24.8945 72.3477 23.6445C72.3086 22.3945 72.2891 21.1576 72.2891 19.9336C72.2891 16.5872 72.4062 13.2734 72.6406 9.99219C72.6406 9.9401 72.6406 9.88151 72.6406 9.81641C72.6536 9.7513 72.6602 9.6862 72.6602 9.62109C72.6732 9.34766 72.6862 9.03516 72.6992 8.68359C72.7122 8.31901 72.7318 7.96094 72.7578 7.60938C72.7839 7.25781 72.8099 6.9388 72.8359 6.65234C72.875 6.35286 72.9206 6.14453 72.9727 6.02734V6.04688C73.0247 5.86458 73.0964 5.72786 73.1875 5.63672C73.2786 5.54557 73.4349 5.5 73.6562 5.5C74.125 5.5 74.5221 5.65625 74.8477 5.96875C75.1732 6.28125 75.3359 6.67188 75.3359 7.14062C75.3359 7.24479 75.3294 7.34896 75.3164 7.45312C75.3164 7.54427 75.3099 7.63542 75.2969 7.72656C75.2839 7.81771 75.2708 7.90885 75.2578 8C75.2578 8.07812 75.2578 8.14974 75.2578 8.21484C75.2188 8.72266 75.1862 9.23047 75.1602 9.73828C75.1471 10.2331 75.1276 10.7344 75.1016 11.2422C75.0365 12.362 74.9844 13.4818 74.9453 14.6016C74.9193 15.7083 74.9062 16.8281 74.9062 17.9609C74.9062 18.4427 74.9128 19.0742 74.9258 19.8555C74.9388 20.6367 74.9648 21.4896 75.0039 22.4141C75.043 23.3255 75.0951 24.2695 75.1602 25.2461C75.2383 26.2227 75.3359 27.1536 75.4531 28.0391C75.5703 28.9245 75.707 29.7253 75.8633 30.4414C76.0326 31.1576 76.2279 31.7109 76.4492 32.1016C76.5664 32.1536 76.6771 32.2383 76.7812 32.3555C76.8984 32.4596 76.9961 32.5833 77.0742 32.7266C77.1654 32.8568 77.237 32.9935 77.2891 33.1367C77.3542 33.293 77.3867 33.4362 77.3867 33.5664ZM86.4297 24.9922C86.4297 26.125 86.332 27.2578 86.1367 28.3906C85.9544 29.5104 85.5703 30.5716 84.9844 31.5742C84.8021 31.8737 84.5938 32.1667 84.3594 32.4531C84.125 32.7266 83.8646 32.974 83.5781 33.1953C83.3047 33.4297 82.9987 33.612 82.6602 33.7422C82.3346 33.8854 81.9896 33.957 81.625 33.957C81.0521 33.957 80.5508 33.8203 80.1211 33.5469C79.7044 33.2865 79.3398 32.9414 79.0273 32.5117C78.7279 32.069 78.474 31.5742 78.2656 31.0273C78.0703 30.4674 77.9141 29.901 77.7969 29.3281C77.6927 28.7422 77.6146 28.1758 77.5625 27.6289C77.5234 27.082 77.5039 26.6003 77.5039 26.1836C77.5039 25.7148 77.5234 25.2005 77.5625 24.6406C77.6016 24.0807 77.6667 23.5078 77.7578 22.9219C77.862 22.3359 77.9922 21.7565 78.1484 21.1836C78.3177 20.6107 78.5326 20.0768 78.793 19.582C79.0534 19.0742 79.3659 18.625 79.7305 18.2344C80.0951 17.8307 80.5182 17.5117 81 17.2773V17.2969C81.4167 17.0755 81.8333 16.9648 82.25 16.9648C82.5104 16.9648 82.7122 17.0234 82.8555 17.1406C82.9987 17.2448 83.0638 17.4271 83.0508 17.6875C83.7669 17.8177 84.3464 18.1628 84.7891 18.7227C85.2318 19.2826 85.5703 19.9336 85.8047 20.6758C86.0521 21.418 86.2148 22.1797 86.293 22.9609C86.3841 23.7422 86.4297 24.4193 86.4297 24.9922ZM82.0156 20.1094C81.7943 20.1094 81.5859 20.0247 81.3906 19.8555C81.1432 20.2331 80.9349 20.6693 80.7656 21.1641C80.5964 21.6458 80.4596 22.1471 80.3555 22.668C80.2643 23.1758 80.1992 23.6901 80.1602 24.2109C80.1211 24.7318 80.1016 25.2201 80.1016 25.6758C80.1016 26.0534 80.1211 26.5417 80.1602 27.1406C80.1992 27.7266 80.2708 28.319 80.375 28.918C80.4922 29.5169 80.6484 30.0768 80.8438 30.5977C81.0521 31.1185 81.319 31.5026 81.6445 31.75C82.0482 31.5156 82.3802 31.1445 82.6406 30.6367C82.9141 30.1159 83.1289 29.5495 83.2852 28.9375C83.4414 28.3255 83.5456 27.707 83.5977 27.082C83.6628 26.457 83.6953 25.9232 83.6953 25.4805C83.6953 25.1549 83.6758 24.7318 83.6367 24.2109C83.5977 23.6901 83.5326 23.1628 83.4414 22.6289C83.3503 22.082 83.2201 21.5742 83.0508 21.1055C82.8945 20.6367 82.6927 20.2852 82.4453 20.0508C82.3281 20.0898 82.1849 20.1094 82.0156 20.1094ZM98.0312 32.5117C98.0312 32.6549 97.9987 32.7786 97.9336 32.8828C97.8685 32.974 97.7839 33.0456 97.6797 33.0977C97.5885 33.1497 97.4844 33.1823 97.3672 33.1953C97.263 33.2214 97.1589 33.2344 97.0547 33.2344C96.9115 33.2344 96.7422 33.2148 96.5469 33.1758C96.3646 33.1497 96.1823 33.1042 96 33.0391C95.8177 32.974 95.6484 32.8958 95.4922 32.8047C95.349 32.7005 95.2383 32.5768 95.1602 32.4336C95.082 32.3034 95.0104 32.0625 94.9453 31.7109C94.8932 31.3464 94.8477 30.9297 94.8086 30.4609C94.7695 29.9792 94.737 29.4714 94.7109 28.9375C94.6849 28.3906 94.6589 27.8698 94.6328 27.375C94.6198 26.8802 94.6068 26.4375 94.5938 26.0469C94.5938 25.6432 94.5938 25.3438 94.5938 25.1484C94.5938 24.237 94.6068 23.3581 94.6328 22.5117C94.6719 21.6523 94.7109 20.7734 94.75 19.875C94.6849 19.875 94.6198 19.8815 94.5547 19.8945C94.4896 19.9076 94.4245 19.9141 94.3594 19.9141C94.1901 19.9401 94.0143 19.9596 93.832 19.9727C93.6628 19.9857 93.487 19.9922 93.3047 19.9922C93.0833 19.9922 92.888 19.9531 92.7188 19.875C92.5495 19.7969 92.4648 19.6211 92.4648 19.3477C92.4648 19.0221 92.5365 18.7617 92.6797 18.5664C92.8229 18.3711 93.0052 18.2214 93.2266 18.1172C93.4479 18 93.6888 17.9219 93.9492 17.8828C94.2096 17.8307 94.4635 17.7917 94.7109 17.7656C94.75 17.7656 94.776 17.7656 94.7891 17.7656C94.8021 17.7526 94.8281 17.7461 94.8672 17.7461C94.8802 17.5898 94.8932 17.401 94.9062 17.1797C94.9193 16.9453 94.9323 16.6914 94.9453 16.418C94.9583 15.9883 94.9779 15.5326 95.0039 15.0508C95.0299 14.556 95.056 14.0872 95.082 13.6445C95.1081 13.1888 95.1406 12.7917 95.1797 12.4531C95.2188 12.1016 95.2578 11.8542 95.2969 11.7109C95.362 11.5417 95.4336 11.4049 95.5117 11.3008C95.6029 11.1966 95.7656 11.1445 96 11.1445C96.5208 11.1445 96.9245 11.3138 97.2109 11.6523C97.4974 11.9909 97.6406 12.4076 97.6406 12.9023C97.6406 13.4753 97.6211 14.0482 97.582 14.6211C97.556 15.194 97.5299 15.7734 97.5039 16.3594L97.4453 17.3555C97.7708 17.3164 98.0964 17.2578 98.4219 17.1797C98.7344 17.1146 99.0469 17.056 99.3594 17.0039C99.6849 16.9518 99.9974 16.9258 100.297 16.9258C100.557 16.9258 100.759 16.9974 100.902 17.1406C101.046 17.2708 101.117 17.4661 101.117 17.7266C101.117 18.013 101.065 18.293 100.961 18.5664C100.857 18.8398 100.674 19.0482 100.414 19.1914H100.434C100.382 19.2174 100.225 19.2565 99.9648 19.3086C99.7044 19.3477 99.4049 19.3867 99.0664 19.4258C98.7409 19.4648 98.4154 19.5039 98.0898 19.543C97.7773 19.582 97.543 19.6081 97.3867 19.6211H97.3672C97.3411 20.3503 97.3216 21.0729 97.3086 21.7891C97.2956 22.4922 97.2891 23.2083 97.2891 23.9375C97.2891 24.9401 97.3151 26.0078 97.3672 27.1406C97.4323 28.2604 97.5365 29.3281 97.6797 30.3438L97.8359 31.2227C97.888 31.444 97.9336 31.6654 97.9727 31.8867C98.0117 32.0951 98.0312 32.3034 98.0312 32.5117ZM110.824 31.9453C110.824 32.2057 110.74 32.3945 110.57 32.5117C110.401 32.6289 110.193 32.6875 109.945 32.6875C109.789 32.6875 109.626 32.6745 109.457 32.6484C109.288 32.6094 109.125 32.5703 108.969 32.5312C108.695 32.4531 108.48 32.3555 108.324 32.2383C108.181 32.1211 108.07 31.9909 107.992 31.8477C107.914 31.6914 107.862 31.5221 107.836 31.3398C107.823 31.1576 107.81 30.9557 107.797 30.7344C107.797 30.6693 107.79 30.6107 107.777 30.5586C107.777 30.5065 107.777 30.4544 107.777 30.4023C107.738 29.6602 107.699 28.8984 107.66 28.1172C107.634 27.3359 107.621 26.5742 107.621 25.832C107.621 25.4544 107.621 25.0768 107.621 24.6992C107.634 24.3216 107.647 23.944 107.66 23.5664C107.673 23.1888 107.68 22.8177 107.68 22.4531C107.693 22.0755 107.699 21.6979 107.699 21.3203C107.699 21.2422 107.693 21.1706 107.68 21.1055C107.68 21.0273 107.673 20.9492 107.66 20.8711C107.322 21.3659 107.022 21.9193 106.762 22.5312C106.514 23.1302 106.293 23.7552 106.098 24.4062C105.902 25.0443 105.733 25.6888 105.59 26.3398C105.46 26.9779 105.349 27.5898 105.258 28.1758L105.199 28.5859C105.134 29.0417 105.069 29.5104 105.004 29.9922C104.939 30.4609 104.906 30.9297 104.906 31.3984C104.906 31.5938 104.939 31.8086 105.004 32.043C105.03 32.1471 105.049 32.2513 105.062 32.3555C105.089 32.4466 105.102 32.5638 105.102 32.707C105.102 33.0195 105.023 33.2279 104.867 33.332C104.711 33.4492 104.503 33.5078 104.242 33.5078C104.086 33.5078 103.91 33.4948 103.715 33.4688C103.533 33.4427 103.35 33.3971 103.168 33.332C102.999 33.2799 102.836 33.2083 102.68 33.1172C102.523 33.026 102.4 32.9089 102.309 32.7656C102.23 32.5964 102.152 32.1471 102.074 31.418C102.009 30.6888 101.944 29.7839 101.879 28.7031C101.827 27.6224 101.775 26.4115 101.723 25.0703C101.671 23.7161 101.618 22.3294 101.566 20.9102C101.527 19.4909 101.488 18.0846 101.449 16.6914C101.423 15.2982 101.397 14.0156 101.371 12.8438C101.358 11.6719 101.345 10.6562 101.332 9.79688C101.319 8.92448 101.312 8.3125 101.312 7.96094C101.312 7.70052 101.345 7.46615 101.41 7.25781C101.488 7.03646 101.697 6.92578 102.035 6.92578C102.387 6.92578 102.719 7.01042 103.031 7.17969C103.344 7.33594 103.572 7.58333 103.715 7.92188C103.741 7.97396 103.767 8.1888 103.793 8.56641C103.819 8.93099 103.845 9.40625 103.871 9.99219C103.897 10.5651 103.923 11.2292 103.949 11.9844C103.975 12.7266 104.001 13.5013 104.027 14.3086C104.053 15.1029 104.079 15.9036 104.105 16.7109C104.132 17.5182 104.158 18.2734 104.184 18.9766L104.281 21.8672C104.438 21.4635 104.633 21.0404 104.867 20.5977C105.102 20.1549 105.368 19.7513 105.668 19.3867C105.98 19.0221 106.326 18.7227 106.703 18.4883C107.094 18.2539 107.523 18.1367 107.992 18.1367C108.565 18.1367 109.014 18.2865 109.34 18.5859C109.665 18.8854 109.906 19.2565 110.062 19.6992C110.232 20.1419 110.336 20.6172 110.375 21.125C110.414 21.6328 110.434 22.0951 110.434 22.5117C110.434 22.7721 110.427 23.026 110.414 23.2734C110.414 23.5208 110.408 23.7682 110.395 24.0156C110.382 24.276 110.368 24.5365 110.355 24.7969C110.355 25.0443 110.355 25.2982 110.355 25.5586C110.355 26.457 110.375 27.3815 110.414 28.332C110.453 29.2695 110.551 30.194 110.707 31.1055L110.746 31.3789C110.772 31.457 110.792 31.5482 110.805 31.6523C110.818 31.7565 110.824 31.8542 110.824 31.9453ZM120.062 29.4258C120.062 29.8164 119.952 30.2201 119.73 30.6367C119.522 31.0534 119.249 31.4375 118.91 31.7891C118.572 32.1276 118.181 32.4076 117.738 32.6289C117.309 32.8503 116.879 32.9609 116.449 32.9609C115.837 32.9609 115.31 32.8438 114.867 32.6094C114.424 32.362 114.04 32.0365 113.715 31.6328C113.389 31.2161 113.122 30.7474 112.914 30.2266C112.719 29.7057 112.562 29.1719 112.445 28.625C112.328 28.0651 112.243 27.5117 112.191 26.9648C112.152 26.4049 112.133 25.8971 112.133 25.4414C112.133 25.0508 112.152 24.5885 112.191 24.0547C112.243 23.5208 112.322 22.9674 112.426 22.3945C112.543 21.8216 112.699 21.2552 112.895 20.6953C113.09 20.1354 113.331 19.6341 113.617 19.1914C113.917 18.7487 114.268 18.3906 114.672 18.1172C115.089 17.8438 115.564 17.707 116.098 17.707C116.514 17.707 116.885 17.7917 117.211 17.9609C117.549 18.1302 117.829 18.3581 118.051 18.6445C118.285 18.918 118.461 19.237 118.578 19.6016C118.708 19.9661 118.773 20.3438 118.773 20.7344C118.773 21.2422 118.656 21.7956 118.422 22.3945C118.188 22.9935 117.882 23.5729 117.504 24.1328C117.139 24.6927 116.723 25.2005 116.254 25.6562C115.798 26.099 115.342 26.4375 114.887 26.6719C114.913 26.9062 114.965 27.2513 115.043 27.707C115.121 28.1497 115.225 28.5924 115.355 29.0352C115.499 29.4779 115.661 29.862 115.844 30.1875C116.039 30.513 116.267 30.6758 116.527 30.6758C116.658 30.6758 116.768 30.6367 116.859 30.5586C116.964 30.4805 117.055 30.3763 117.133 30.2461C117.211 30.1159 117.276 29.9727 117.328 29.8164C117.393 29.6602 117.452 29.5104 117.504 29.3672L117.621 29.0938C117.647 29.0547 117.66 29.0286 117.66 29.0156C117.673 29.0026 117.686 28.9831 117.699 28.957C117.79 28.7878 117.875 28.6315 117.953 28.4883C118.044 28.3451 118.168 28.2214 118.324 28.1172H118.305C118.357 28.0651 118.409 28.0391 118.461 28.0391C118.526 28.026 118.585 28.0195 118.637 28.0195C118.78 28.0195 118.936 28.0651 119.105 28.1562C119.275 28.2474 119.431 28.3646 119.574 28.5078C119.717 28.638 119.835 28.7878 119.926 28.957C120.017 29.1133 120.062 29.2695 120.062 29.4258ZM116.195 20.8125C116.195 20.6823 116.189 20.5456 116.176 20.4023C116.163 20.2591 116.13 20.1354 116.078 20.0312C115.896 20.2526 115.733 20.5195 115.59 20.832C115.46 21.1315 115.349 21.4505 115.258 21.7891C115.167 22.1146 115.089 22.4466 115.023 22.7852C114.971 23.1237 114.932 23.4362 114.906 23.7227C115.245 23.319 115.544 22.8633 115.805 22.3555C116.065 21.8346 116.195 21.3203 116.195 20.8125ZM122.797 33.3125C122.602 33.3125 122.387 33.2865 122.152 33.2344C121.931 33.1823 121.716 33.0977 121.508 32.9805C121.312 32.8633 121.143 32.7201 121 32.5508C120.87 32.3685 120.805 32.1536 120.805 31.9062C120.805 31.5417 120.818 31.1836 120.844 30.832C120.883 30.4674 120.922 30.1094 120.961 29.7578V29.7773L121.078 28.4688C121.117 28 121.15 27.4857 121.176 26.9258C121.202 26.3659 121.221 25.7995 121.234 25.2266C121.26 24.6406 121.28 24.0677 121.293 23.5078C121.306 22.9479 121.312 22.4336 121.312 21.9648C121.312 21.6914 121.306 21.418 121.293 21.1445C121.293 20.8581 121.293 20.5716 121.293 20.2852C121.28 20.0378 121.273 19.7643 121.273 19.4648C121.273 19.1523 121.273 18.8659 121.273 18.6055C121.273 18.332 121.306 18.1107 121.371 17.9414C121.449 17.7591 121.658 17.668 121.996 17.668C122.296 17.668 122.608 17.7461 122.934 17.9023C123.272 18.0586 123.507 18.2799 123.637 18.5664H123.617C123.682 18.7096 123.728 18.944 123.754 19.2695C123.793 19.582 123.819 19.862 123.832 20.1094C124.053 19.7708 124.301 19.4128 124.574 19.0352C124.861 18.6576 125.167 18.3125 125.492 18C125.818 17.6745 126.163 17.4076 126.527 17.1992C126.892 16.9909 127.283 16.8867 127.699 16.8867C128.246 16.8867 128.663 17.0234 128.949 17.2969C129.236 17.5703 129.444 17.9154 129.574 18.332C129.704 18.7357 129.776 19.1719 129.789 19.6406C129.802 20.0964 129.809 20.513 129.809 20.8906V21.0469C129.809 21.2031 129.802 21.3594 129.789 21.5156C129.789 21.6589 129.763 21.7956 129.711 21.9258C129.672 22.043 129.594 22.1406 129.477 22.2188C129.372 22.2969 129.223 22.3359 129.027 22.3359C128.819 22.3359 128.598 22.3099 128.363 22.2578C128.129 22.1927 127.908 22.1016 127.699 21.9844C127.504 21.8672 127.335 21.724 127.191 21.5547C127.048 21.3724 126.97 21.1641 126.957 20.9297C126.957 20.8255 126.957 20.7214 126.957 20.6172C126.957 20.513 126.964 20.4089 126.977 20.3047C126.977 20.2396 126.977 20.1615 126.977 20.0703C126.99 19.9661 126.996 19.8685 126.996 19.7773C126.579 20.194 126.208 20.7083 125.883 21.3203C125.57 21.9323 125.284 22.5833 125.023 23.2734C124.776 23.9635 124.561 24.6602 124.379 25.3633C124.197 26.0534 124.04 26.6784 123.91 27.2383V27.2969C123.871 27.7005 123.845 28.0977 123.832 28.4883C123.819 28.8789 123.806 29.2826 123.793 29.6992C123.78 30.168 123.76 30.6432 123.734 31.125C123.721 31.6068 123.689 32.0755 123.637 32.5312C123.611 32.7786 123.533 32.9674 123.402 33.0977C123.285 33.2409 123.083 33.3125 122.797 33.3125ZM138.188 29.4258C138.188 29.8164 138.077 30.2201 137.855 30.6367C137.647 31.0534 137.374 31.4375 137.035 31.7891C136.697 32.1276 136.306 32.4076 135.863 32.6289C135.434 32.8503 135.004 32.9609 134.574 32.9609C133.962 32.9609 133.435 32.8438 132.992 32.6094C132.549 32.362 132.165 32.0365 131.84 31.6328C131.514 31.2161 131.247 30.7474 131.039 30.2266C130.844 29.7057 130.688 29.1719 130.57 28.625C130.453 28.0651 130.368 27.5117 130.316 26.9648C130.277 26.4049 130.258 25.8971 130.258 25.4414C130.258 25.0508 130.277 24.5885 130.316 24.0547C130.368 23.5208 130.447 22.9674 130.551 22.3945C130.668 21.8216 130.824 21.2552 131.02 20.6953C131.215 20.1354 131.456 19.6341 131.742 19.1914C132.042 18.7487 132.393 18.3906 132.797 18.1172C133.214 17.8438 133.689 17.707 134.223 17.707C134.639 17.707 135.01 17.7917 135.336 17.9609C135.674 18.1302 135.954 18.3581 136.176 18.6445C136.41 18.918 136.586 19.237 136.703 19.6016C136.833 19.9661 136.898 20.3438 136.898 20.7344C136.898 21.2422 136.781 21.7956 136.547 22.3945C136.312 22.9935 136.007 23.5729 135.629 24.1328C135.264 24.6927 134.848 25.2005 134.379 25.6562C133.923 26.099 133.467 26.4375 133.012 26.6719C133.038 26.9062 133.09 27.2513 133.168 27.707C133.246 28.1497 133.35 28.5924 133.48 29.0352C133.624 29.4779 133.786 29.862 133.969 30.1875C134.164 30.513 134.392 30.6758 134.652 30.6758C134.783 30.6758 134.893 30.6367 134.984 30.5586C135.089 30.4805 135.18 30.3763 135.258 30.2461C135.336 30.1159 135.401 29.9727 135.453 29.8164C135.518 29.6602 135.577 29.5104 135.629 29.3672L135.746 29.0938C135.772 29.0547 135.785 29.0286 135.785 29.0156C135.798 29.0026 135.811 28.9831 135.824 28.957C135.915 28.7878 136 28.6315 136.078 28.4883C136.169 28.3451 136.293 28.2214 136.449 28.1172H136.43C136.482 28.0651 136.534 28.0391 136.586 28.0391C136.651 28.026 136.71 28.0195 136.762 28.0195C136.905 28.0195 137.061 28.0651 137.23 28.1562C137.4 28.2474 137.556 28.3646 137.699 28.5078C137.842 28.638 137.96 28.7878 138.051 28.957C138.142 29.1133 138.188 29.2695 138.188 29.4258ZM134.32 20.8125C134.32 20.6823 134.314 20.5456 134.301 20.4023C134.288 20.2591 134.255 20.1354 134.203 20.0312C134.021 20.2526 133.858 20.5195 133.715 20.832C133.585 21.1315 133.474 21.4505 133.383 21.7891C133.292 22.1146 133.214 22.4466 133.148 22.7852C133.096 23.1237 133.057 23.4362 133.031 23.7227C133.37 23.319 133.669 22.8633 133.93 22.3555C134.19 21.8346 134.32 21.3203 134.32 20.8125ZM141.879 31.125C141.879 31.9323 141.749 32.707 141.488 33.4492C141.228 34.2044 140.863 34.9141 140.395 35.5781C140.329 35.6562 140.258 35.7474 140.18 35.8516C140.115 35.9688 140.036 36.0729 139.945 36.1641C139.854 36.2682 139.757 36.3529 139.652 36.418C139.548 36.4831 139.444 36.5156 139.34 36.5156C139.197 36.5156 139.027 36.457 138.832 36.3398C138.65 36.2357 138.474 36.1055 138.305 35.9492C138.148 35.793 138.018 35.6237 137.914 35.4414C137.797 35.2591 137.738 35.0964 137.738 34.9531C137.738 34.849 137.777 34.7253 137.855 34.582C137.934 34.4518 138.025 34.3151 138.129 34.1719C138.22 34.0417 138.318 33.9115 138.422 33.7812C138.526 33.651 138.611 33.5339 138.676 33.4297C138.845 33.1302 138.975 32.8503 139.066 32.5898C139.158 32.3294 139.223 32.0755 139.262 31.8281C139.301 31.5677 139.327 31.3073 139.34 31.0469C139.366 30.7734 139.405 30.474 139.457 30.1484C139.483 29.9141 139.555 29.7643 139.672 29.6992C139.802 29.6341 139.978 29.6016 140.199 29.6016C140.733 29.6016 141.143 29.7057 141.43 29.9141C141.729 30.1094 141.879 30.513 141.879 31.125ZM156.449 20.6562C156.449 20.7604 156.449 20.8646 156.449 20.9688C156.449 21.0599 156.436 21.151 156.41 21.2422C156.605 21.9453 156.781 22.6549 156.938 23.3711C157.107 24.0742 157.27 24.7773 157.426 25.4805C157.504 24.6862 157.569 23.8919 157.621 23.0977C157.686 22.2904 157.719 21.4896 157.719 20.6953C157.719 19.9141 157.693 19.1198 157.641 18.3125C157.589 17.4922 157.458 16.7109 157.25 15.9688L157.172 15.6953C157.146 15.6302 157.126 15.5586 157.113 15.4805C157.1 15.4023 157.094 15.3242 157.094 15.2461C157.094 15.1029 157.126 14.9922 157.191 14.9141C157.27 14.8229 157.361 14.7578 157.465 14.7188C157.569 14.6797 157.686 14.6536 157.816 14.6406C157.947 14.6276 158.064 14.6211 158.168 14.6211C158.493 14.6211 158.832 14.6602 159.184 14.7383C159.418 14.8034 159.607 14.901 159.75 15.0312C159.893 15.1484 159.997 15.2917 160.062 15.4609C160.141 15.6302 160.193 15.819 160.219 16.0273C160.245 16.2227 160.264 16.4245 160.277 16.6328C160.277 16.6589 160.277 16.6849 160.277 16.7109C160.29 16.737 160.297 16.763 160.297 16.7891C160.362 17.362 160.408 17.9414 160.434 18.5273C160.473 19.1003 160.492 19.6667 160.492 20.2266C160.492 21.9714 160.388 23.7096 160.18 25.4414C159.984 27.1732 159.743 28.8919 159.457 30.5977C159.418 30.8581 159.359 31.125 159.281 31.3984C159.216 31.6719 159.118 31.9258 158.988 32.1602C158.858 32.3945 158.689 32.5898 158.48 32.7461C158.272 32.8893 158.012 32.9609 157.699 32.9609C157.348 32.9609 157.061 32.8828 156.84 32.7266C156.618 32.5573 156.436 32.349 156.293 32.1016C156.163 31.8411 156.065 31.5547 156 31.2422C155.935 30.9297 155.883 30.6237 155.844 30.3242C155.818 30.181 155.792 30.0508 155.766 29.9336C155.753 29.8164 155.733 29.7057 155.707 29.6016L155.16 27.1797C155.056 27.5443 154.913 28.0065 154.73 28.5664C154.561 29.1133 154.372 29.6667 154.164 30.2266C153.969 30.7865 153.767 31.2943 153.559 31.75C153.363 32.2057 153.201 32.5182 153.07 32.6875C152.927 32.8568 152.745 32.987 152.523 33.0781C152.302 33.1823 152.081 33.2344 151.859 33.2344C151.469 33.2344 151.13 33.1107 150.844 32.8633C150.583 32.6029 150.414 32.3034 150.336 31.9648C150.258 31.6263 150.199 31.2878 150.16 30.9492C150.16 30.9232 150.154 30.8906 150.141 30.8516C150.141 30.8125 150.141 30.7799 150.141 30.7539C149.945 29.3216 149.802 27.8698 149.711 26.3984C149.62 24.9141 149.574 23.4362 149.574 21.9648V18.7227C149.574 18.6055 149.581 18.4818 149.594 18.3516C149.607 18.2214 149.633 18.1042 149.672 18C149.724 17.8828 149.796 17.7917 149.887 17.7266C149.991 17.6615 150.134 17.6289 150.316 17.6289C150.798 17.6289 151.195 17.7721 151.508 18.0586C151.82 18.3451 151.996 18.7227 152.035 19.1914C152.074 19.8164 152.1 20.4479 152.113 21.0859C152.139 21.724 152.159 22.3555 152.172 22.9805C152.185 23.6966 152.191 24.3932 152.191 25.0703C152.204 25.7344 152.25 26.4375 152.328 27.1797C152.484 26.6719 152.634 26.1445 152.777 25.5977C152.921 25.0508 153.044 24.4974 153.148 23.9375C153.266 23.3776 153.357 22.8242 153.422 22.2773C153.5 21.7174 153.539 21.1771 153.539 20.6562C153.539 20.5911 153.533 20.5391 153.52 20.5C153.52 20.4479 153.52 20.3893 153.52 20.3242C153.507 20.2591 153.5 20.194 153.5 20.1289C153.5 20.0638 153.5 19.9987 153.5 19.9336C153.5 19.6081 153.572 19.3672 153.715 19.2109C153.858 19.0547 154.105 18.9766 154.457 18.9766C154.587 18.9766 154.743 18.9961 154.926 19.0352C155.121 19.0742 155.31 19.1328 155.492 19.2109C155.688 19.2891 155.863 19.3867 156.02 19.5039C156.176 19.6211 156.28 19.7513 156.332 19.8945H156.312C156.378 20.0247 156.417 20.1484 156.43 20.2656C156.443 20.3828 156.449 20.513 156.449 20.6562ZM169.867 29.4258C169.867 29.8164 169.757 30.2201 169.535 30.6367C169.327 31.0534 169.053 31.4375 168.715 31.7891C168.376 32.1276 167.986 32.4076 167.543 32.6289C167.113 32.8503 166.684 32.9609 166.254 32.9609C165.642 32.9609 165.115 32.8438 164.672 32.6094C164.229 32.362 163.845 32.0365 163.52 31.6328C163.194 31.2161 162.927 30.7474 162.719 30.2266C162.523 29.7057 162.367 29.1719 162.25 28.625C162.133 28.0651 162.048 27.5117 161.996 26.9648C161.957 26.4049 161.938 25.8971 161.938 25.4414C161.938 25.0508 161.957 24.5885 161.996 24.0547C162.048 23.5208 162.126 22.9674 162.23 22.3945C162.348 21.8216 162.504 21.2552 162.699 20.6953C162.895 20.1354 163.135 19.6341 163.422 19.1914C163.721 18.7487 164.073 18.3906 164.477 18.1172C164.893 17.8438 165.368 17.707 165.902 17.707C166.319 17.707 166.69 17.7917 167.016 17.9609C167.354 18.1302 167.634 18.3581 167.855 18.6445C168.09 18.918 168.266 19.237 168.383 19.6016C168.513 19.9661 168.578 20.3438 168.578 20.7344C168.578 21.2422 168.461 21.7956 168.227 22.3945C167.992 22.9935 167.686 23.5729 167.309 24.1328C166.944 24.6927 166.527 25.2005 166.059 25.6562C165.603 26.099 165.147 26.4375 164.691 26.6719C164.717 26.9062 164.77 27.2513 164.848 27.707C164.926 28.1497 165.03 28.5924 165.16 29.0352C165.303 29.4779 165.466 29.862 165.648 30.1875C165.844 30.513 166.072 30.6758 166.332 30.6758C166.462 30.6758 166.573 30.6367 166.664 30.5586C166.768 30.4805 166.859 30.3763 166.938 30.2461C167.016 30.1159 167.081 29.9727 167.133 29.8164C167.198 29.6602 167.257 29.5104 167.309 29.3672L167.426 29.0938C167.452 29.0547 167.465 29.0286 167.465 29.0156C167.478 29.0026 167.491 28.9831 167.504 28.957C167.595 28.7878 167.68 28.6315 167.758 28.4883C167.849 28.3451 167.973 28.2214 168.129 28.1172H168.109C168.161 28.0651 168.214 28.0391 168.266 28.0391C168.331 28.026 168.389 28.0195 168.441 28.0195C168.585 28.0195 168.741 28.0651 168.91 28.1562C169.079 28.2474 169.236 28.3646 169.379 28.5078C169.522 28.638 169.639 28.7878 169.73 28.957C169.822 29.1133 169.867 29.2695 169.867 29.4258ZM166 20.8125C166 20.6823 165.993 20.5456 165.98 20.4023C165.967 20.2591 165.935 20.1354 165.883 20.0312C165.701 20.2526 165.538 20.5195 165.395 20.832C165.264 21.1315 165.154 21.4505 165.062 21.7891C164.971 22.1146 164.893 22.4466 164.828 22.7852C164.776 23.1237 164.737 23.4362 164.711 23.7227C165.049 23.319 165.349 22.8633 165.609 22.3555C165.87 21.8346 166 21.3203 166 20.8125ZM175.746 33.5664C175.746 33.7487 175.701 33.8984 175.609 34.0156C175.518 34.1328 175.401 34.224 175.258 34.2891C175.128 34.3672 174.978 34.4193 174.809 34.4453C174.652 34.4844 174.509 34.5039 174.379 34.5039C173.923 34.5039 173.526 34.3737 173.188 34.1133C172.849 33.8529 172.556 33.5143 172.309 33.0977C172.061 32.694 171.859 32.2318 171.703 31.7109C171.547 31.1771 171.417 30.6497 171.312 30.1289C171.208 29.5951 171.13 29.0872 171.078 28.6055C171.026 28.1107 170.987 27.6875 170.961 27.3359C170.844 26.125 170.759 24.8945 170.707 23.6445C170.668 22.3945 170.648 21.1576 170.648 19.9336C170.648 16.5872 170.766 13.2734 171 9.99219C171 9.9401 171 9.88151 171 9.81641C171.013 9.7513 171.02 9.6862 171.02 9.62109C171.033 9.34766 171.046 9.03516 171.059 8.68359C171.072 8.31901 171.091 7.96094 171.117 7.60938C171.143 7.25781 171.169 6.9388 171.195 6.65234C171.234 6.35286 171.28 6.14453 171.332 6.02734V6.04688C171.384 5.86458 171.456 5.72786 171.547 5.63672C171.638 5.54557 171.794 5.5 172.016 5.5C172.484 5.5 172.882 5.65625 173.207 5.96875C173.533 6.28125 173.695 6.67188 173.695 7.14062C173.695 7.24479 173.689 7.34896 173.676 7.45312C173.676 7.54427 173.669 7.63542 173.656 7.72656C173.643 7.81771 173.63 7.90885 173.617 8C173.617 8.07812 173.617 8.14974 173.617 8.21484C173.578 8.72266 173.546 9.23047 173.52 9.73828C173.507 10.2331 173.487 10.7344 173.461 11.2422C173.396 12.362 173.344 13.4818 173.305 14.6016C173.279 15.7083 173.266 16.8281 173.266 17.9609C173.266 18.4427 173.272 19.0742 173.285 19.8555C173.298 20.6367 173.324 21.4896 173.363 22.4141C173.402 23.3255 173.454 24.2695 173.52 25.2461C173.598 26.2227 173.695 27.1536 173.812 28.0391C173.93 28.9245 174.066 29.7253 174.223 30.4414C174.392 31.1576 174.587 31.7109 174.809 32.1016C174.926 32.1536 175.036 32.2383 175.141 32.3555C175.258 32.4596 175.355 32.5833 175.434 32.7266C175.525 32.8568 175.596 32.9935 175.648 33.1367C175.714 33.293 175.746 33.4362 175.746 33.5664ZM183.852 28.625C183.852 28.8984 183.806 29.1784 183.715 29.4648C183.624 29.7513 183.52 30.0247 183.402 30.2852C183.246 30.6628 183.057 31.0339 182.836 31.3984C182.615 31.75 182.361 32.069 182.074 32.3555C181.788 32.6289 181.462 32.8503 181.098 33.0195C180.733 33.1888 180.323 33.2734 179.867 33.2734C179.06 33.2734 178.389 33.0716 177.855 32.668C177.322 32.2643 176.898 31.7565 176.586 31.1445C176.273 30.5326 176.052 29.862 175.922 29.1328C175.805 28.4036 175.746 27.7135 175.746 27.0625C175.746 26.5807 175.766 26.0143 175.805 25.3633C175.844 24.6992 175.915 24.0156 176.02 23.3125C176.137 22.6094 176.299 21.9128 176.508 21.2227C176.729 20.5326 177.009 19.9206 177.348 19.3867C177.686 18.8398 178.096 18.3971 178.578 18.0586C179.073 17.7201 179.659 17.5508 180.336 17.5508C180.479 17.5508 180.688 17.5768 180.961 17.6289C181.234 17.681 181.501 17.7591 181.762 17.8633C182.035 17.9544 182.27 18.0846 182.465 18.2539C182.673 18.4102 182.777 18.5924 182.777 18.8008C182.777 18.9961 182.686 19.1458 182.504 19.25C182.335 19.3542 182.126 19.4323 181.879 19.4844C181.645 19.5234 181.397 19.5495 181.137 19.5625C180.889 19.5625 180.688 19.5625 180.531 19.5625H180.18C179.815 19.888 179.516 20.3698 179.281 21.0078C179.047 21.6328 178.865 22.3034 178.734 23.0195C178.604 23.7357 178.513 24.4453 178.461 25.1484C178.409 25.8385 178.383 26.4049 178.383 26.8477C178.383 27.4727 178.428 28.0911 178.52 28.7031C178.624 29.3021 178.826 29.8685 179.125 30.4023C179.19 30.5195 179.281 30.6562 179.398 30.8125C179.529 30.9557 179.672 31.0273 179.828 31.0273C179.945 31.0273 180.062 30.9297 180.18 30.7344C180.31 30.5391 180.427 30.3112 180.531 30.0508C180.635 29.7904 180.72 29.5365 180.785 29.2891C180.85 29.0417 180.896 28.8594 180.922 28.7422C180.935 28.6901 180.941 28.6315 180.941 28.5664C180.941 28.5013 180.941 28.4362 180.941 28.3711C180.941 28.2539 180.941 28.1432 180.941 28.0391C180.954 27.9219 180.974 27.8307 181 27.7656C181.091 27.5443 181.208 27.3945 181.352 27.3164C181.508 27.2383 181.697 27.1992 181.918 27.1992C182.113 27.1992 182.322 27.2253 182.543 27.2773C182.764 27.3294 182.973 27.4141 183.168 27.5312C183.363 27.6484 183.526 27.7982 183.656 27.9805C183.786 28.1628 183.852 28.3776 183.852 28.625ZM193.227 24.9922C193.227 26.125 193.129 27.2578 192.934 28.3906C192.751 29.5104 192.367 30.5716 191.781 31.5742C191.599 31.8737 191.391 32.1667 191.156 32.4531C190.922 32.7266 190.661 32.974 190.375 33.1953C190.102 33.4297 189.796 33.612 189.457 33.7422C189.132 33.8854 188.786 33.957 188.422 33.957C187.849 33.957 187.348 33.8203 186.918 33.5469C186.501 33.2865 186.137 32.9414 185.824 32.5117C185.525 32.069 185.271 31.5742 185.062 31.0273C184.867 30.4674 184.711 29.901 184.594 29.3281C184.49 28.7422 184.411 28.1758 184.359 27.6289C184.32 27.082 184.301 26.6003 184.301 26.1836C184.301 25.7148 184.32 25.2005 184.359 24.6406C184.398 24.0807 184.464 23.5078 184.555 22.9219C184.659 22.3359 184.789 21.7565 184.945 21.1836C185.115 20.6107 185.329 20.0768 185.59 19.582C185.85 19.0742 186.163 18.625 186.527 18.2344C186.892 17.8307 187.315 17.5117 187.797 17.2773V17.2969C188.214 17.0755 188.63 16.9648 189.047 16.9648C189.307 16.9648 189.509 17.0234 189.652 17.1406C189.796 17.2448 189.861 17.4271 189.848 17.6875C190.564 17.8177 191.143 18.1628 191.586 18.7227C192.029 19.2826 192.367 19.9336 192.602 20.6758C192.849 21.418 193.012 22.1797 193.09 22.9609C193.181 23.7422 193.227 24.4193 193.227 24.9922ZM188.812 20.1094C188.591 20.1094 188.383 20.0247 188.188 19.8555C187.94 20.2331 187.732 20.6693 187.562 21.1641C187.393 21.6458 187.257 22.1471 187.152 22.668C187.061 23.1758 186.996 23.6901 186.957 24.2109C186.918 24.7318 186.898 25.2201 186.898 25.6758C186.898 26.0534 186.918 26.5417 186.957 27.1406C186.996 27.7266 187.068 28.319 187.172 28.918C187.289 29.5169 187.445 30.0768 187.641 30.5977C187.849 31.1185 188.116 31.5026 188.441 31.75C188.845 31.5156 189.177 31.1445 189.438 30.6367C189.711 30.1159 189.926 29.5495 190.082 28.9375C190.238 28.3255 190.342 27.707 190.395 27.082C190.46 26.457 190.492 25.9232 190.492 25.4805C190.492 25.1549 190.473 24.7318 190.434 24.2109C190.395 23.6901 190.329 23.1628 190.238 22.6289C190.147 22.082 190.017 21.5742 189.848 21.1055C189.691 20.6367 189.49 20.2852 189.242 20.0508C189.125 20.0898 188.982 20.1094 188.812 20.1094ZM197.875 32.9023C197.875 33.2018 197.784 33.3971 197.602 33.4883C197.432 33.5794 197.224 33.625 196.977 33.625C196.755 33.625 196.534 33.6055 196.312 33.5664C196.104 33.5404 195.902 33.4818 195.707 33.3906C195.525 33.2995 195.362 33.1758 195.219 33.0195C195.089 32.8633 194.997 32.6615 194.945 32.4141C194.763 31.6328 194.659 30.8711 194.633 30.1289C194.607 29.3737 194.594 28.599 194.594 27.8047V25.4023C194.594 24.3086 194.639 23.1758 194.73 22.0039C194.822 20.819 194.919 19.6797 195.023 18.5859C195.023 18.5469 195.03 18.5013 195.043 18.4492C195.056 18.3971 195.062 18.3581 195.062 18.332C195.076 18.1888 195.095 18.0326 195.121 17.8633C195.147 17.694 195.186 17.5443 195.238 17.4141C195.303 17.2708 195.388 17.1536 195.492 17.0625C195.609 16.9714 195.759 16.9258 195.941 16.9258C196.15 16.9258 196.345 16.9714 196.527 17.0625C196.723 17.1406 196.892 17.2513 197.035 17.3945C197.178 17.5247 197.289 17.6875 197.367 17.8828C197.458 18.0781 197.504 18.2799 197.504 18.4883C197.504 18.7487 197.491 19.0221 197.465 19.3086C197.452 19.582 197.432 19.849 197.406 20.1094C197.38 20.2917 197.361 20.4284 197.348 20.5195C197.348 20.6107 197.341 20.7604 197.328 20.9688C197.484 20.6953 197.66 20.4219 197.855 20.1484C198.064 19.862 198.292 19.6146 198.539 19.4062C198.786 19.1849 199.053 19.0091 199.34 18.8789C199.639 18.7357 199.958 18.6641 200.297 18.6641C200.635 18.6641 200.915 18.7227 201.137 18.8398C201.358 18.944 201.534 19.0938 201.664 19.2891C201.794 19.4714 201.885 19.6927 201.938 19.9531C201.99 20.2135 202.016 20.487 202.016 20.7734C202.016 20.9557 202.009 21.1315 201.996 21.3008C201.996 21.4701 201.99 21.6393 201.977 21.8086C201.964 21.9779 201.951 22.1471 201.938 22.3164C201.938 22.4727 201.938 22.6419 201.938 22.8242C201.938 23.1628 201.944 23.4883 201.957 23.8008C201.983 24.1003 202.009 24.4193 202.035 24.7578C202.165 24.3281 202.322 23.8398 202.504 23.293C202.699 22.7461 202.921 22.1862 203.168 21.6133C203.428 21.0404 203.708 20.4805 204.008 19.9336C204.32 19.3737 204.652 18.8789 205.004 18.4492C205.368 18.0195 205.759 17.6745 206.176 17.4141C206.592 17.1406 207.029 17.0039 207.484 17.0039C208.201 17.0039 208.702 17.2122 208.988 17.6289C209.288 18.0456 209.438 18.5794 209.438 19.2305C209.438 19.4128 209.431 19.6081 209.418 19.8164C209.405 20.0117 209.385 20.2005 209.359 20.3828C209.294 21.0859 209.242 21.8086 209.203 22.5508C209.177 23.293 209.164 24.0156 209.164 24.7188V25.0898C209.164 26.0013 209.203 26.8607 209.281 27.668C209.359 28.4753 209.516 29.3281 209.75 30.2266L209.906 30.7539C209.958 30.9362 210.017 31.138 210.082 31.3594C210.16 31.5807 210.225 31.7956 210.277 32.0039C210.329 32.2122 210.375 32.4076 210.414 32.5898C210.453 32.7721 210.473 32.9154 210.473 33.0195C210.473 33.293 210.375 33.4753 210.18 33.5664C209.984 33.6576 209.783 33.7031 209.574 33.7031C209.444 33.7031 209.294 33.6966 209.125 33.6836C208.956 33.6836 208.786 33.6641 208.617 33.625C208.461 33.599 208.305 33.5534 208.148 33.4883C208.005 33.4232 207.888 33.3385 207.797 33.2344V33.2539C207.68 33.1367 207.595 32.9935 207.543 32.8242C207.491 32.6549 207.452 32.4857 207.426 32.3164L207.387 32.1406C207.204 31.4375 207.048 30.806 206.918 30.2461C206.801 29.6862 206.703 29.1263 206.625 28.5664C206.547 28.0065 206.488 27.4271 206.449 26.8281C206.423 26.2292 206.41 25.5391 206.41 24.7578C206.41 24.0938 206.436 23.4167 206.488 22.7266C206.553 22.0365 206.618 21.3594 206.684 20.6953C206.684 20.6302 206.684 20.5586 206.684 20.4805C206.697 20.3893 206.71 20.3112 206.723 20.2461C206.228 21.0143 205.792 21.8607 205.414 22.7852C205.049 23.6966 204.717 24.6341 204.418 25.5977C204.132 26.5612 203.878 27.5312 203.656 28.5078C203.448 29.4714 203.259 30.3893 203.09 31.2617C203.09 31.2747 203.116 31.3529 203.168 31.4961C203.233 31.6263 203.292 31.7826 203.344 31.9648C203.409 32.1341 203.467 32.3034 203.52 32.4727C203.572 32.6289 203.598 32.7331 203.598 32.7852C203.598 33.0846 203.5 33.2669 203.305 33.332C203.109 33.3971 202.908 33.4297 202.699 33.4297C202.543 33.4297 202.374 33.4232 202.191 33.4102C202.009 33.3971 201.827 33.3646 201.645 33.3125C201.475 33.2604 201.312 33.1888 201.156 33.0977C201.013 33.0195 200.896 32.9023 200.805 32.7461C200.727 32.6159 200.635 32.3099 200.531 31.8281C200.427 31.3333 200.316 30.7604 200.199 30.1094C200.082 29.4453 199.971 28.7357 199.867 27.9805C199.763 27.2253 199.665 26.5091 199.574 25.832C199.483 25.1549 199.411 24.5625 199.359 24.0547C199.307 23.5469 199.281 23.2018 199.281 23.0195V22.7266C198.865 23.625 198.52 24.5885 198.246 25.6172C197.973 26.6458 197.764 27.6549 197.621 28.6445L197.543 28.9961C197.517 29.1003 197.497 29.2044 197.484 29.3086C197.471 29.3997 197.465 29.4909 197.465 29.582C197.465 29.7253 197.478 29.901 197.504 30.1094C197.543 30.3177 197.589 30.5456 197.641 30.793C197.706 31.1315 197.758 31.4831 197.797 31.8477C197.849 32.1992 197.875 32.5508 197.875 32.9023ZM219.281 29.4258C219.281 29.8164 219.171 30.2201 218.949 30.6367C218.741 31.0534 218.467 31.4375 218.129 31.7891C217.79 32.1276 217.4 32.4076 216.957 32.6289C216.527 32.8503 216.098 32.9609 215.668 32.9609C215.056 32.9609 214.529 32.8438 214.086 32.6094C213.643 32.362 213.259 32.0365 212.934 31.6328C212.608 31.2161 212.341 30.7474 212.133 30.2266C211.938 29.7057 211.781 29.1719 211.664 28.625C211.547 28.0651 211.462 27.5117 211.41 26.9648C211.371 26.4049 211.352 25.8971 211.352 25.4414C211.352 25.0508 211.371 24.5885 211.41 24.0547C211.462 23.5208 211.54 22.9674 211.645 22.3945C211.762 21.8216 211.918 21.2552 212.113 20.6953C212.309 20.1354 212.549 19.6341 212.836 19.1914C213.135 18.7487 213.487 18.3906 213.891 18.1172C214.307 17.8438 214.783 17.707 215.316 17.707C215.733 17.707 216.104 17.7917 216.43 17.9609C216.768 18.1302 217.048 18.3581 217.27 18.6445C217.504 18.918 217.68 19.237 217.797 19.6016C217.927 19.9661 217.992 20.3438 217.992 20.7344C217.992 21.2422 217.875 21.7956 217.641 22.3945C217.406 22.9935 217.1 23.5729 216.723 24.1328C216.358 24.6927 215.941 25.2005 215.473 25.6562C215.017 26.099 214.561 26.4375 214.105 26.6719C214.132 26.9062 214.184 27.2513 214.262 27.707C214.34 28.1497 214.444 28.5924 214.574 29.0352C214.717 29.4779 214.88 29.862 215.062 30.1875C215.258 30.513 215.486 30.6758 215.746 30.6758C215.876 30.6758 215.987 30.6367 216.078 30.5586C216.182 30.4805 216.273 30.3763 216.352 30.2461C216.43 30.1159 216.495 29.9727 216.547 29.8164C216.612 29.6602 216.671 29.5104 216.723 29.3672L216.84 29.0938C216.866 29.0547 216.879 29.0286 216.879 29.0156C216.892 29.0026 216.905 28.9831 216.918 28.957C217.009 28.7878 217.094 28.6315 217.172 28.4883C217.263 28.3451 217.387 28.2214 217.543 28.1172H217.523C217.576 28.0651 217.628 28.0391 217.68 28.0391C217.745 28.026 217.803 28.0195 217.855 28.0195C217.999 28.0195 218.155 28.0651 218.324 28.1562C218.493 28.2474 218.65 28.3646 218.793 28.5078C218.936 28.638 219.053 28.7878 219.145 28.957C219.236 29.1133 219.281 29.2695 219.281 29.4258ZM215.414 20.8125C215.414 20.6823 215.408 20.5456 215.395 20.4023C215.382 20.2591 215.349 20.1354 215.297 20.0312C215.115 20.2526 214.952 20.5195 214.809 20.832C214.678 21.1315 214.568 21.4505 214.477 21.7891C214.385 22.1146 214.307 22.4466 214.242 22.7852C214.19 23.1237 214.151 23.4362 214.125 23.7227C214.464 23.319 214.763 22.8633 215.023 22.3555C215.284 21.8346 215.414 21.3203 215.414 20.8125ZM224.633 27.6875C224.633 28.2604 224.372 28.5469 223.852 28.5469C223.695 28.5469 223.5 28.5273 223.266 28.4883C223.044 28.4492 222.816 28.3906 222.582 28.3125C222.348 28.2344 222.133 28.1432 221.938 28.0391C221.755 27.9219 221.625 27.7917 221.547 27.6484C221.443 27.4661 221.391 27.2773 221.391 27.082C221.391 26.8737 221.391 26.6589 221.391 26.4375C221.312 23.5469 221.208 20.6758 221.078 17.8242C220.961 14.9596 220.844 12.0755 220.727 9.17188C220.701 8.5599 220.674 7.94792 220.648 7.33594C220.622 6.71094 220.609 6.08594 220.609 5.46094C220.609 5.16146 220.642 4.9401 220.707 4.79688C220.772 4.64062 220.974 4.5625 221.312 4.5625C221.482 4.5625 221.664 4.58854 221.859 4.64062C222.055 4.67969 222.237 4.74479 222.406 4.83594C222.589 4.91406 222.745 5.01823 222.875 5.14844C223.018 5.26562 223.122 5.40885 223.188 5.57812C223.227 5.68229 223.272 6.02734 223.324 6.61328C223.389 7.19922 223.454 7.95443 223.52 8.87891C223.585 9.79036 223.65 10.8255 223.715 11.9844C223.78 13.1432 223.845 14.3411 223.91 15.5781C223.988 16.8021 224.06 18.026 224.125 19.25C224.19 20.4609 224.249 21.5872 224.301 22.6289C224.366 23.6706 224.418 24.582 224.457 25.3633C224.509 26.1445 224.555 26.7109 224.594 27.0625C224.594 27.1667 224.6 27.2708 224.613 27.375C224.626 27.4792 224.633 27.5833 224.633 27.6875ZM221.586 30.8906C221.586 30.7604 221.632 30.6628 221.723 30.5977C221.814 30.5195 221.924 30.4674 222.055 30.4414C222.198 30.4023 222.335 30.3828 222.465 30.3828C222.608 30.3828 222.732 30.3828 222.836 30.3828C222.966 30.3828 223.116 30.3893 223.285 30.4023C223.467 30.4023 223.637 30.4284 223.793 30.4805C223.949 30.5195 224.079 30.5911 224.184 30.6953C224.301 30.7865 224.359 30.9167 224.359 31.0859C224.359 31.151 224.353 31.2943 224.34 31.5156C224.34 31.724 224.333 31.9518 224.32 32.1992C224.32 32.4466 224.307 32.6745 224.281 32.8828C224.268 33.0781 224.255 33.1823 224.242 33.1953C224.164 33.3385 224.04 33.4167 223.871 33.4297C223.702 33.4557 223.539 33.4688 223.383 33.4688C222.992 33.4688 222.699 33.4492 222.504 33.4102C222.309 33.3711 222.165 33.293 222.074 33.1758C221.996 33.0586 221.938 32.8958 221.898 32.6875C221.872 32.4792 221.833 32.2057 221.781 31.8672C221.755 31.7109 221.716 31.5547 221.664 31.3984C221.612 31.2422 221.586 31.0729 221.586 30.8906Z" fill="white"/>
<path d="M241.002 29.0899C241.002 29.0899 240.108 31.3406 239.64 32.2025C239.765 33.4928 245.811 36.1094 246.535 35.7275C246.887 34.8139 247.1 34.2028 247.485 33.7655C249.095 30.9768 242.444 26.8084 241.002 29.0899Z" fill="#F0D3D8" stroke="#E9B490" stroke-opacity="0.979118" stroke-linecap="round" stroke-linejoin="round"/>
<path d="M241.647 29.685C239.969 27.9618 238.692 25.2728 238.55 23.3871C238.407 21.5013 237.486 18.4411 237.249 16.5077C237.171 15.8173 236.502 14.1137 236.85 13.4216C237.119 12.8855 238.23 12.7569 239.35 14.1831C240.442 15.3734 240.904 16.5854 241.016 18.139C241.061 18.8139 241.178 20.2499 242.083 20.6213C242.988 20.9927 243.897 20.0076 244.316 19.456C244.736 18.9044 245.131 17.9093 245.661 16.7226C246.192 15.5359 246.069 14.4629 246.925 12.1329C247.373 10.9129 247.917 9.78211 248.333 8.49704C248.765 7.28807 249.822 4.9906 251.001 5.62411C252.275 6.30928 251.241 8.36337 250.873 9.28677C250.269 10.8041 249.988 12.0956 249.681 13.4625C249.503 14.253 248.855 15.5752 248.547 17.1204C248.526 17.2261 248.939 17.3558 248.985 17.2488C249.552 15.9447 249.977 14.5281 250.597 12.9162C251.248 11.6219 251.775 10.4556 252.308 9.18349C252.928 8.03345 253.616 6.03163 254.773 5.82932C255.311 5.75048 255.939 6.11405 256.071 6.60162C256.15 7.82224 255.606 8.76278 255.056 9.83479C254.289 11.3288 253.87 13.0468 253.333 14.331C252.742 15.7042 251.957 17.0573 251.395 18.28C251.276 18.5382 251.611 18.7899 251.795 18.5394C252.426 17.6848 253.008 16.642 253.565 15.8777C254.448 14.6685 255.029 13.6263 255.732 12.4821C256.27 11.6045 256.616 10.5456 257.303 9.82175C258.221 8.85342 259.707 9.76251 259.385 10.8997C259.141 11.7622 258.719 12.4506 258.385 13.1185C258.154 13.5804 257.537 14.4996 257.017 15.488C256.605 16.2712 256.07 17.0451 255.567 17.7721C254.912 18.7184 254.205 20.0131 253.978 20.6949C253.887 20.9683 254.012 21.3655 254.151 21.2585C254.637 20.883 255.048 20.2568 255.712 19.5757C256.591 18.675 257.236 17.8724 258.07 17.0966C258.869 16.1966 259.601 15.0625 260.422 14.9986C260.85 14.9653 261.322 15.1832 261.48 15.7321C261.721 16.5645 260.383 18.1563 259.6 19.2202C259.04 19.9818 258.318 20.8193 257.666 21.6107C256.612 22.8917 255.917 23.8217 255.189 24.9831C253.051 28.2755 250.315 32.8384 247.367 33.7876C247.204 33.8333 246.752 33.9138 246.378 33.5494" fill="#F0D3D8"/>
<path d="M241.647 29.685C239.969 27.9618 238.692 25.2728 238.55 23.3871C238.407 21.5013 237.486 18.4411 237.249 16.5077C237.171 15.8173 236.502 14.1137 236.85 13.4216C237.119 12.8855 238.23 12.7569 239.35 14.1831C240.442 15.3734 240.904 16.5854 241.016 18.139C241.061 18.8139 241.178 20.2499 242.083 20.6213C242.988 20.9927 243.897 20.0076 244.316 19.456C244.736 18.9044 245.131 17.9093 245.661 16.7226C246.192 15.5359 246.069 14.4629 246.925 12.1329C247.373 10.9129 247.917 9.78211 248.333 8.49704C248.765 7.28807 249.822 4.9906 251.001 5.62411C252.275 6.30928 251.241 8.36337 250.873 9.28677C250.269 10.8041 249.988 12.0956 249.681 13.4625C249.503 14.253 248.855 15.5752 248.547 17.1204C248.526 17.2261 248.939 17.3558 248.985 17.2488C249.552 15.9447 249.977 14.5281 250.597 12.9162C251.248 11.6219 251.775 10.4556 252.308 9.18349C252.928 8.03345 253.616 6.03163 254.773 5.82932C255.311 5.75048 255.939 6.11405 256.071 6.60162C256.15 7.82224 255.606 8.76278 255.056 9.83479C254.289 11.3288 253.87 13.0468 253.333 14.331C252.742 15.7042 251.957 17.0573 251.395 18.28C251.276 18.5382 251.611 18.7899 251.795 18.5394C252.426 17.6848 253.008 16.642 253.565 15.8777C254.448 14.6685 255.029 13.6263 255.732 12.4821C256.27 11.6045 256.616 10.5456 257.303 9.82175C258.221 8.85342 259.707 9.76251 259.385 10.8997C259.141 11.7622 258.719 12.4506 258.385 13.1185C258.154 13.5804 257.537 14.4996 257.017 15.488C256.605 16.2712 256.07 17.0451 255.567 17.7721C254.912 18.7184 254.205 20.0131 253.978 20.6949C253.887 20.9683 254.012 21.3655 254.151 21.2585C254.637 20.883 255.048 20.2568 255.712 19.5757C256.591 18.675 257.236 17.8724 258.07 17.0966C258.869 16.1966 259.601 15.0625 260.422 14.9986C260.85 14.9653 261.322 15.1832 261.48 15.7321C261.721 16.5645 260.383 18.1563 259.6 19.2202C259.04 19.9818 258.318 20.8193 257.666 21.6107C256.612 22.8917 255.917 23.8217 255.189 24.9831C253.051 28.2755 250.315 32.8384 247.367 33.7876C247.204 33.8333 246.752 33.9138 246.378 33.5494" stroke="#E9B490" stroke-opacity="0.979118" stroke-linecap="round" stroke-linejoin="round"/>
<path d="M245.225 21.5259C246.409 22.8607 246.962 25.9506 246.312 27.9666L245.225 21.5259Z" fill="#F0D3D8"/>
<path d="M245.225 21.5259C246.409 22.8607 246.962 25.9506 246.312 27.9666" stroke="#E9B490" stroke-opacity="0.979118" stroke-linecap="round" stroke-linejoin="round"/>
<path d="M243.312 9.04998C243.102 7.05398 244.144 4.64139 246.102 3.68487M240.595 6.78051C240.51 5.43948 241.327 3.45904 242.77 2.49908" stroke="white" stroke-opacity="0.4" stroke-linecap="round"/>
<path d="M261.506 24.7638C263.382 24.0507 265.066 22.0331 265.037 19.8544M264.756 26.1656C265.992 25.6368 267.391 24.0143 267.597 22.2935" stroke="white" stroke-opacity="0.4" stroke-linecap="round"/>
<g opacity="0.6">
<path d="M155 53L146 66C145.667 65.3333 144.3 64 141.5 64C138.7 64 137.333 65.3333 137 66L129.5 60.5L110 66L107 63L104 66H59C59 65.3333 58.2 64 55 64C51.8 64 51 65.3333 51 66H49.5L46.5 63L43.5 66H42C41.8333 65.3333 40.8 64 38 64C35.2 64 33.8333 65.3333 33.5 66L28.5 62.5L15.5 66" stroke="white" stroke-linejoin="round"/>
<path d="M146 66L155 61" stroke="white"/>
<path opacity="0.25" d="M5.6 67.8C6.48366 67.8 7.2 67.0836 7.2 66.2C7.2 65.3163 6.48366 64.6 5.6 64.6C4.71634 64.6 4 65.3163 4 66.2C4 67.0836 4.71634 67.8 5.6 67.8Z" fill="white"/>
<path d="M155 79L146 66C145.667 66.6667 144.3 68 141.5 68C138.7 68 137.333 66.6667 137 66L129.5 71.5L110 66L107 69L104 66H59C59 66.6667 58.2 68 55 68C51.8 68 51 66.6667 51 66H49.5L46.5 69L43.5 66H42C41.8333 66.6667 40.8 68 38 68C35.2 68 33.8333 66.6667 33.5 66L28.5 69.5L15.5 66" stroke="white" stroke-linejoin="round"/>
<path d="M146 66L155 71" stroke="white"/>
<path opacity="0.25" d="M5.6 64.2C6.48366 64.2 7.2 64.9164 7.2 65.8C7.2 66.6837 6.48366 67.4 5.6 67.4C4.71634 67.4 4 66.6837 4 65.8C4 64.9164 4.71634 64.2 5.6 64.2Z" fill="white"/>
<path d="M155 79L164 66C164.333 66.6667 165.7 68 168.5 68C171.3 68 172.667 66.6667 173 66L180.5 71.5L200 66L203 69L206 66H251C251 66.6667 251.8 68 255 68C258.2 68 259 66.6667 259 66H260.5L263.5 69L266.5 66H268C268.167 66.6667 269.2 68 272 68C274.8 68 276.167 66.6667 276.5 66L281.5 69.5L294.5 66" stroke="white" stroke-linejoin="round"/>
<path d="M164 66L155 71" stroke="white"/>
<path opacity="0.25" d="M304.4 64.2C303.516 64.2 302.8 64.9164 302.8 65.8C302.8 66.6837 303.516 67.4 304.4 67.4C305.284 67.4 306 66.6837 306 65.8C306 64.9164 305.284 64.2 304.4 64.2Z" fill="white"/>
<path d="M155 53L164 66C164.333 65.3333 165.7 64 168.5 64C171.3 64 172.667 65.3333 173 66L180.5 60.5L200 66L203 63L206 66H251C251 65.3333 251.8 64 255 64C258.2 64 259 65.3333 259 66H260.5L263.5 63L266.5 66H268C268.167 65.3333 269.2 64 272 64C274.8 64 276.167 65.3333 276.5 66L281.5 62.5L294.5 66" stroke="white" stroke-linejoin="round"/>
<path d="M164 66L155 61" stroke="white"/>
<path opacity="0.25" d="M304.4 67.8C303.516 67.8 302.8 67.0836 302.8 66.2C302.8 65.3163 303.516 64.6 304.4 64.6C305.284 64.6 306 65.3163 306 66.2C306 67.0836 305.284 67.8 304.4 67.8Z" fill="white"/>
</g>
</svg>
