<svg width="237" height="26" viewBox="0 0 237 26" fill="none" xmlns="http://www.w3.org/2000/svg">
<path d="M118.6 14.7C119.484 14.7 120.2 13.9837 120.2 13.1C120.2 12.2163 119.484 11.5 118.6 11.5C117.716 11.5 117 12.2163 117 13.1C117 13.9837 117.716 14.7 118.6 14.7Z" fill="white"/>
<path d="M108.5 13H46C46 13.6667 45.2 15 42 15C38.8 15 38 13.6667 38 13H36.5L33.5 16L30.5 13H29C28.8333 13.6667 27.8 15 25 15C22.2 15 20.8333 13.6667 20.5 13L15.5 16.5L2.5 13" stroke="white" stroke-linejoin="round"/>
<path d="M108.5 13H46C46 12.3333 45.2 11 42 11C38.8 11 38 12.3333 38 13H36.5L33.5 10L30.5 13H29C28.8333 12.3333 27.8 11 25 11C22.2 11 20.8333 12.3333 20.5 13L15.5 9.5L2.5 13" stroke="white" stroke-linejoin="round"/>
<path d="M128.5 13H191C191 12.3333 191.8 11 195 11C198.2 11 199 12.3333 199 13H200.5L203.5 10L206.5 13H208C208.167 12.3333 209.2 11 212 11C214.8 11 216.167 12.3333 216.5 13L221.5 9.5L234.5 13" stroke="white" stroke-linejoin="round"/>
<path d="M128.5 13H191C191 13.6667 191.8 15 195 15C198.2 15 199 13.6667 199 13H200.5L203.5 16L206.5 13H208C208.167 13.6667 209.2 15 212 15C214.8 15 216.167 13.6667 216.5 13L221.5 16.5L234.5 13" stroke="white" stroke-linejoin="round"/>
</svg>
