<svg width="20" height="20" viewBox="0 0 20 20" fill="none" xmlns="http://www.w3.org/2000/svg">
<g clip-path="url(#clip0_7_19)">
<path d="M0.833374 1.08331H19.1668V18.9167H0.833374V1.08331Z" fill="url(#paint0_radial_7_19)"/>
<path d="M0.833323 1.08326H19.1667V18.9166H0.833323V1.08326ZM0 19.75H20V0.249939H0V19.75ZM13.1 7.19996C13.1 7.1333 13.125 7.09994 13.2 7.09994H14.5084C14.575 7.09994 14.6083 7.12493 14.6083 7.19996V13.775C14.6083 13.8416 14.5917 13.875 14.5084 13.875H13.2167C13.1334 13.875 13.1083 13.8333 13.1083 13.7667V7.19996H13.1ZM13.0084 5.30827C13.0084 4.77494 13.3833 4.45828 13.8584 4.45828C14.3667 4.45828 14.7084 4.79994 14.7084 5.30827C14.7084 5.85827 14.35 6.15826 13.8417 6.15826C13.3583 6.15829 13.0084 5.85827 13.0084 5.30827ZM9.25835 9.94163C9.02505 9.01662 8.47505 6.99995 8.26668 6.02494H8.25001C8.075 6.99995 7.63336 8.64993 7.28337 9.94163H9.25835ZM6.94169 11.2917L6.28334 13.7917C6.26667 13.8583 6.24168 13.8749 6.15836 13.8749H4.93335C4.85003 13.8749 4.83333 13.8499 4.85003 13.75L7.21668 5.46659C7.25834 5.31661 7.28334 5.18326 7.3 4.77494C7.3 4.71662 7.325 4.69162 7.36666 4.69162H9.11667C9.17499 4.69162 9.19999 4.70829 9.21669 4.77494L11.8667 13.7666C11.8833 13.8333 11.8667 13.8749 11.8 13.8749H10.4167C10.35 13.8749 10.3083 13.8583 10.2917 13.8L9.60833 11.2917H6.94169Z" fill="#FF7F18"/>
</g>
<defs>
<radialGradient id="paint0_radial_7_19" cx="0" cy="0" r="1" gradientUnits="userSpaceOnUse" gradientTransform="translate(6.8715 5.07979) scale(13.9334 13.49)">
<stop stop-color="#423325" stop-opacity="0.98"/>
<stop offset="1" stop-color="#1C0A00"/>
</radialGradient>
<clipPath id="clip0_7_19">
<rect width="20" height="20" fill="white"/>
</clipPath>
</defs>
</svg>
