<svg width="20" height="15" viewBox="0 0 20 15" fill="none" xmlns="http://www.w3.org/2000/svg">
<path d="M0.00422217 2.44677C0.0774376 1.79444 0.377486 1.18988 0.850565 0.741499C1.32364 0.293118 1.93881 0.0302402 2.58576 0H13.9584C14.3661 0.0340849 14.7613 0.159561 15.1153 0.367362C15.4694 0.575162 15.7735 0.860093 16.0056 1.20157C16.2148 1.51264 16.3623 1.86196 16.44 2.23009L19.7822 0.550132C19.8034 0.539379 19.8268 0.533928 19.8505 0.534232C19.8742 0.534537 19.8975 0.540589 19.9184 0.551884C19.9393 0.563179 19.9573 0.579387 19.9708 0.599155C19.9842 0.618922 19.9929 0.641673 19.9959 0.665507C19.9959 1.30006 19.9959 1.93181 19.9959 2.57058C19.9972 2.63424 19.9795 2.69681 19.9451 2.75005C19.9106 2.8033 19.8611 2.84472 19.803 2.86887C16.7283 4.41469 13.6531 5.96239 10.5774 7.51196L19.7822 12.1283C19.841 12.149 19.8925 12.1866 19.9305 12.2366C19.9685 12.2866 19.9912 12.3468 19.9959 12.4097C19.9959 13.0457 19.9959 13.676 19.9959 14.3176C19.9961 14.3466 19.9883 14.3751 19.9734 14.3999C19.9586 14.4246 19.9372 14.4447 19.9117 14.4579C19.8862 14.471 19.8575 14.4767 19.829 14.4743C19.8005 14.4719 19.7732 14.4615 19.7502 14.4442C18.6538 13.8814 17.542 13.351 16.4539 12.7769C16.3808 13.0435 16.2832 13.3026 16.1624 13.5508C15.9781 13.8947 15.725 14.1958 15.4193 14.4349C15.1137 14.674 14.7622 14.8459 14.3873 14.9395C14.1365 14.9929 13.88 15.0142 13.6239 15.0028H3.02435C2.78562 15.0028 2.54551 15.0028 2.30818 14.9845C1.70981 14.8937 1.15838 14.6032 0.741108 14.1591C0.323838 13.7149 0.0645387 13.1424 0.00422217 12.5321C0.00422217 11.9173 0.00422217 11.301 0.00422217 10.6861C0.0142814 10.6092 0.0457201 10.5367 0.0948685 10.4772C0.144017 10.4176 0.208849 10.3735 0.281807 10.3499C2.17216 9.40296 4.05835 8.44761 5.95148 7.50492C4.04447 6.54253 2.13608 5.58296 0.226291 4.6262C0.161364 4.59716 0.106112 4.54969 0.0672015 4.48952C0.028291 4.42936 0.00738196 4.35906 0.0069965 4.28712C0.00422065 3.67508 -0.0054933 3.06022 0.00422217 2.44677ZM2.11109 2.45943C1.99728 2.69158 2.05003 2.96032 2.04031 3.21076C4.1222 4.25335 6.18882 5.30156 8.26654 6.33711C10.3197 5.30532 12.3739 4.27352 14.4289 3.24172C14.4289 3.05459 14.4373 2.86746 14.4289 2.67892C14.4047 2.5104 14.3211 2.35649 14.1935 2.24575C14.0658 2.13501 13.9029 2.07495 13.735 2.07673H2.74537C2.61442 2.07227 2.48495 2.10596 2.3723 2.17378C2.25964 2.24161 2.16851 2.34073 2.10971 2.45943H2.11109ZM2.04031 11.7963C2.05003 12.0495 1.99589 12.3225 2.11664 12.5575C2.17727 12.673 2.2685 12.7691 2.38006 12.835C2.49162 12.9008 2.61909 12.9339 2.74815 12.9303H13.7447C13.8665 12.9313 13.9864 12.8994 14.0921 12.8378C14.1977 12.7762 14.2852 12.6872 14.3457 12.58C14.4844 12.3337 14.4206 12.0383 14.4345 11.7681C12.3762 10.7382 10.3207 9.6914 8.25821 8.67273C6.1791 9.71391 4.106 10.7551 2.03892 11.7963H2.04031Z" fill="#76DAFF"/>
</svg>
