<svg width="20" height="20" viewBox="0 0 20 20" fill="none" xmlns="http://www.w3.org/2000/svg">
<g clip-path="url(#clip0_3_37)">
<path d="M0 0H16.8C17.6487 0 18.4626 0.337142 19.0627 0.937258C19.6629 1.53737 20 2.35131 20 3.2V16.8C20 17.6487 19.6629 18.4626 19.0627 19.0627C18.4626 19.6629 17.6487 20 16.8 20H3.2C2.35131 20 1.53737 19.6629 0.937258 19.0627C0.337142 18.4626 0 17.6487 0 16.8L0 0Z" fill="#AF60FF"/>
<path d="M7.16195 18.4C5.87735 18.3988 5.08475 17.6754 5.09995 16.3442V12.9764C5.09995 12.3016 5.29755 11.7884 5.69275 11.4372C6.40255 10.7534 8.04935 10.7118 8.74455 11.4476C9.17295 11.8254 9.33455 12.5972 9.29615 13.3174H7.82175C7.83295 13.0344 7.81795 12.6058 7.65155 12.4444C7.43535 12.1518 6.86435 12.1862 6.71335 12.4908C6.62055 12.656 6.57415 12.9006 6.57415 13.2242V16.1478C6.57415 16.7608 6.78715 17.0708 7.21335 17.0776C7.41255 17.0776 7.56395 17.0052 7.66695 16.8606C7.81075 16.689 7.83315 16.309 7.82155 16.0342H9.29595C9.39675 17.4356 8.56955 18.4174 7.16175 18.4H7.16195ZM11.8427 18.4C10.4193 18.4196 9.78255 17.4068 9.82195 16.0342H11.2137C11.1751 16.6326 11.3807 17.1776 11.8735 17.1396C12.0933 17.1396 12.2481 17.0708 12.3375 16.933C12.5075 16.6812 12.5393 15.954 12.2963 15.6726C12.1265 15.4016 11.5157 15.1624 11.1931 15.0012C10.7325 14.7808 10.4009 14.5192 10.1981 14.216C9.74075 13.5432 9.78315 12.0664 10.4249 11.468C11.0485 10.7296 12.6771 10.6956 13.3013 11.4526C13.6863 11.8428 13.8545 12.6106 13.8219 13.3172H12.4815C12.4929 13.0268 12.4655 12.5582 12.3527 12.3874C12.2737 12.2428 12.1241 12.1704 11.9043 12.1704C11.5125 12.1704 11.3167 12.4046 11.3167 12.8728C11.3209 13.37 11.5147 13.574 11.9663 13.7818C12.5511 14.009 13.2947 14.397 13.5643 14.8666C14.3683 16.2974 13.8167 18.483 11.8425 18.3996L11.8427 18.4ZM16.3379 18.4C14.9145 18.4196 14.2777 17.4068 14.3171 16.0342H15.7089C15.6703 16.6326 15.8759 17.1776 16.3687 17.1396C16.5885 17.1396 16.7433 17.0708 16.8327 16.933C17.0027 16.6812 17.0345 15.954 16.7915 15.6726C16.6217 15.4016 16.0109 15.1624 15.6883 15.0012C15.2277 14.7808 14.8961 14.5192 14.6933 14.216C14.2359 13.5432 14.2783 12.0664 14.9201 11.468C15.5437 10.7296 17.1723 10.6956 17.7965 11.4526C18.1815 11.8428 18.3497 12.6106 18.3171 13.3172H16.9767C16.9881 13.0268 16.9607 12.5582 16.8479 12.3874C16.7689 12.2428 16.6193 12.1704 16.3995 12.1704C16.0077 12.1704 15.8119 12.4046 15.8119 12.8728C15.8161 13.37 16.0099 13.574 16.4615 13.7818C17.0463 14.009 17.7899 14.397 18.0595 14.8666C18.8635 16.2974 18.3119 18.483 16.3377 18.3996L16.3379 18.4Z" fill="white"/>
</g>
<defs>
<clipPath id="clip0_3_37">
<rect width="20" height="20" fill="white"/>
</clipPath>
</defs>
</svg>
