<svg width="20" height="20" viewBox="0 0 20 20" fill="none" xmlns="http://www.w3.org/2000/svg">
<path d="M19.1744 8.35438C18.7913 8.10188 18.3206 7.95125 17.815 7.95125C17.7569 7.95125 17.6994 7.95313 17.6425 7.95688L17.65 7.95625C17.3713 7.95688 17.0988 7.98188 16.8338 8.02813L16.8625 8.02375C16.7156 7.17563 16.2219 6.46438 15.5363 6.02938L15.5244 6.0225L15.2563 5.8675L15.08 6.1225C14.87 6.4425 14.7056 6.815 14.6075 7.21313L14.6025 7.2375C14.5469 7.44 14.515 7.6725 14.515 7.9125C14.515 8.43188 14.665 8.91563 14.9238 9.32375L14.9175 9.31313C14.5194 9.5 14.0544 9.61813 13.565 9.64063H13.5569H1.22625C0.90375 9.64125 0.6425 9.90188 0.64125 10.2238C0.640625 10.2588 0.640625 10.3006 0.640625 10.3425C0.640625 11.4369 0.83875 12.485 1.20125 13.4531L1.18125 13.3919C1.53 14.4125 2.18875 15.2513 3.04375 15.8175L3.06125 15.8281C4.15125 16.3925 5.44125 16.7231 6.80813 16.7231C6.9375 16.7231 7.06563 16.72 7.19375 16.7144L7.17563 16.715C7.18688 16.715 7.2 16.715 7.21313 16.715C8.00813 16.715 8.785 16.6394 9.53813 16.495L9.46125 16.5075C10.5831 16.2975 11.5831 15.9206 12.4894 15.3994L12.4431 15.4238C13.2288 14.9644 13.9 14.4106 14.4712 13.7663L14.4788 13.7575C15.3069 12.7825 15.9806 11.6444 16.4444 10.4044L16.47 10.3263H16.6425C16.6769 10.3275 16.7169 10.3288 16.7569 10.3288C17.5231 10.3288 18.2194 10.0281 18.7338 9.53813L18.7325 9.53938C18.9681 9.31563 19.155 9.04375 19.2781 8.73875L19.2838 8.72375L19.36 8.49938L19.1744 8.35438ZM2.36875 9.28063H4.0225C4.10187 9.28 4.16625 9.21563 4.16625 9.13625V7.66438C4.16625 7.585 4.10187 7.52 4.0225 7.51938H2.36875C2.28937 7.52 2.225 7.58438 2.225 7.66375V9.13625C2.225 9.21563 2.28937 9.28063 2.36875 9.28063ZM4.64625 9.28063H6.29875C6.37813 9.28063 6.44313 9.21625 6.44313 9.13625V7.66438C6.44313 7.585 6.37875 7.52 6.29938 7.51938H4.64562C4.56562 7.51938 4.50063 7.58438 4.50063 7.66438V9.13625C4.50125 9.21625 4.56625 9.28063 4.64625 9.28063ZM6.9575 9.28063H8.61125C8.69063 9.28 8.755 9.21563 8.755 9.13625V7.66438C8.755 7.585 8.69063 7.52 8.61125 7.51938H6.9575C6.87813 7.52 6.81375 7.58438 6.81375 7.66375V9.13625C6.81375 9.21563 6.87813 9.28063 6.95813 9.28063H6.9575ZM9.2425 9.28063H10.8944C10.9744 9.28063 11.0388 9.21625 11.0394 9.13625V7.66438C11.0394 7.58438 10.9744 7.51938 10.8944 7.51938H9.2425C9.16313 7.51938 9.09813 7.58375 9.09813 7.66375V9.13625C9.09813 9.21563 9.1625 9.28063 9.24188 9.28063C9.24188 9.28063 9.24188 9.28063 9.2425 9.28063ZM4.64625 7.16313H6.29875C6.37875 7.1625 6.44313 7.09813 6.44313 7.01813V5.54625C6.44313 5.46688 6.37875 5.40188 6.29875 5.40188H4.64625C4.56625 5.40188 4.50188 5.46625 4.50125 5.54625V7.01813C4.50188 7.09813 4.56625 7.1625 4.64625 7.16313ZM6.9575 7.16313H8.61125C8.69063 7.1625 8.755 7.0975 8.755 7.01813V5.54625C8.755 5.46688 8.69063 5.40188 8.61063 5.40188H6.95875C6.87938 5.40188 6.81438 5.46625 6.81438 5.54625V7.01813C6.815 7.09813 6.87875 7.1625 6.95875 7.16313H6.9575ZM9.2425 7.16313H10.8944C10.9744 7.1625 11.0388 7.09813 11.0394 7.01813V5.54625C11.0388 5.46625 10.9744 5.40188 10.8944 5.40188H9.2425C9.16313 5.40188 9.09813 5.46625 9.09813 5.54625V7.01813C9.09813 7.09813 9.1625 7.1625 9.2425 7.16313ZM9.2425 5.04563H10.8944C10.9744 5.04563 11.0394 4.98063 11.0394 4.90063V3.42813C11.0388 3.34813 10.9744 3.28375 10.8944 3.28375H9.2425C9.16313 3.28375 9.09813 3.34813 9.09813 3.42813V4.90063C9.09813 4.98 9.1625 5.045 9.24188 5.045C9.24188 5.045 9.24188 5.045 9.2425 5.045V5.04563ZM11.5469 9.28063H13.1994C13.2794 9.28063 13.3438 9.21625 13.3444 9.13625V7.66438C13.3444 7.58438 13.2794 7.51938 13.1994 7.51938H11.5469C11.4669 7.51938 11.4025 7.58375 11.4025 7.66375V9.13625C11.4025 9.21563 11.4669 9.28063 11.5469 9.28063Z" fill="#76DAFF"/>
</svg>
