<svg width="20" height="20" viewBox="0 0 20 20" fill="none" xmlns="http://www.w3.org/2000/svg">
<path d="M10.6875 9.99999C10.6875 8.38874 11.9612 7.08374 13.5312 7.08374C15.1025 7.08374 16.375 8.38749 16.375 9.99999C16.375 11.6112 15.1025 12.9162 13.5312 12.9162C11.9625 12.9162 10.6875 11.6125 10.6875 9.99999Z" fill="#1ABCFE"/>
<path d="M5 15.8338C5 14.2225 6.27375 12.9163 7.84375 12.9163H10.6875V15.8338C10.6875 17.4438 9.41375 18.75 7.84375 18.75C6.27375 18.75 5 17.4438 5 15.8338Z" fill="#0ACF83"/>
<path d="M10.6875 1.25V7.08375H13.5312C15.1025 7.08375 16.375 5.7775 16.375 4.16625C16.375 2.55625 15.1025 1.25 13.5312 1.25H10.6875Z" fill="#FF7262"/>
<path d="M5 4.16625C5 5.7775 6.27375 7.08375 7.84375 7.08375H10.6875V1.25H7.84375C6.27375 1.25 5 2.55625 5 4.16625Z" fill="#F24E1E"/>
<path d="M5 9.99999C5 11.6112 6.27375 12.9162 7.84375 12.9162H10.6875V7.08374H7.84375C6.27375 7.08374 5 8.38749 5 9.99999Z" fill="#A259FF"/>
</svg>
