<svg width="20" height="20" viewBox="0 0 20 20" fill="none" xmlns="http://www.w3.org/2000/svg">
<g clip-path="url(#clip0_6_72)">
<path d="M9.18464 0.253905C9.6784 -0.0287189 10.3215 -0.0299955 10.8149 0.253905C13.2968 1.65632 15.7795 3.05653 18.261 4.45979C18.7277 4.7227 19.0399 5.24213 19.0351 5.77993V14.2174C19.0386 14.7775 18.6956 15.3093 18.2032 15.5662C15.7294 16.9609 13.2569 18.3573 10.7836 19.752C10.2796 20.0401 9.62358 20.0179 9.13535 19.7062C8.39372 19.2762 7.65081 18.8484 6.90911 18.4189C6.75755 18.3286 6.5867 18.2567 6.47968 18.1097C6.57429 17.9822 6.74344 17.9663 6.88088 17.9106C7.19046 17.8122 7.47478 17.6542 7.75918 17.5009C7.83109 17.4516 7.9189 17.4705 7.98783 17.5145C8.62202 17.8782 9.2506 18.2523 9.88691 18.6125C10.0227 18.6909 10.1601 18.5868 10.2761 18.5221C12.7036 17.1501 15.1341 15.7833 17.5612 14.4109C17.6512 14.3677 17.7009 14.2722 17.6936 14.1737C17.6953 11.3904 17.694 8.60653 17.6944 5.8232C17.7047 5.71142 17.64 5.60866 17.539 5.56291C15.0738 4.17461 12.6099 2.78419 10.1451 1.39554C10.1024 1.36618 10.0518 1.35043 10 1.35035C9.9482 1.35027 9.89757 1.36588 9.85478 1.39511C7.39003 2.78419 4.92656 4.17589 2.4618 5.56412C2.36109 5.60993 2.29351 5.711 2.30549 5.8232C2.30592 8.60653 2.30549 11.3904 2.30549 14.1741C2.30122 14.2222 2.31177 14.2704 2.33574 14.3123C2.35971 14.3542 2.39593 14.3877 2.43953 14.4084C3.09727 14.7814 3.75585 15.1517 4.414 15.5234C4.78478 15.723 5.24003 15.8416 5.64854 15.6887C6.00904 15.5594 6.26173 15.1915 6.25485 14.8087C6.25826 12.0416 6.25315 9.27412 6.25741 6.50745C6.2484 6.38461 6.36492 6.28312 6.48436 6.29469C6.80039 6.29256 7.11684 6.29043 7.43287 6.29554C7.56478 6.29256 7.65556 6.42483 7.63925 6.54859C7.63797 9.3332 7.64265 12.1179 7.63712 14.9025C7.63797 15.6446 7.33308 16.4521 6.64663 16.8153C5.80095 17.2533 4.7557 17.1604 3.92024 16.7404C3.19698 16.3794 2.50677 15.9533 1.79634 15.5666C1.30266 15.3111 0.961308 14.7771 0.964783 14.2175V5.77993C0.959605 5.231 1.28422 4.70213 1.76549 4.44305C4.23883 3.04724 6.71173 1.65036 9.18464 0.253905Z" fill="#8CC84B"/>
<path d="M11.3423 6.09858C12.4211 6.02914 13.5759 6.05744 14.5466 6.58886C15.2981 6.9961 15.7148 7.85078 15.7281 8.68574C15.7071 8.79837 15.5893 8.86049 15.4818 8.85276C15.1689 8.85234 14.8558 8.85702 14.5428 8.85063C14.4101 8.85574 14.3329 8.73333 14.3162 8.61595C14.2263 8.21645 14.0084 7.82078 13.6324 7.62808C13.0552 7.33907 12.3859 7.35361 11.7564 7.35964C11.2969 7.38404 10.8028 7.42383 10.4135 7.69404C10.1147 7.89872 10.0239 8.31191 10.1306 8.64468C10.2311 8.88361 10.5069 8.96071 10.7326 9.03177C12.0326 9.37177 13.4102 9.33794 14.6854 9.78539C15.2133 9.9678 15.7298 10.3224 15.9105 10.8752C16.1469 11.616 16.0433 12.5016 15.5162 13.0963C15.0887 13.5857 14.4662 13.8521 13.8452 13.9968C13.0192 14.181 12.162 14.1857 11.3231 14.1039C10.5343 14.014 9.71346 13.8067 9.10453 13.2693C8.58382 12.8172 8.32949 12.1127 8.35474 11.4328C8.36077 11.3179 8.47509 11.2379 8.58509 11.2473C8.90027 11.2447 9.21545 11.2439 9.53063 11.2477C9.65651 11.2387 9.74985 11.3475 9.7563 11.4662C9.81446 11.8468 9.9575 12.2463 10.2894 12.472C10.93 12.8852 11.7337 12.8569 12.4672 12.8685C13.0749 12.8416 13.757 12.8334 14.2529 12.4318C14.5145 12.2027 14.592 11.8194 14.5213 11.4897C14.4447 11.2113 14.1535 11.0816 13.9035 10.9968C12.6201 10.5908 11.2272 10.7382 9.95623 10.2791C9.44027 10.0967 8.94133 9.75198 8.74311 9.22191C8.46651 8.4717 8.59325 7.54376 9.17559 6.96907C9.74339 6.39744 10.563 6.17737 11.3423 6.09858Z" fill="#8CC84B"/>
</g>
<defs>
<clipPath id="clip0_6_72">
<rect width="20" height="20" fill="white"/>
</clipPath>
</defs>
</svg>
