<svg width="20" height="10" viewBox="0 0 20 10" fill="none" xmlns="http://www.w3.org/2000/svg">
<g clip-path="url(#clip0_6_76)">
<path d="M1.5158 2.22461H4.3566C5.1904 2.23161 5.7946 2.47201 6.1692 2.94541C6.5438 3.41881 6.6674 4.06541 6.5402 4.88521C6.4908 5.25981 6.3812 5.62721 6.2116 5.98761C6.049 6.34801 5.823 6.67301 5.5332 6.96281C5.1798 7.33021 4.8018 7.56341 4.399 7.66241C3.9962 7.76141 3.5792 7.81081 3.1482 7.81081H1.8762L1.4734 9.82481H0L1.5158 2.22461ZM2.756 3.43301L2.12 6.61301C2.1624 6.62001 2.2048 6.62361 2.2472 6.62361C2.2966 6.62361 2.3462 6.62361 2.3956 6.62361C3.074 6.63061 3.6394 6.56361 4.0916 6.42221C4.5438 6.27381 4.8478 5.75801 5.0032 4.87461C5.1304 4.13261 5.0032 3.70501 4.6216 3.59201C4.247 3.47901 3.7772 3.42601 3.2118 3.43301C3.127 3.44001 3.0458 3.44361 2.968 3.44361C2.8974 3.44361 2.8232 3.44361 2.7454 3.44361L2.756 3.43301Z" fill="#969BE1"/>
<path d="M8.21854 0.200012H9.68134L9.26794 2.22461H10.5823C11.3031 2.23881 11.8401 2.38721 12.1935 2.66981C12.5539 2.95241 12.6599 3.48961 12.5115 4.28101L11.8013 7.81081H10.3173L10.9957 4.44001C11.0663 4.08661 11.0451 3.83581 10.9321 3.68741C10.8191 3.53901 10.5753 3.46481 10.2007 3.46481L9.02414 3.45421L8.15494 7.81081H6.69214L8.21854 0.200012Z" fill="#969BE1"/>
<path d="M14.0825 2.22461H16.9232C17.7571 2.23161 18.3613 2.47201 18.7359 2.94541C19.1105 3.41881 19.234 4.06541 19.1068 4.88521C19.0574 5.25981 18.9479 5.62721 18.7783 5.98761C18.6157 6.34801 18.3897 6.67301 18.0999 6.96281C17.7465 7.33021 17.3685 7.56341 16.9657 7.66241C16.5629 7.76141 16.1458 7.81081 15.7148 7.81081H14.4428L14.04 9.82481H12.5667L14.0825 2.22461ZM15.3227 3.43301L14.6867 6.61301C14.7291 6.62001 14.7715 6.62361 14.8139 6.62361C14.8633 6.62361 14.9128 6.62361 14.9622 6.62361C15.6406 6.63061 16.2061 6.56361 16.6583 6.42221C17.1105 6.27381 17.4145 5.75801 17.5699 4.87461C17.6971 4.13261 17.5699 3.70501 17.1883 3.59201C16.8137 3.47901 16.3439 3.42601 15.7785 3.43301C15.6937 3.44001 15.6124 3.44361 15.5346 3.44361C15.464 3.44361 15.3898 3.44361 15.312 3.44361L15.3227 3.43301Z" fill="#969BE1"/>
</g>
<defs>
<clipPath id="clip0_6_76">
<rect width="20" height="10" fill="white"/>
</clipPath>
</defs>
</svg>
