<svg width="20" height="20" viewBox="0 0 20 20" fill="none" xmlns="http://www.w3.org/2000/svg">
<path d="M5.3512 9.535C6.84371 10.0596 8.41824 10.3121 9.99995 10.2806C11.5817 10.3119 13.1562 10.0592 14.6487 9.53438C15.8137 9.08 16.2268 8.575 16.2268 8.28438V6.0625C15.8195 6.33526 15.3826 6.56087 14.9243 6.735C13.3452 7.30044 11.677 7.57611 9.99995 7.54875C8.32303 7.5756 6.65498 7.30037 5.07557 6.73625C4.61711 6.56211 4.1801 6.33606 3.77307 6.0625V8.28125C3.77307 8.5775 4.18745 9.08 5.3512 9.535Z" fill="#E23333"/>
<path d="M5.3512 13.7256C5.87845 13.9267 6.42216 14.0817 6.9762 14.1887C7.97247 14.3815 8.98521 14.4763 9.99995 14.4719C11.0147 14.4765 12.0274 14.3819 13.0237 14.1894C13.5777 14.0823 14.1214 13.9273 14.6487 13.7262C15.8137 13.2719 16.2268 12.7669 16.2268 12.4762V10.3575C15.8901 10.5601 15.5363 10.7326 15.1693 10.8731C13.5104 11.4605 11.7595 11.7448 9.99995 11.7125C8.24025 11.7438 6.48927 11.4584 4.83057 10.87C4.46377 10.7291 4.10994 10.5566 3.77307 10.3544V12.475C3.77307 12.7662 4.18745 13.2694 5.3512 13.7256Z" fill="#E23333"/>
<path d="M9.99995 18.75C13.4374 18.75 16.2268 17.66 16.2268 16.3162V14.5431C15.9205 14.7277 15.5997 14.887 15.2674 15.0194L15.1693 15.0587C13.5108 15.6478 11.7598 15.9338 9.99995 15.9031C8.24007 15.9347 6.48892 15.6487 4.83057 15.0587C4.79682 15.0462 4.76432 15.0319 4.73245 15.0194C4.40021 14.887 4.07935 14.7277 3.77307 14.5431V16.3162C3.77307 17.66 6.56245 18.75 9.99995 18.75Z" fill="#E23333"/>
<path d="M9.99995 6.1175C13.439 6.1175 16.2268 5.02787 16.2268 3.68375C16.2268 2.33963 13.439 1.25 9.99995 1.25C6.56094 1.25 3.77307 2.33963 3.77307 3.68375C3.77307 5.02787 6.56094 6.1175 9.99995 6.1175Z" fill="#E23333"/>
</svg>
