<svg width="20" height="20" viewBox="0 0 20 20" fill="none" xmlns="http://www.w3.org/2000/svg">
<g clip-path="url(#clip0_7_22)">
<path d="M0.833374 1.08331H19.1668V18.9167H0.833374V1.08331Z" fill="url(#paint0_radial_7_22)"/>
<path d="M0.833323 1.08326H19.1667V18.9166H0.833323V1.08326ZM0 19.75H20V0.249939H0V19.75ZM12 8.48329C12 8.38327 12 8.14163 11.9584 7.67493C11.9584 7.60827 11.9667 7.59161 12.025 7.56661C12.5333 7.35827 13.725 6.99162 15.075 6.99162C15.1417 6.99162 15.175 7.00828 15.175 7.07494V8.28328C15.175 8.34994 15.15 8.3666 15.0833 8.3666C14.5583 8.34161 13.8 8.40826 13.5083 8.53325V13.7833C13.5083 13.8499 13.4833 13.8833 13.4083 13.8833H12.1C12.0333 13.8833 12 13.8583 12 13.7833V8.48329H12ZM6.66669 9.24162C6.85833 9.25829 7.00834 9.25829 7.3417 9.25829C8.3167 9.25829 9.23338 8.91663 9.23338 7.59164C9.23338 6.53331 8.58337 5.99995 7.46668 5.99995C7.13336 5.99995 6.8167 6.01661 6.66669 6.02494V9.24162ZM5.19168 4.8166C5.19168 4.75828 5.20835 4.71658 5.27501 4.71658C5.80833 4.69159 6.59166 4.67492 7.41669 4.67492C9.72502 4.67492 10.7334 5.94159 10.7334 7.56661C10.7334 9.68326 9.20002 10.5916 7.3167 10.5916C7.00001 10.5916 6.89169 10.5749 6.66669 10.5749V13.775C6.66669 13.8416 6.64169 13.8749 6.56667 13.8749H5.28334C5.21668 13.8749 5.18332 13.8499 5.18332 13.775V4.8166H5.19168Z" fill="#E579FF"/>
</g>
<defs>
<radialGradient id="paint0_radial_7_22" cx="0" cy="0" r="1" gradientUnits="userSpaceOnUse" gradientTransform="translate(6.8715 5.07979) scale(13.9334 13.49)">
<stop stop-color="#4B2D4F" stop-opacity="0.98"/>
<stop offset="1" stop-color="#180024"/>
</radialGradient>
<clipPath id="clip0_7_22">
<rect width="20" height="20" fill="white"/>
</clipPath>
</defs>
</svg>
