<svg width="20" height="20" viewBox="0 0 20 20" fill="none" xmlns="http://www.w3.org/2000/svg">
<g clip-path="url(#clip0_37_2)">
<path d="M10 3.98438C7.33333 3.98438 5.66667 5.31771 5 7.98438C6 6.65104 7.16667 6.15104 8.5 6.48438C9.26074 6.67456 9.80448 7.22645 10.4063 7.83738C11.3868 8.83256 12.5215 9.98438 15 9.98438C17.6667 9.98438 19.3333 8.65104 20 5.98438C19 7.31771 17.8333 7.81771 16.5 7.48437C15.7393 7.29419 15.1955 6.7423 14.5937 6.13137C13.6132 5.13619 12.4785 3.98438 10 3.98438ZM5 9.98438C2.33333 9.98438 0.666667 11.3177 0 13.9844C1 12.651 2.16667 12.151 3.5 12.4844C4.26074 12.6746 4.80448 13.2264 5.40633 13.8374C6.38678 14.8326 7.52152 15.9844 10 15.9844C12.6667 15.9844 14.3333 14.651 15 11.9844C14 13.3177 12.8333 13.8177 11.5 13.4844C10.7393 13.2942 10.1955 12.7423 9.59367 12.1314C8.61322 11.1362 7.47848 9.98438 5 9.98438Z" fill="url(#paint0_linear_37_2)"/>
</g>
<defs>
<linearGradient id="paint0_linear_37_2" x1="-0.555556" y1="7.82438" x2="16.7177" y2="17.7837" gradientUnits="userSpaceOnUse">
<stop stop-color="#76DAFF"/>
<stop offset="1" stop-color="#00FFD4"/>
</linearGradient>
<clipPath id="clip0_37_2">
<rect width="20" height="20" fill="white"/>
</clipPath>
</defs>
</svg>
