<svg width="20" height="20" viewBox="0 0 20 20" fill="none" xmlns="http://www.w3.org/2000/svg">
<g clip-path="url(#clip0_3_14)">
<path d="M0 10V0H20V20H0" fill="#007ACC"/>
<path d="M4.38501 10.035V10.85H6.98501V18.25H8.83001V10.85H11.43V10.05C11.43 9.59999 11.43 9.23499 11.41 9.22499C11.41 9.20999 9.82501 9.20499 7.90001 9.20499L4.40001 9.21999V10.04L4.38501 10.035ZM16.07 9.19999C16.58 9.31999 16.97 9.54999 17.32 9.91499C17.505 10.115 17.78 10.465 17.8 10.555C17.8 10.585 16.935 11.17 16.41 11.495C16.39 11.51 16.31 11.425 16.23 11.295C15.97 10.925 15.705 10.765 15.29 10.735C14.69 10.695 14.29 11.01 14.29 11.535C14.29 11.695 14.32 11.785 14.38 11.915C14.515 12.19 14.765 12.355 15.54 12.695C16.97 13.31 17.59 13.715 17.965 14.295C18.39 14.945 18.485 15.965 18.2 16.73C17.88 17.565 17.1 18.13 15.985 18.315C15.635 18.375 14.835 18.365 14.46 18.3C13.66 18.15 12.895 17.75 12.425 17.235C12.24 17.035 11.885 16.5 11.905 16.465L12.095 16.345L12.845 15.91L13.41 15.58L13.54 15.755C13.705 16.015 14.075 16.365 14.29 16.485C14.94 16.82 15.81 16.775 16.24 16.385C16.425 16.215 16.505 16.035 16.505 15.785C16.505 15.555 16.47 15.45 16.355 15.275C16.195 15.055 15.875 14.875 14.975 14.475C13.94 14.035 13.5 13.755 13.09 13.325C12.855 13.065 12.64 12.66 12.54 12.325C12.465 12.035 12.44 11.325 12.51 11.04C12.725 10.04 13.48 9.33999 14.56 9.13999C14.91 9.06999 15.735 9.09999 16.08 9.18999L16.07 9.19999Z" fill="white"/>
</g>
<defs>
<clipPath id="clip0_3_14">
<rect width="20" height="20" fill="white"/>
</clipPath>
</defs>
</svg>
