<svg width="20" height="19" viewBox="0 0 20 19" fill="none" xmlns="http://www.w3.org/2000/svg">
<g clip-path="url(#clip0_30_133)">
<path d="M15.009 5.5319L10.2277 12.445C10.177 12.5183 10.1037 12.5732 10.0189 12.6014C9.93409 12.6296 9.84241 12.6293 9.75777 12.601C9.67314 12.5726 9.60017 12.5174 9.54992 12.444C9.49968 12.3704 9.4749 12.2826 9.47937 12.1938L9.67073 8.37702L6.5815 7.72186C6.51548 7.70787 6.45397 7.67788 6.40241 7.63455C6.35085 7.59123 6.31082 7.5359 6.2859 7.47347C6.26097 7.41103 6.25191 7.34342 6.2595 7.27662C6.2671 7.20983 6.29111 7.1459 6.32943 7.0905L11.1108 0.177371C11.1615 0.104033 11.2348 0.0491393 11.3196 0.0209976C11.4044 -0.007144 11.4961 -0.00699847 11.5807 0.0214343C11.6654 0.0498537 11.7384 0.104999 11.7886 0.178509C11.8388 0.252005 11.8636 0.339844 11.8591 0.428701L11.6678 4.2455L14.757 4.9006C14.823 4.91459 14.8845 4.94458 14.9361 4.9879C14.9877 5.03123 15.0277 5.08656 15.0525 5.149C15.0775 5.21143 15.0865 5.27904 15.079 5.34583C15.0715 5.41263 15.0474 5.47651 15.009 5.5319Z" fill="#F7DF1E"/>
<path d="M10.0019 18.2451C9.87477 18.2452 9.74882 18.2204 9.63133 18.1717C9.51385 18.123 9.40713 18.0515 9.31733 17.9616L4.79953 13.4441C4.6188 13.2624 4.51749 13.0165 4.51782 12.7602C4.51817 12.5039 4.62012 12.2581 4.80136 12.077C4.98258 11.8957 5.22828 11.7937 5.48458 11.7933C5.74088 11.793 5.98687 11.8942 6.16859 12.075L10.0019 15.9079L18.3529 7.5573C18.535 7.37819 18.7804 7.27827 19.0358 7.2793C19.2912 7.28034 19.5359 7.38226 19.7164 7.56285C19.8969 7.74345 19.999 7.98807 20 8.24346C20.0009 8.49885 19.9011 8.74431 19.7219 8.92635L10.6864 17.9616C10.5966 18.0517 10.4899 18.123 10.3724 18.1717C10.255 18.2204 10.1291 18.2452 10.0019 18.2451Z" fill="#8CC84B"/>
<path d="M9.99803 18.2451C10.1252 18.2452 10.2512 18.2204 10.3686 18.1717C10.4861 18.123 10.5928 18.0515 10.6826 17.9616L15.2004 13.4441C15.3812 13.2624 15.4825 13.0165 15.4821 12.7602C15.4819 12.5039 15.3798 12.2581 15.1986 12.077C15.0173 11.8957 14.7716 11.7937 14.5154 11.7933C14.2591 11.793 14.0131 11.8942 13.8313 12.075L9.99803 15.9079L1.64706 7.5573C1.465 7.37819 1.21955 7.27827 0.964168 7.2793C0.708777 7.28034 0.464141 7.38226 0.283557 7.56285C0.102969 7.74345 0.00105588 7.98807 7.9138e-06 8.24346C-0.00102398 8.49885 0.0988941 8.74431 0.278006 8.92635L9.31358 17.9616C9.40338 18.0517 9.51007 18.123 9.62752 18.1717C9.74498 18.2204 9.8709 18.2452 9.99803 18.2451Z" fill="#729B1B" fill-opacity="0.5"/>
</g>
<defs>
<clipPath id="clip0_30_133">
<rect width="20" height="18.2812" fill="white"/>
</clipPath>
</defs>
</svg>
