<svg width="44" height="4" viewBox="0 0 44 4" fill="none" xmlns="http://www.w3.org/2000/svg">
<path d="M11.6 3.2C12.4837 3.2 13.2 2.48366 13.2 1.6C13.2 0.716344 12.4837 0 11.6 0C10.7163 0 10 0.716344 10 1.6C10 2.48366 10.7163 3.2 11.6 3.2Z" fill="white"/>
<path d="M21.6 3.2C22.4837 3.2 23.2 2.48366 23.2 1.6C23.2 0.716344 22.4837 0 21.6 0C20.7163 0 20 0.716344 20 1.6C20 2.48366 20.7163 3.2 21.6 3.2Z" fill="white"/>
<path d="M31.6 3.2C32.4837 3.2 33.2 2.48366 33.2 1.6C33.2 0.716344 32.4837 0 31.6 0C30.7163 0 30 0.716344 30 1.6C30 2.48366 30.7163 3.2 31.6 3.2Z" fill="white"/>
<path d="M1.6 3.2C2.48366 3.2 3.2 2.48366 3.2 1.6C3.2 0.716344 2.48366 0 1.6 0C0.716345 0 0 0.716344 0 1.6C0 2.48366 0.716345 3.2 1.6 3.2Z" fill="white"/>
<path d="M41.6 3.2C42.4837 3.2 43.2 2.48366 43.2 1.6C43.2 0.716344 42.4837 0 41.6 0C40.7163 0 40 0.716344 40 1.6C40 2.48366 40.7163 3.2 41.6 3.2Z" fill="white"/>
</svg>
