<svg width="14" height="14" viewBox="0 0 14 14" fill="none" xmlns="http://www.w3.org/2000/svg">
<path d="M1.6 3.2C2.48366 3.2 3.2 2.48366 3.2 1.6C3.2 0.716344 2.48366 0 1.6 0C0.716344 0 0 0.716344 0 1.6C0 2.48366 0.716344 3.2 1.6 3.2Z" fill="white"/>
<path d="M11.6 3.2C12.4837 3.2 13.2 2.48366 13.2 1.6C13.2 0.716344 12.4837 0 11.6 0C10.7163 0 10 0.716344 10 1.6C10 2.48366 10.7163 3.2 11.6 3.2Z" fill="white"/>
<path d="M1.6 13.2C2.48366 13.2 3.2 12.4837 3.2 11.6C3.2 10.7163 2.48366 10 1.6 10C0.716344 10 0 10.7163 0 11.6C0 12.4837 0.716344 13.2 1.6 13.2Z" fill="white"/>
<path d="M11.6 13.2C12.4837 13.2 13.2 12.4837 13.2 11.6C13.2 10.7163 12.4837 10 11.6 10C10.7163 10 10 10.7163 10 11.6C10 12.4837 10.7163 13.2 11.6 13.2Z" fill="white"/>
</svg>
