<svg width="145" height="51" viewBox="0 0 145 51" fill="none" xmlns="http://www.w3.org/2000/svg">
<path d="M21.8242 8.82617C22.2359 8.56156 22.7641 8.56156 23.1758 8.82617L41.9775 20.9131C42.7427 21.4052 42.7427 22.5236 41.9775 23.0156L23.1758 35.1025C22.7641 35.3671 22.2359 35.3671 21.8242 35.1025L3.02246 23.0156C2.25726 22.5236 2.2573 21.4052 3.02246 20.9131L21.8242 8.82617Z" fill="black" stroke="#0AB2D8" stroke-width="1.5"/>
<path d="M22.5 24.5536C29.7487 24.5536 35.625 30.4298 35.625 37.6786C35.625 44.9273 29.7487 50.8036 22.5 50.8036C15.2513 50.8036 9.375 44.9273 9.375 37.6786C9.375 30.4298 15.2513 24.5536 22.5 24.5536ZM29.2881 42.7811C28.9997 42.4841 28.5248 42.4773 28.2275 42.7655C27.4353 43.5337 25.6601 45.0536 22.5 45.0536C19.3399 45.0535 17.5647 43.5336 16.7725 42.7655C16.4752 42.4773 16.0003 42.4841 15.7119 42.7811C15.4238 43.0783 15.4306 43.5533 15.7275 43.8416C16.6542 44.7402 18.7857 46.5535 22.5 46.5536C26.2143 46.5536 28.3458 44.7403 29.2725 43.8416C29.5695 43.5533 29.5763 43.0783 29.2881 42.7811Z" fill="white"/>
<path d="M22.5 26.0009C18 26.0009 14.375 28.3693 13.125 29.5536V22.4483C14.6875 21.0667 18.75 18.3036 22.5 18.3036C26.25 18.3036 30.3125 21.0667 31.875 22.4483V29.5536C30.625 28.3693 27 26.0009 22.5 26.0009Z" fill="black" stroke="#0AB2D8"/>
<path d="M35.0671 15.1786V26.4286" stroke="#8CC84B" stroke-linecap="round"/>
<circle cx="35.0671" cy="26.4286" r="0.75" fill="#8CC84B" stroke="#8CC84B"/>
<path d="M34.6802 28.2164C34.7436 27.8827 35.4164 27.288 35.4164 27.288C35.4164 27.288 36.0031 27.89 36.1526 28.2164C36.302 28.5428 37.8918 39.2411 37.3029 39.2411C36.7139 39.2411 36.676 38.523 36.5724 38.1604C36.4688 37.7977 36.2354 37.0942 35.6465 37.0942C35.0575 37.0942 34.4962 38.1314 34.3236 37.6744C34.1511 37.2175 34.6169 28.55 34.6802 28.2164Z" fill="#8CC84B" stroke="#8CC84B" stroke-linecap="round" stroke-linejoin="bevel"/>
<path d="M121.824 8.82617C122.236 8.56156 122.764 8.56156 123.176 8.82617L141.978 20.9131C142.743 21.4052 142.743 22.5236 141.978 23.0156L123.176 35.1025C122.764 35.3671 122.236 35.3671 121.824 35.1025L103.023 23.0156C102.258 22.5236 102.258 21.4052 103.023 20.9131L121.824 8.82617Z" fill="black" stroke="#0AB2D8" stroke-width="1.5"/>
<path d="M122.5 24.5536C129.749 24.5536 135.625 30.4298 135.625 37.6786C135.625 44.9273 129.749 50.8036 122.5 50.8036C115.251 50.8036 109.375 44.9273 109.375 37.6786C109.375 30.4298 115.251 24.5536 122.5 24.5536ZM129.288 42.7811C129 42.4841 128.525 42.4772 128.228 42.7655C127.435 43.5337 125.66 45.0536 122.5 45.0536C119.34 45.0535 117.565 43.5337 116.772 42.7655C116.475 42.4773 116 42.4841 115.712 42.7811C115.424 43.0783 115.431 43.5533 115.728 43.8416C116.654 44.7402 118.786 46.5535 122.5 46.5536C126.214 46.5536 128.346 44.7402 129.272 43.8416C129.569 43.5533 129.576 43.0783 129.288 42.7811Z" fill="white"/>
<path d="M122.5 26.0009C118 26.0009 114.375 28.3693 113.125 29.5536V22.4483C114.688 21.0667 118.75 18.3036 122.5 18.3036C126.25 18.3036 130.313 21.0667 131.875 22.4483V29.5536C130.625 28.3693 127 26.0009 122.5 26.0009Z" fill="black" stroke="#0AB2D8"/>
<path d="M135.067 15.1786V26.4286" stroke="#8CC84B" stroke-linecap="round"/>
<circle cx="135.067" cy="26.4286" r="0.75" fill="#8CC84B" stroke="#8CC84B"/>
<path d="M134.68 28.2164C134.744 27.8827 135.416 27.288 135.416 27.288C135.416 27.288 136.003 27.89 136.153 28.2164C136.302 28.5428 137.892 39.2411 137.303 39.2411C136.714 39.2411 136.676 38.523 136.572 38.1604C136.469 37.7977 136.235 37.0942 135.646 37.0942C135.058 37.0942 134.496 38.1314 134.324 37.6744C134.151 37.2175 134.617 28.55 134.68 28.2164Z" fill="#8CC84B" stroke="#8CC84B" stroke-linecap="round" stroke-linejoin="bevel"/>
<path d="M71.8245 1.32617C72.2362 1.06156 72.7643 1.06156 73.176 1.32617L91.9778 13.4131C92.7429 13.9052 92.743 15.0236 91.9778 15.5156L73.176 27.6025C72.7643 27.8671 72.2361 27.8671 71.8245 27.6025L53.0227 15.5156C52.2575 15.0236 52.2575 13.9052 53.0227 13.4131L71.8245 1.32617Z" fill="black" stroke="#0AB2D8" stroke-width="1.5"/>
<path d="M72.5 17.0536C79.7487 17.0536 85.625 22.9298 85.625 30.1786C85.625 37.4273 79.7487 43.3036 72.5 43.3036C65.2513 43.3036 59.375 37.4273 59.375 30.1786C59.375 22.9298 65.2513 17.0536 72.5 17.0536ZM79.2881 35.2811C78.9997 34.9841 78.5248 34.9773 78.2275 35.2655C77.4353 36.0337 75.6601 37.5536 72.5 37.5536C69.3399 37.5535 67.5647 36.0336 66.7725 35.2655C66.4752 34.9773 66.0003 34.9841 65.7119 35.2811C65.4237 35.5783 65.4306 36.0533 65.7275 36.3416C66.6542 37.2402 68.7857 39.0535 72.5 39.0536C76.2143 39.0536 78.3458 37.2403 79.2725 36.3416C79.5695 36.0533 79.5763 35.5783 79.2881 35.2811Z" fill="white"/>
<path d="M72.5 18.5009C68 18.5009 64.375 20.8693 63.125 22.0536V14.9483C64.6875 13.5667 68.75 10.8036 72.5 10.8036C76.25 10.8036 80.3125 13.5667 81.875 14.9483V22.0536C80.625 20.8693 77 18.5009 72.5 18.5009Z" fill="black" stroke="#0AB2D8"/>
<path d="M85.0671 7.67856V18.9286" stroke="#8CC84B" stroke-linecap="round"/>
<circle cx="85.0671" cy="18.9286" r="0.75" fill="#8CC84B" stroke="#8CC84B"/>
<path d="M84.6802 20.7163C84.7436 20.3827 85.4164 19.7879 85.4164 19.7879C85.4164 19.7879 86.0031 20.3899 86.1526 20.7163C86.302 21.0427 87.8918 31.7411 87.3029 31.7411C86.7139 31.7411 86.676 31.023 86.5724 30.6603C86.4688 30.2977 86.2354 29.5941 85.6465 29.5941C85.0575 29.5941 84.4962 30.6313 84.3236 30.1744C84.1511 29.7174 84.6169 21.05 84.6802 20.7163Z" fill="#8CC84B" stroke="#8CC84B" stroke-linecap="round" stroke-linejoin="bevel"/>
</svg>
