<svg width="101" height="93" viewBox="0 0 101 93" fill="none" xmlns="http://www.w3.org/2000/svg">
<path d="M16.0119 87.4014L24.0981 57.2235C24.4495 55.912 25.638 55 26.9959 55H73.547C75.5195 55 76.9553 56.8711 76.4447 58.7765L68.3586 88.9543C68.0072 90.2659 66.8186 91.1779 65.4608 91.1779H18.9097C16.9371 91.1779 15.5014 89.3068 16.0119 87.4014Z" fill="black" stroke="white" stroke-width="3" stroke-linejoin="round"/>
<path d="M40.5747 82.6046L39.8634 84.7027H47.8634L48.5747 82.6046H40.5747Z" fill="#76DAFF" stroke="#76DAFF" stroke-width="1.5" stroke-linecap="round" stroke-linejoin="round"/>
<path d="M26.895 74.7027L29.5747 64.7027H41.2542L38.5747 74.7027H26.895Z" fill="#8CC84B" stroke="white" stroke-width="1.5" stroke-linecap="round" stroke-linejoin="round"/>
<path d="M53.5747 74.7027L56.2544 64.7027H67.9339L65.2544 74.7027H53.5747Z" fill="#8CC84B" stroke="white" stroke-width="1.5" stroke-linecap="round" stroke-linejoin="round"/>
<path d="M30.5747 60.2027H36.5747M40.5747 60.2027H44.5747M48.5747 60.2027H54.5747" stroke="#F28282" stroke-width="1.5" stroke-linecap="round" stroke-linejoin="round"/>
<path d="M10.5 6C16.299 6 21 10.701 21 16.5C21 22.299 16.299 27 10.5 27C4.70101 27 0 22.299 0 16.5C0 10.701 4.70101 6 10.5 6ZM16.0381 20.4775C15.7497 20.1805 15.2748 20.1737 14.9775 20.4619C14.3572 21.0634 12.9727 22.25 10.5 22.25C8.02735 22.25 6.64284 21.0634 6.02246 20.4619C5.72521 20.1737 5.2503 20.1805 4.96191 20.4775C4.67367 20.7748 4.68052 21.2497 4.97754 21.5381C5.73234 22.27 7.47312 23.75 10.5 23.75C13.5269 23.75 15.2677 22.27 16.0225 21.5381C16.3195 21.2497 16.3263 20.7748 16.0381 20.4775Z" fill="white"/>
<path d="M50.5 0C56.299 0 61 4.70101 61 10.5C61 16.299 56.299 21 50.5 21C44.701 21 40 16.299 40 10.5C40 4.70101 44.701 0 50.5 0ZM56.0381 14.4775C55.7497 14.1805 55.2748 14.1737 54.9775 14.4619C54.3572 15.0634 52.9727 16.25 50.5 16.25C48.0273 16.25 46.6428 15.0634 46.0225 14.4619C45.7252 14.1737 45.2503 14.1805 44.9619 14.4775C44.6737 14.7748 44.6805 15.2497 44.9775 15.5381C45.7323 16.27 47.4731 17.75 50.5 17.75C53.5269 17.75 55.2677 16.27 56.0225 15.5381C56.3195 15.2497 56.3263 14.7748 56.0381 14.4775Z" fill="white"/>
<path d="M90.5 6C96.299 6 101 10.701 101 16.5C101 22.299 96.299 27 90.5 27C84.701 27 80 22.299 80 16.5C80 10.701 84.701 6 90.5 6ZM96.0381 20.4775C95.7497 20.1805 95.2748 20.1737 94.9775 20.4619C94.3572 21.0634 92.9727 22.25 90.5 22.25C88.0273 22.25 86.6428 21.0634 86.0225 20.4619C85.7252 20.1737 85.2503 20.1805 84.9619 20.4775C84.6737 20.7748 84.6805 21.2497 84.9775 21.5381C85.7323 22.27 87.4731 23.75 90.5 23.75C93.5269 23.75 95.2677 22.27 96.0225 21.5381C96.3195 21.2497 96.3263 20.7748 96.0381 20.4775Z" fill="white"/>
<path d="M77.1502 35C75.4113 35 74 36.4113 74 38.1502C74 41.6875 77.5683 42.615 80 46.1122C82.2988 42.6365 86 41.5746 86 38.1502C86 36.4113 84.5887 35 82.8498 35C81.5885 35 80.503 35.7447 80 36.8161C79.497 35.7447 78.4113 35 77.1502 35Z" fill="#F28282"/>
<path d="M19.1502 35C17.4113 35 16 36.4113 16 38.1502C16 41.6875 19.5683 42.615 22 46.1122C24.2988 42.6365 28 41.5746 28 38.1502C28 36.4113 26.5887 35 24.8498 35C23.5885 35 22.503 35.7447 22 36.8161C21.497 35.7447 20.4113 35 19.1502 35Z" fill="#F28282"/>
<path d="M48.1502 31C46.4113 31 45 32.4113 45 34.1502C45 37.6875 48.5683 38.615 51 42.1122C53.2988 38.6365 57 37.5746 57 34.1502C57 32.4113 55.5887 31 53.8498 31C52.5885 31 51.503 31.7447 51 32.8161C50.497 31.7447 49.4113 31 48.1502 31Z" fill="#F28282"/>
</svg>
