<svg width="53" height="82" viewBox="0 0 53 82" fill="none" xmlns="http://www.w3.org/2000/svg">
<path d="M12.6279 16.7502C19.6018 16.7503 25.2549 22.4042 25.2549 29.3781C25.2549 29.8307 25.23 30.2776 25.1836 30.7179C24.1907 30.9315 23.2078 31.0553 22.2324 31.0753C19.4641 31.1323 16.6728 30.3824 13.8281 28.4992C13.6133 28.3571 13.366 28.2728 13.1104 28.2541L13.001 28.2502H13C12.1716 28.2502 11.5 28.9217 11.5 29.7502V36.3722C9.16654 36.0721 7.79645 34.8908 7.13672 34.2511C6.83948 33.9632 6.36447 33.9699 6.07617 34.2668C5.78803 34.5639 5.79507 35.0389 6.0918 35.3273C6.88755 36.0989 8.60509 37.5687 11.5 37.883V41.1535C11.5 41.419 11.5037 41.6859 11.5098 41.9543C5.05963 41.3883 0.000162356 35.9751 0 29.3781C0 22.404 5.65389 16.7502 12.6279 16.7502Z" fill="white"/>
<path d="M13 29.6252V41.0282C13 55.0709 21.9528 73.7235 31.8855 80.1346C42.3222 73.9762 50.771 55.3175 50.771 41.0282V29.6252C47.6838 31.669 44.5953 32.5138 41.5082 32.4502C38.3003 32.3842 35.0936 31.3373 31.8858 29.6252C28.6779 31.3372 25.4712 32.3843 22.2634 32.4502C19.1762 32.5138 16.0878 31.669 13.0006 29.6252H13Z" fill="white" fill-opacity="0.3"/>
<path d="M49.2715 32.2062C46.6958 33.459 44.0933 34.0042 41.4775 33.9503C38.2093 33.8831 35.0059 32.8868 31.8857 31.3136C28.7656 32.8867 25.5622 33.8831 22.2939 33.9503C19.6782 34.0041 17.0757 33.459 14.5 32.2062V41.0285C14.5001 47.767 16.6591 55.7166 20.0693 62.7921C23.2987 69.4925 27.5518 75.2031 31.9199 78.341C36.4714 75.325 40.7149 69.6892 43.8857 62.9884C47.2276 55.926 49.2714 47.9084 49.2715 41.0285V32.2062ZM52.2715 41.0285C52.2714 48.4376 50.0891 56.8931 46.5977 64.2716C43.1195 71.622 38.2324 78.1314 32.6475 81.4269C32.1586 81.7151 31.5491 81.7024 31.0723 81.3947C25.7787 77.9779 20.9054 71.4357 17.3672 64.0949C13.8179 56.7308 11.5001 48.3326 11.5 41.0285V29.6252C11.5 28.7967 12.1716 28.1252 13 28.1252H13.001L13.1104 28.1291C13.366 28.1478 13.6133 28.2321 13.8281 28.3742C16.6728 30.2574 19.4641 31.0073 22.2324 30.9503C25.133 30.8907 28.1062 29.9423 31.1797 28.3019L31.3486 28.2248C31.7518 28.0701 32.2055 28.0958 32.5918 28.3019C35.6653 29.9423 38.6385 30.8906 41.5391 30.9503C44.3074 31.0073 47.0987 30.2575 49.9434 28.3742C50.4038 28.0696 50.9941 28.0427 51.4805 28.3039C51.967 28.5653 52.2715 29.0728 52.2715 29.6252V41.0285Z" fill="white" fill-opacity="0.3"/>
<path d="M7 10.7502C6.33333 10.4168 5 9.35015 5 7.75015C5 5.75015 9 5.75015 9 3.75015C9 2.15015 7.66667 1.08349 7 0.750153" stroke="white" stroke-width="1.5" stroke-linecap="round"/>
<path d="M13 10.7502C12.3333 10.4168 11 9.35015 11 7.75015C11 5.75015 15 5.75015 15 3.75015C15 2.15015 13.6667 1.08349 13 0.750153" stroke="white" stroke-width="1.5" stroke-linecap="round"/>
<path d="M19 10.7502C18.3333 10.4168 17 9.35015 17 7.75015C17 5.75015 21 5.75015 21 3.75015C21 2.15015 19.6667 1.08349 19 0.750153" stroke="white" stroke-width="1.5" stroke-linecap="round"/>
</svg>
