<svg width="123" height="111" viewBox="0 0 123 111" fill="none" xmlns="http://www.w3.org/2000/svg">
<path d="M69.5903 108C77.4237 109.167 93.7903 107.7 96.5903 92.5" stroke="#8CC84B" stroke-width="5" stroke-linecap="round" stroke-linejoin="round"/>
<path d="M40.5903 108C32.757 109.167 16.3903 107.7 13.5903 92.5" stroke="#8CC84B" stroke-width="5" stroke-linecap="round" stroke-linejoin="round"/>
<path d="M55.0903 81.5C60.8893 81.5 65.5903 86.201 65.5903 92C65.5903 97.799 60.8893 102.5 55.0903 102.5C49.2913 102.5 44.5903 97.799 44.5903 92C44.5903 86.201 49.2913 81.5 55.0903 81.5ZM60.6284 95.9775C60.34 95.6805 59.8651 95.6737 59.5679 95.9619C58.9475 96.5634 57.563 97.75 55.0903 97.75C52.6177 97.75 51.2332 96.5634 50.6128 95.9619C50.3155 95.6737 49.8406 95.6805 49.5522 95.9775C49.264 96.2748 49.2709 96.7497 49.5679 97.0381C50.3227 97.77 52.0635 99.25 55.0903 99.25C58.1172 99.25 59.858 97.77 60.6128 97.0381C60.9098 96.7497 60.9167 96.2748 60.6284 95.9775Z" fill="white"/>
<path d="M24.4885 20.5L23.5903 24.5H42.5903L43.4885 20.5H24.4885Z" fill="white" stroke="white" stroke-width="1.5" stroke-linecap="round" stroke-linejoin="round"/>
<path d="M26.4885 13.5L25.5903 17.5H44.5903L45.4885 13.5H26.4885Z" fill="white" stroke="white" stroke-width="1.5" stroke-linecap="round" stroke-linejoin="round"/>
<path d="M28.4885 6.5L27.5903 10.5H46.5903L47.4885 6.5H28.4885Z" fill="white" stroke="white" stroke-width="1.5" stroke-linecap="round" stroke-linejoin="round"/>
<path d="M72.223 48.5C70.8304 48.5 72.0011 50.3334 69.3283 50.5751C66.1606 50.8616 67.9029 47.9779 65.0859 49.4548C62.2689 50.9318 65.6317 51.1391 63.5944 53.5816C61.557 56.0241 60.7496 52.7528 59.802 55.789C58.8544 58.8253 61.3787 56.5942 61.6652 59.762C61.9517 62.9297 59.0681 61.1874 60.545 64.0044C62.0219 66.8214 62.2292 63.4589 64.6717 65.4963C67.1142 67.5337 63.8433 68.3407 66.8795 69.2883C69.9157 70.2359 67.6847 67.7116 70.8524 67.4251C74.0201 67.1386 72.2778 70.0223 75.0948 68.5454C77.9117 67.0685 74.5489 66.8611 76.5863 64.4186C78.6236 61.9761 79.4311 65.247 80.3787 62.2108C81.3262 59.1745 78.8019 61.406 78.5154 58.2383C78.229 55.0705 81.1126 56.8124 79.6357 53.9954C78.1588 51.1784 77.9515 54.5413 75.509 52.5039C73.0665 50.4665 76.3374 49.6595 73.3012 48.7119C72.8267 48.5638 72.481 48.5003 72.223 48.5ZM70.0903 53.3073C71.5806 53.3073 73.0618 53.9208 74.1156 54.9746C75.1694 56.0284 75.7829 57.5096 75.7829 58.9999C75.7829 60.4902 75.1694 61.9714 74.1156 63.0252C73.0618 64.079 71.5806 64.6925 70.0903 64.6925C68.6 64.6925 67.1189 64.079 66.0651 63.0252C65.0113 61.9714 64.3978 60.4902 64.3978 58.9999C64.3978 57.5096 65.0113 56.0284 66.0651 54.9746C67.1189 53.9208 68.6 53.3073 70.0903 53.3073Z" fill="white"/>
<path d="M1.60531 59.7217L6.97795 39.7217C7.33003 38.4111 8.51812 37.5 9.87523 37.5H41.6781C43.6515 37.5 45.0873 39.3725 44.5754 41.2783L39.2027 61.2783C38.8507 62.5889 37.6626 63.5 36.3055 63.5H4.50259C2.52921 63.5 1.09335 61.6275 1.60531 59.7217Z" fill="#A259FF" stroke="white" stroke-width="3" stroke-linejoin="round"/>
<path d="M29.5341 51.6157L26.5903 50.183V48.5L30.5903 50.7899V51.9974L29.5341 51.6157ZM26.5903 52.817L29.5387 51.353L30.5903 51.0089V52.2101L26.5903 54.5V52.817Z" fill="white"/>
<path d="M25.5903 45.5L22.0208 56.5H20.5903L24.1599 45.5H25.5903Z" fill="white"/>
<path d="M16.6459 51.3655L19.5903 52.8045V54.5L15.5903 52.2101V51.0089L16.6459 51.3655ZM19.5903 50.1893L16.6413 51.6533L15.5903 51.9911V50.7899L19.5903 48.5V50.1893Z" fill="white"/>
<path d="M60.6022 33.9014L68.6884 3.72354C69.0398 2.41199 70.2284 1.5 71.5862 1.5H118.137C120.11 1.5 121.546 3.37109 121.035 5.27646L112.949 35.4543C112.597 36.7659 111.409 37.6779 110.051 37.6779H63.5C61.5274 37.6779 60.0917 35.8068 60.6022 33.9014Z" fill="black" stroke="white" stroke-width="3" stroke-linejoin="round"/>
<path d="M85.165 29.1046L84.4537 31.2027H92.4537L93.165 29.1046H85.165Z" fill="#76DAFF" stroke="#76DAFF" stroke-width="1.5" stroke-linecap="round" stroke-linejoin="round"/>
<path d="M71.4854 21.2027L74.165 11.2027H85.8445L83.165 21.2027H71.4854Z" fill="#8CC84B" stroke="white" stroke-width="1.5" stroke-linecap="round" stroke-linejoin="round"/>
<path d="M98.165 21.2027L100.845 11.2027H112.524L109.845 21.2027H98.165Z" fill="#8CC84B" stroke="white" stroke-width="1.5" stroke-linecap="round" stroke-linejoin="round"/>
<path d="M75.165 6.70273H81.165M85.165 6.70273H89.165M93.165 6.70273H99.165" stroke="#F28282" stroke-width="1.5" stroke-linecap="round" stroke-linejoin="round"/>
</svg>
